<svg width="96" height="96" viewBox="0 0 96 96" fill="none" xmlns="http://www.w3.org/2000/svg">
<path d="M14 74V24H28C28.5305 24 29.0392 23.7893 29.4142 23.4142C29.7893 23.0392 30 22.5305 30 22V8.00003H68C68.5305 8.00003 69.0392 8.21075 69.4142 8.58582C69.7893 8.96089 70 9.4696 70 10V36H74V10C74 8.40873 73.3679 6.88261 72.2427 5.75739C71.1175 4.63217 69.5913 4.00003 68 4.00003H28C27.7368 3.99851 27.4759 4.04896 27.2322 4.14849C26.9885 4.24802 26.7669 4.39467 26.58 4.58003L10.58 20.58C10.3947 20.7669 10.248 20.9885 10.1485 21.2322C10.049 21.4759 9.99851 21.7368 10 22V74C10 75.5913 10.6322 77.1174 11.7574 78.2427C12.8826 79.3679 14.4087 80 16 80H43.88V76H16C15.4696 76 14.9609 75.7893 14.5858 75.4142C14.2107 75.0392 14 74.5305 14 74ZM16.82 20L26 10.82V20H16.82ZM22 30H44V34H22V30ZM34 20H44V24H34V20ZM22 40H44V44H22V40ZM22 50H44V54H22V50ZM22 60H44V64H22V60ZM80 40H56C54.4087 40 52.8826 40.6322 51.7574 41.7574C50.6322 42.8826 50 44.4087 50 46V86C50 87.5913 50.6322 89.1174 51.7574 90.2427C52.8826 91.3679 54.4087 92 56 92H80C81.5913 92 83.1174 91.3679 84.2427 90.2427C85.3679 89.1174 86 87.5913 86 86V46C86 44.4087 85.3679 42.8826 84.2427 41.7574C83.1174 40.6322 81.5913 40 80 40ZM82 86C82 86.5305 81.7893 87.0392 81.4142 87.4142C81.0392 87.7893 80.5305 88 80 88H56C55.4696 88 54.9609 87.7893 54.5858 87.4142C54.2107 87.0392 54 86.5305 54 86V46C54 45.4696 54.2107 44.9609 54.5858 44.5858C54.9609 44.2107 55.4696 44 56 44H80C80.5305 44 81.0392 44.2107 81.4142 44.5858C81.7893 44.9609 82 45.4696 82 46V86ZM76 48H60C59.4696 48 58.9609 48.2107 58.5858 48.5858C58.2107 48.9609 58 49.4696 58 50V58C58 58.5305 58.2107 59.0392 58.5858 59.4142C58.9609 59.7893 59.4696 60 60 60H76C76.5305 60 77.0392 59.7893 77.4142 59.4142C77.7893 59.0392 78 58.5305 78 58V50C78 49.4696 77.7893 48.9609 77.4142 48.5858C77.0392 48.2107 76.5305 48 76 48ZM74 56H62V52H74V56ZM58 64H66V68H58V64ZM70 64H78V68H70V64ZM58 72H66V76H58V72ZM70 72H78V76H70V72ZM58 80H66V84H58V80ZM70 80H78V84H70V80ZM54 20V22H60C60.5305 22 61.0392 22.2107 61.4142 22.5858C61.7893 22.9609 62 23.4696 62 24V30C62 30.5305 61.7893 31.0392 61.4142 31.4142C61.0392 31.7893 60.5305 32 60 32H58V34H54V32H50V28H58V26H52C51.4696 26 50.9609 25.7893 50.5858 25.4142C50.2107 25.0392 50 24.5305 50 24V18C50 17.4696 50.2107 16.9609 50.5858 16.5858C50.9609 16.2107 51.4696 16 52 16H54V14H58V16H62V20H54Z" fill="url(#paint0_linear_40_181)"/>
<defs>
<linearGradient id="paint0_linear_40_181" x1="26.1451" y1="-104.308" x2="-75.279" y2="-37.5361" gradientUnits="userSpaceOnUse">
<stop stop-color="#2DD1DB"/>
<stop offset="0.60721" stop-color="#2D9CDB"/>
<stop offset="1" stop-color="#1A8ED0"/>
</linearGradient>
</defs>
</svg>
