<svg width="96" height="96" viewBox="0 0 96 96" fill="none" xmlns="http://www.w3.org/2000/svg">
<mask id="path-1-inside-1_40_197" fill="white">
<path d="M45.375 78.1713V73.3953C45.375 72.2019 44.9009 71.0573 44.057 70.2133C43.2131 69.3694 42.0685 68.8953 40.875 68.8953H7.875C6.68153 68.8953 5.53693 69.3694 4.69302 70.2133C3.84911 71.0573 3.375 72.2019 3.375 73.3953V78.1713C2.50064 78.4804 1.74314 79.0522 1.20613 79.8083C0.669126 80.5644 0.378844 81.4679 0.375 82.3953L0.375 88.3953C0.375 88.7932 0.533035 89.1747 0.81434 89.456C1.09564 89.7373 1.47718 89.8953 1.875 89.8953H46.875C47.2728 89.8953 47.6544 89.7373 47.9357 89.456C48.217 89.1747 48.375 88.7932 48.375 88.3953V82.3953C48.3712 81.4679 48.0809 80.5644 47.5439 79.8083C47.0069 79.0522 46.2494 78.4804 45.375 78.1713ZM6.375 73.3953C6.375 72.9975 6.53304 72.616 6.81434 72.3347C7.09564 72.0534 7.47717 71.8953 7.875 71.8953H40.875C41.2728 71.8953 41.6544 72.0534 41.9357 72.3347C42.217 72.616 42.375 72.9975 42.375 73.3953V77.8953H6.375V73.3953ZM45.375 86.8953H3.375V82.3953C3.375 81.9975 3.53304 81.616 3.81434 81.3347C4.09564 81.0534 4.47717 80.8953 4.875 80.8953H43.875C44.2728 80.8953 44.6544 81.0534 44.9357 81.3347C45.217 81.616 45.375 81.9975 45.375 82.3953V86.8953ZM93.705 79.5333L55.875 41.7123L62.829 34.7583C63.3282 34.8988 63.8435 34.9745 64.362 34.9833C65.5479 34.9825 66.7069 34.6302 67.6927 33.9711C68.6786 33.3119 69.4469 32.3754 69.9008 31.2798C70.3547 30.1842 70.4738 28.9787 70.243 27.8155C70.0122 26.6523 69.4418 25.5836 68.604 24.7443L51.645 7.77032C50.7157 6.83263 49.5022 6.22885 48.1938 6.05318C46.8854 5.87751 45.5556 6.13981 44.4119 6.79918C43.2682 7.45855 42.3749 8.4779 41.8713 9.69824C41.3677 10.9186 41.2822 12.2713 41.628 13.5453L19.236 35.9403C17.9625 35.5972 16.6114 35.6846 15.3927 36.1889C14.174 36.6931 13.1561 37.586 12.4974 38.7286C11.8387 39.8712 11.576 41.1995 11.7503 42.5068C11.9246 43.8141 12.526 45.0272 13.461 45.9573L30.432 62.9283C31.5572 64.0532 33.083 64.685 34.674 64.685C36.265 64.685 37.7908 64.0532 38.916 62.9283C39.6558 62.1843 40.1869 61.2587 40.456 60.2445C40.7251 59.2304 40.7227 58.1633 40.449 57.1503L47.403 50.1963L85.221 88.0173C85.7745 88.5904 86.4365 89.0475 87.1686 89.3619C87.9006 89.6764 88.6879 89.8419 89.4846 89.8488C90.2813 89.8558 91.0713 89.7039 91.8087 89.4023C92.5461 89.1006 93.216 88.6551 93.7794 88.0917C94.3427 87.5283 94.7882 86.8584 95.0899 86.121C95.3916 85.3837 95.5434 84.5936 95.5365 83.7969C95.5296 83.0002 95.3641 82.2129 95.0496 81.4809C94.7351 80.7489 94.2781 80.0868 93.705 79.5333ZM45.282 9.89432C45.8446 9.33191 46.6075 9.01596 47.403 9.01596C48.1985 9.01596 48.9614 9.33191 49.524 9.89432L66.495 26.8653C67.0574 27.4279 67.3734 28.1908 67.3734 28.9863C67.3734 29.7818 67.0574 30.5447 66.495 31.1073C65.923 31.6529 65.1629 31.9573 64.3725 31.9573C63.582 31.9573 62.8219 31.6529 62.25 31.1073L53.775 22.6203L45.282 14.1363C44.7196 13.5737 44.4036 12.8108 44.4036 12.0153C44.4036 11.2198 44.7196 10.4569 45.282 9.89432ZM36.798 60.7953C36.233 61.3543 35.4703 61.6678 34.6755 61.6678C33.8807 61.6678 33.118 61.3543 32.553 60.7953L15.582 43.8333C15.0195 43.2704 14.7036 42.5071 14.7039 41.7113C14.7042 40.9155 15.0206 40.1523 15.5835 39.5898C16.1464 39.0273 16.9097 38.7114 17.7056 38.7117C18.5014 38.712 19.2645 39.0284 19.827 39.5913L36.798 56.5593C37.0769 56.8379 37.2982 57.1688 37.4492 57.533C37.6002 57.8972 37.6779 58.2876 37.6779 58.6818C37.6779 59.0761 37.6002 59.4665 37.4492 59.8307C37.2982 60.1948 37.0769 60.5257 36.798 60.8043V60.7953ZM38.919 54.4293L21.945 37.4703L43.158 16.2573L60.126 33.2283L38.919 54.4293ZM91.575 85.8963C91.0035 86.4417 90.2439 86.746 89.454 86.746C88.664 86.746 87.9044 86.4417 87.333 85.8963L49.524 48.0783L53.775 43.8333L91.575 81.6543C92.1374 82.2169 92.4534 82.9798 92.4534 83.7753C92.4534 84.5708 92.1374 85.3337 91.575 85.8963Z"/>
</mask>
<path d="M45.375 78.1713V73.3953C45.375 72.2019 44.9009 71.0573 44.057 70.2133C43.2131 69.3694 42.0685 68.8953 40.875 68.8953H7.875C6.68153 68.8953 5.53693 69.3694 4.69302 70.2133C3.84911 71.0573 3.375 72.2019 3.375 73.3953V78.1713C2.50064 78.4804 1.74314 79.0522 1.20613 79.8083C0.669126 80.5644 0.378844 81.4679 0.375 82.3953L0.375 88.3953C0.375 88.7932 0.533035 89.1747 0.81434 89.456C1.09564 89.7373 1.47718 89.8953 1.875 89.8953H46.875C47.2728 89.8953 47.6544 89.7373 47.9357 89.456C48.217 89.1747 48.375 88.7932 48.375 88.3953V82.3953C48.3712 81.4679 48.0809 80.5644 47.5439 79.8083C47.0069 79.0522 46.2494 78.4804 45.375 78.1713ZM6.375 73.3953C6.375 72.9975 6.53304 72.616 6.81434 72.3347C7.09564 72.0534 7.47717 71.8953 7.875 71.8953H40.875C41.2728 71.8953 41.6544 72.0534 41.9357 72.3347C42.217 72.616 42.375 72.9975 42.375 73.3953V77.8953H6.375V73.3953ZM45.375 86.8953H3.375V82.3953C3.375 81.9975 3.53304 81.616 3.81434 81.3347C4.09564 81.0534 4.47717 80.8953 4.875 80.8953H43.875C44.2728 80.8953 44.6544 81.0534 44.9357 81.3347C45.217 81.616 45.375 81.9975 45.375 82.3953V86.8953ZM93.705 79.5333L55.875 41.7123L62.829 34.7583C63.3282 34.8988 63.8435 34.9745 64.362 34.9833C65.5479 34.9825 66.7069 34.6302 67.6927 33.9711C68.6786 33.3119 69.4469 32.3754 69.9008 31.2798C70.3547 30.1842 70.4738 28.9787 70.243 27.8155C70.0122 26.6523 69.4418 25.5836 68.604 24.7443L51.645 7.77032C50.7157 6.83263 49.5022 6.22885 48.1938 6.05318C46.8854 5.87751 45.5556 6.13981 44.4119 6.79918C43.2682 7.45855 42.3749 8.4779 41.8713 9.69824C41.3677 10.9186 41.2822 12.2713 41.628 13.5453L19.236 35.9403C17.9625 35.5972 16.6114 35.6846 15.3927 36.1889C14.174 36.6931 13.1561 37.586 12.4974 38.7286C11.8387 39.8712 11.576 41.1995 11.7503 42.5068C11.9246 43.8141 12.526 45.0272 13.461 45.9573L30.432 62.9283C31.5572 64.0532 33.083 64.685 34.674 64.685C36.265 64.685 37.7908 64.0532 38.916 62.9283C39.6558 62.1843 40.1869 61.2587 40.456 60.2445C40.7251 59.2304 40.7227 58.1633 40.449 57.1503L47.403 50.1963L85.221 88.0173C85.7745 88.5904 86.4365 89.0475 87.1686 89.3619C87.9006 89.6764 88.6879 89.8419 89.4846 89.8488C90.2813 89.8558 91.0713 89.7039 91.8087 89.4023C92.5461 89.1006 93.216 88.6551 93.7794 88.0917C94.3427 87.5283 94.7882 86.8584 95.0899 86.121C95.3916 85.3837 95.5434 84.5936 95.5365 83.7969C95.5296 83.0002 95.3641 82.2129 95.0496 81.4809C94.7351 80.7489 94.2781 80.0868 93.705 79.5333ZM45.282 9.89432C45.8446 9.33191 46.6075 9.01596 47.403 9.01596C48.1985 9.01596 48.9614 9.33191 49.524 9.89432L66.495 26.8653C67.0574 27.4279 67.3734 28.1908 67.3734 28.9863C67.3734 29.7818 67.0574 30.5447 66.495 31.1073C65.923 31.6529 65.1629 31.9573 64.3725 31.9573C63.582 31.9573 62.8219 31.6529 62.25 31.1073L53.775 22.6203L45.282 14.1363C44.7196 13.5737 44.4036 12.8108 44.4036 12.0153C44.4036 11.2198 44.7196 10.4569 45.282 9.89432ZM36.798 60.7953C36.233 61.3543 35.4703 61.6678 34.6755 61.6678C33.8807 61.6678 33.118 61.3543 32.553 60.7953L15.582 43.8333C15.0195 43.2704 14.7036 42.5071 14.7039 41.7113C14.7042 40.9155 15.0206 40.1523 15.5835 39.5898C16.1464 39.0273 16.9097 38.7114 17.7056 38.7117C18.5014 38.712 19.2645 39.0284 19.827 39.5913L36.798 56.5593C37.0769 56.8379 37.2982 57.1688 37.4492 57.533C37.6002 57.8972 37.6779 58.2876 37.6779 58.6818C37.6779 59.0761 37.6002 59.4665 37.4492 59.8307C37.2982 60.1948 37.0769 60.5257 36.798 60.8043V60.7953ZM38.919 54.4293L21.945 37.4703L43.158 16.2573L60.126 33.2283L38.919 54.4293ZM91.575 85.8963C91.0035 86.4417 90.2439 86.746 89.454 86.746C88.664 86.746 87.9044 86.4417 87.333 85.8963L49.524 48.0783L53.775 43.8333L91.575 81.6543C92.1374 82.2169 92.4534 82.9798 92.4534 83.7753C92.4534 84.5708 92.1374 85.3337 91.575 85.8963Z" fill="url(#paint0_linear_40_197)" stroke="url(#paint1_linear_40_197)" stroke-width="10" mask="url(#path-1-inside-1_40_197)"/>
<defs>
<linearGradient id="paint0_linear_40_197" x1="20.5907" y1="-97.2558" x2="-83.5715" y2="-7.19104" gradientUnits="userSpaceOnUse">
<stop stop-color="#2DD1DB"/>
<stop offset="0.60721" stop-color="#2D9CDB"/>
<stop offset="1" stop-color="#1A8ED0"/>
</linearGradient>
<linearGradient id="paint1_linear_40_197" x1="20.5907" y1="-97.2558" x2="-83.5715" y2="-7.19104" gradientUnits="userSpaceOnUse">
<stop stop-color="#2DD1DB"/>
<stop offset="0.60721" stop-color="#2D9CDB"/>
<stop offset="1" stop-color="#1A8ED0"/>
</linearGradient>
</defs>
</svg>
