<svg width="96" height="96" viewBox="0 0 96 96" fill="none" xmlns="http://www.w3.org/2000/svg">
<path d="M85.195 68.7993C82.85 66.0889 78.9377 65.8823 78.9134 65.9188C78.6461 65.8823 78.4031 65.8337 78.1966 65.7608C78.1966 65.7608 78.1844 65.7608 78.1844 65.7486C77.4676 65.5177 77.1273 65.1531 77.1273 64.6183C79.8854 62.0173 80.2742 57.885 80.2864 57.727C80.3957 56.8032 80.4079 55.9403 80.3228 55.1989C79.849 49.7782 75.3413 48.5264 73.13 48.5871C73.0085 48.5871 70.0195 48.5021 67.869 50.5804C66.4717 51.9416 65.7792 53.8498 65.7913 56.2685C65.8035 56.7182 65.8278 57.2043 65.8764 57.6905C65.8885 57.8728 66.2773 62.0173 69.0354 64.6183C68.9989 64.9586 68.7924 65.3718 67.954 65.6392H67.9419H67.9297C67.7353 65.7121 67.5166 65.7486 67.2615 65.7972C66.5811 65.8337 62.5229 66.2226 60.4453 69.3583C59.5097 69.2003 58.8414 69.1517 58.6227 69.1396C58.076 69.0545 57.5778 68.9451 57.1404 68.8114H57.1283C56.3021 68.5319 55.646 67.7662 55.1721 66.5143C54.5282 64.8735 54.4431 63.0018 54.4674 62.4913C54.4674 62.3941 54.4796 62.309 54.4917 62.2239C59.6312 57.7026 60.3359 50.0699 60.3602 49.7661C60.5425 48.1739 60.5668 46.6911 60.4453 45.4028C60.4453 45.4028 60.4453 45.4028 60.4453 45.3906V45.3785C60.4453 45.3542 60.4453 45.3177 60.4331 45.2812C59.4125 33.6499 48.0886 33.9415 48.0643 33.9415C47.8456 33.9294 42.7304 33.7835 39.0611 37.3568C36.6797 39.6782 35.489 42.972 35.5254 47.1651C35.5376 47.9794 35.5862 48.8545 35.6834 49.7296C35.7077 50.0578 36.4245 57.7026 41.564 62.2361C41.564 62.2969 41.5762 62.3455 41.564 62.4184C41.5397 64.1686 41.3939 66.4171 41.2603 66.8182C41.2603 66.8303 41.2481 66.8303 41.2481 66.8425C40.835 67.6446 40.0331 68.2402 38.8302 68.6291C38.8302 68.6291 38.8302 68.6291 38.8181 68.6291C38.8181 68.6291 38.8181 68.6291 38.8059 68.6291C38.405 68.7628 37.9433 68.8722 37.3844 68.9451C37.1535 68.9573 36.4367 69.0059 35.4525 69.1882C33.2047 66.0038 28.8914 65.7851 28.7699 65.7851C28.5026 65.7486 28.2718 65.7 28.0652 65.6271C28.0531 65.6271 28.0531 65.6271 28.0409 65.6271H28.0288C27.3119 65.3961 26.9717 65.0315 26.9717 64.4967C29.7298 61.8958 30.1186 57.7634 30.1308 57.6054C30.2401 56.6817 30.2523 55.8188 30.1672 55.0774C29.6934 49.6567 25.2221 48.3927 22.9744 48.4656C22.8528 48.4656 19.8639 48.3805 17.7255 50.4589C16.3282 51.8201 15.6357 53.7283 15.6478 56.1469C15.66 56.5966 15.6843 57.0828 15.7329 57.569C15.745 57.7513 16.1338 61.8958 18.8919 64.4967C18.8555 64.8371 18.6489 65.2503 17.8106 65.5177H17.7984C17.604 65.5784 17.3853 65.6271 17.1423 65.6635C16.5712 65.7 13.0113 66.0038 10.8121 68.544C9.45129 70.1119 8.90453 72.1781 9.18399 74.6575L9.59709 78.4374C9.64569 78.8749 9.92514 79.2396 10.3382 79.4097C10.5569 79.4948 15.2469 81.3179 22.6949 81.3179C22.9379 81.3179 23.1931 81.3057 23.4361 81.3057C23.3753 82.3267 23.3875 83.3962 23.5211 84.5144L24.2866 91.5394C24.3352 91.977 24.6146 92.3416 25.0277 92.5117C25.5502 92.7184 34.0431 95.9999 47.469 95.9999C54.1637 95.9999 62.0855 95.1856 70.8457 92.767C71.3075 92.6333 71.6477 92.2444 71.7084 91.7582L72.4739 84.7332C72.6075 83.5907 72.6197 82.4968 72.5468 81.4637C72.644 81.4637 72.7412 81.4637 72.8384 81.4637C77.0545 81.4637 81.3191 80.8803 85.5352 79.7136C85.9969 79.5799 86.3371 79.1909 86.3979 78.7048L86.811 74.9127C87.1026 72.4333 86.5558 70.3793 85.195 68.7993ZM68.2456 57.4839C68.197 57.0463 68.1727 56.6452 68.1727 56.2563C68.1606 54.5183 68.6101 53.1935 69.5214 52.3063C70.9308 50.9207 73.0449 50.9572 73.1421 50.9693C73.6038 50.9572 77.6012 50.9815 77.99 55.4542C78.0508 56.0497 78.0386 56.7303 77.9536 57.5203C77.9536 57.5568 77.5891 61.519 74.9889 63.3786C74.9525 63.4029 74.9282 63.415 74.8917 63.4393C74.831 63.488 74.7702 63.5244 74.7095 63.5609C73.701 64.1807 72.4982 64.1807 71.4897 63.5609C71.429 63.5244 71.3682 63.4758 71.3074 63.4393C71.271 63.415 71.2467 63.3907 71.2103 63.3786C71.1252 63.3178 71.0523 63.257 70.9794 63.1963C68.598 61.2516 68.2456 57.5325 68.2456 57.4839ZM55.1478 70.4157L52.3776 75.1923L49.6803 72.4455L53.702 68.8479C54.1272 69.492 54.6132 70.0147 55.1478 70.4157ZM48.0279 74.1227L49.6924 75.8243L48.1129 77.5745C48.0765 77.6109 48.0522 77.6474 48.0157 77.696C47.9914 77.6595 47.955 77.6109 47.9185 77.5745L46.424 75.9337L48.0279 74.1227ZM43.6174 66.9275C43.7632 66.0768 43.8361 64.8978 43.8725 63.8404C45.1847 64.521 46.5941 64.8735 48.0157 64.8735C49.4494 64.8735 50.871 64.5089 52.171 63.8161C52.2439 64.6183 52.414 65.5906 52.7056 66.5751L47.9671 70.8047L43.6174 66.9275ZM48.0157 79.5434L49.8504 88.8412L48.0157 90.2511L46.1689 88.8412L48.0157 79.5434ZM40.677 39.0584C43.6052 36.19 47.9307 36.2873 48.0643 36.2994C48.4167 36.2873 56.5086 36.105 57.9302 44.3697C52.2682 44.7708 44.8567 40.8815 44.7716 40.845C44.3707 40.6384 43.8968 40.6627 43.5323 40.918L38.0162 44.7829C38.3442 42.4007 39.2312 40.4804 40.677 39.0584ZM38.0162 49.4987C37.9554 48.891 37.919 48.3076 37.8947 47.7485L44.3099 43.2637C46.3511 44.2603 52.7421 47.1165 58.1367 46.7154C58.161 47.5905 58.1367 48.5021 58.0152 49.523C58.0031 49.6081 57.2741 57.4717 52.0495 61.1665C52.0009 61.1908 51.9645 61.2152 51.928 61.2516C51.7944 61.3488 51.6729 61.4339 51.5392 61.519C49.3401 62.8803 46.7156 62.8803 44.5043 61.519C44.3707 61.4339 44.237 61.3488 44.1034 61.2516C44.0669 61.2152 44.0183 61.1908 43.9697 61.1665C43.7875 61.0328 43.6052 60.8992 43.4351 60.7533C38.7087 56.9005 38.0283 49.5959 38.0162 49.4987ZM42.5117 69.091L46.3268 72.4941L43.9819 75.1558L40.9322 70.282C41.5397 69.9539 42.0743 69.565 42.5117 69.091ZM18.09 57.3259C18.0414 56.9005 18.0171 56.4872 18.0171 56.0983C18.005 54.3603 18.4545 53.0355 19.3658 52.1483C20.7752 50.7627 22.9015 50.8113 22.9865 50.8113C23.1688 50.8113 27.4334 50.7019 27.8344 55.2962C27.8951 55.8795 27.883 56.5602 27.7979 57.3502C27.7979 57.3866 27.4091 61.361 24.8212 63.2206C24.7847 63.2449 24.7604 63.257 24.724 63.2813C24.6632 63.33 24.6025 63.3664 24.5417 63.4029C23.5333 64.0227 22.3304 64.0227 21.3219 63.4029C21.2612 63.3664 21.2004 63.3178 21.1397 63.2813C21.1032 63.257 21.0789 63.2327 21.0425 63.2206C20.9574 63.1598 20.8845 63.099 20.7995 63.0383C18.4424 61.1058 18.09 57.3866 18.09 57.3259ZM23.8127 78.9357C17.8106 79.0937 13.4608 77.9391 11.8813 77.4286L11.5533 74.3901C11.3467 72.5913 11.7112 71.145 12.6103 70.0876C14.2749 68.1551 17.2881 68.0092 17.3124 68.0092C17.3489 68.0092 17.3975 68.0093 17.4339 67.9971C17.8227 67.9485 18.1994 67.8634 18.5396 67.754C18.5517 67.754 18.5517 67.7419 18.5639 67.7419C19.9125 67.3043 20.5808 66.5386 20.9331 65.8215C21.5771 66.0889 22.2575 66.2226 22.9501 66.2226C23.6183 66.2226 24.2866 66.0889 24.9184 65.8337C25.3315 66.7574 26.1577 67.4745 27.3241 67.8512C27.3362 67.8512 27.3362 67.8512 27.3484 67.8512C27.6886 67.9606 28.0531 68.0457 28.5755 68.1186C28.612 68.1186 31.1878 68.2523 32.901 69.808C30.7504 70.5008 28.2475 71.7284 26.3399 73.9404C25.0885 75.3746 24.2623 77.0518 23.8127 78.9357ZM70.1532 84.4658L69.4728 90.7008C46.9951 96.6927 30.0579 91.7217 26.5708 90.5549L25.8782 84.2592C25.4773 80.6373 26.2184 77.6838 28.0895 75.5083C30.1065 73.1625 33.0589 72.1295 35.1245 71.6676C35.1488 71.6676 35.1609 71.6555 35.1852 71.6555C36.546 71.3516 37.518 71.303 37.5423 71.303C37.5788 71.303 37.6274 71.303 37.6638 71.2908C38.0162 71.2422 38.3442 71.1814 38.648 71.1085L42.8033 77.7568C42.9977 78.0728 43.3379 78.2794 43.7024 78.3037C43.7389 78.3037 43.7632 78.3037 43.7996 78.3037C44.1398 78.3037 44.4557 78.1578 44.6866 77.9026L44.8567 77.7081L45.7679 78.7169L43.7024 89.1086C43.6174 89.5462 43.7875 90.008 44.1398 90.2754L47.2867 92.6697C47.4933 92.8277 47.7484 92.9128 48.0036 92.9128C48.2587 92.9128 48.5139 92.8277 48.7204 92.6697L51.8551 90.2754C52.2075 90.008 52.3776 89.5462 52.2925 89.1086L50.2392 78.7169L51.3327 77.5015L51.7701 77.9512C51.9888 78.1822 52.2925 78.3037 52.6084 78.3037C52.657 78.3037 52.7057 78.3037 52.7542 78.2915C53.1188 78.2429 53.4468 78.0363 53.6291 77.7203L57.347 71.3273C57.675 71.4002 58.0031 71.461 58.3554 71.5096C58.3919 71.5096 58.4405 71.5218 58.4769 71.5218C58.5377 71.5218 64.5155 71.777 67.9176 75.7149C69.8008 77.8905 70.5541 80.8317 70.1532 84.4658ZM84.4903 74.6575L84.1623 77.6474C80.1892 78.6683 76.1675 79.1302 72.2066 79.0694C71.757 77.2098 70.9308 75.569 69.7158 74.1592C67.7718 71.8985 65.1959 70.6588 63.0211 69.9782C64.7221 68.3009 67.4437 68.1551 67.468 68.1551C67.5166 68.1551 67.5774 68.1429 67.626 68.1429C67.9662 68.0822 68.3185 68.0092 68.6709 67.8999C68.683 67.8999 68.683 67.8999 68.6952 67.8999C68.7073 67.8999 68.7073 67.8877 68.7195 67.8877H68.7316C68.7316 67.8877 68.7316 67.8877 68.7438 67.8877C70.0803 67.4502 70.7485 66.6966 71.0888 65.9795C71.7327 66.2469 72.4131 66.3806 73.1057 66.3806C73.7739 66.3806 74.4422 66.2469 75.074 65.9917C75.4871 66.9154 76.3011 67.6203 77.4554 68.0092C77.4676 68.0092 77.4797 68.0214 77.4919 68.0336C77.8442 68.1429 78.2209 68.2159 78.7312 68.2888C78.7555 68.2888 81.7687 68.4468 83.4211 70.3671C84.3202 71.4002 84.6847 72.8465 84.4903 74.6575Z" fill="url(#paint0_linear_40_199)"/>
<path d="M48.0785 13.3552C47.2706 13.3552 46.4807 13.5948 45.809 14.0437C45.1372 14.4926 44.6136 15.1306 44.3044 15.877C43.9952 16.6235 43.9143 17.4449 44.0719 18.2373C44.2295 19.0297 44.6186 19.7576 45.1899 20.3289C45.7612 20.9002 46.4891 21.2893 47.2816 21.4469C48.074 21.6046 48.8954 21.5237 49.6418 21.2145C50.3883 20.9053 51.0263 20.3817 51.4752 19.7099C51.924 19.0381 52.1636 18.2483 52.1636 17.4403C52.1622 16.3573 51.7314 15.3191 50.9656 14.5532C50.1998 13.7874 49.1615 13.3566 48.0785 13.3552ZM48.0785 20.4846C47.4764 20.4846 46.8878 20.3061 46.3872 19.9716C45.8866 19.6371 45.4964 19.1616 45.2659 18.6053C45.0355 18.0491 44.9752 17.437 45.0927 16.8464C45.2102 16.2559 45.5001 15.7134 45.9259 15.2877C46.3516 14.8619 46.8941 14.572 47.4846 14.4545C48.0751 14.337 48.6872 14.3973 49.2435 14.6278C49.7998 14.8582 50.2753 15.2484 50.6098 15.749C50.9443 16.2496 51.1228 16.8382 51.1228 17.4403C51.1228 17.8401 51.0441 18.236 50.8911 18.6053C50.7381 18.9747 50.5139 19.3103 50.2312 19.593C49.9485 19.8757 49.6129 20.0999 49.2435 20.2529C48.8742 20.4059 48.4783 20.4846 48.0785 20.4846Z" fill="url(#paint1_linear_40_199)"/>
<path d="M48.0785 10.5271C46.7112 10.5271 45.3746 10.9326 44.2377 11.6922C43.1009 12.4518 42.2148 13.5315 41.6915 14.7948C41.1683 16.058 41.0314 17.448 41.2981 18.7891C41.5649 20.1301 42.2233 21.3619 43.1901 22.3288C44.157 23.2956 45.3888 23.954 46.7298 24.2208C48.0709 24.4875 49.4609 24.3506 50.7241 23.8274C51.9874 23.3041 53.0671 22.418 53.8267 21.2812C54.5863 20.1443 54.9918 18.8077 54.9918 17.4404C54.9904 15.6073 54.2616 13.8496 52.9654 12.5535C51.6693 11.2573 49.9116 10.5285 48.0785 10.5271ZM48.0785 23.3233C46.915 23.3233 45.7776 22.9783 44.8101 22.3319C43.8427 21.6854 43.0887 20.7666 42.6434 19.6917C42.1981 18.6167 42.0816 17.4338 42.3086 16.2926C42.5356 15.1515 43.0959 14.1032 43.9187 13.2805C44.7414 12.4577 45.7896 11.8974 46.9308 11.6704C48.072 11.4434 49.2549 11.5599 50.3299 12.0052C51.4048 12.4505 52.3236 13.2045 52.97 14.172C53.6165 15.1394 53.9615 16.2768 53.9615 17.4404C53.9601 19.0002 53.3399 20.4958 52.2369 21.5987C51.1339 22.7017 49.6384 23.322 48.0785 23.3233Z" fill="url(#paint2_linear_40_199)"/>
<path d="M60.0306 14.7716L57.3464 14.4665C57.186 13.9584 56.9818 13.4652 56.7361 12.9925L58.417 10.872C58.4958 10.7723 58.5352 10.6471 58.5275 10.5202C58.5199 10.3933 58.4658 10.2737 58.3756 10.1842L55.3346 7.14313C55.245 7.05291 55.1254 6.99882 54.9985 6.99119C54.8716 6.98356 54.7464 7.02292 54.6467 7.10175L52.5262 8.7826C52.0535 8.53693 51.5603 8.33274 51.0523 8.17232L50.7471 5.48814C50.7331 5.36105 50.6724 5.24368 50.5769 5.15868C50.4814 5.07368 50.3578 5.02707 50.2299 5.02784H45.927C45.7991 5.02707 45.6755 5.07368 45.58 5.15868C45.4845 5.24368 45.4238 5.36105 45.4098 5.48814L45.1046 8.17232C44.5969 8.33367 44.1038 8.53783 43.6307 8.7826L41.5102 7.10175C41.4105 7.02292 41.2853 6.98356 41.1584 6.99119C41.0315 6.99882 40.9119 7.05291 40.8224 7.14313L37.7813 10.1842C37.6911 10.2737 37.637 10.3933 37.6294 10.5202C37.6217 10.6471 37.6611 10.7723 37.7399 10.872L39.4208 12.9925C39.176 13.4657 38.9719 13.9587 38.8105 14.4665L36.1263 14.7716C35.9992 14.7857 35.8819 14.8463 35.7969 14.9418C35.7119 15.0373 35.6652 15.1609 35.666 15.2888V19.5918C35.6652 19.7196 35.7119 19.8432 35.7969 19.9387C35.8819 20.0342 35.9992 20.0949 36.1263 20.1089L38.8105 20.4141C38.9719 20.9218 39.176 21.4149 39.4208 21.8881L37.7399 24.0085C37.6611 24.1082 37.6217 24.2335 37.6294 24.3603C37.637 24.4872 37.6911 24.6068 37.7813 24.6964L40.8224 27.7374C40.9119 27.8276 41.0315 27.8817 41.1584 27.8893C41.2853 27.897 41.4105 27.8576 41.5102 27.7788L43.6307 26.0979C44.1038 26.3427 44.5969 26.5469 45.1046 26.7082L45.4098 29.3924C45.4238 29.5195 45.4845 29.6369 45.58 29.7219C45.6755 29.8069 45.7991 29.8535 45.927 29.8527H50.2299C50.3578 29.8535 50.4814 29.8069 50.5769 29.7219C50.6724 29.6369 50.7331 29.5195 50.7471 29.3924L51.0523 26.7082C51.5603 26.5478 52.0535 26.3436 52.5262 26.0979L54.6467 27.7788C54.7464 27.8576 54.8716 27.897 54.9985 27.8893C55.1254 27.8817 55.245 27.8276 55.3346 27.7374L58.3756 24.6964C58.4658 24.6068 58.5199 24.4872 58.5275 24.3603C58.5352 24.2335 58.4958 24.1082 58.417 24.0085L56.7361 21.8881C56.9809 21.4149 57.1851 20.9218 57.3464 20.4141L60.0306 20.1089C60.1577 20.0949 60.275 20.0342 60.36 19.9387C60.445 19.8432 60.4917 19.7196 60.4909 19.5918V15.2888C60.4917 15.1609 60.445 15.0373 60.36 14.9418C60.275 14.8463 60.1577 14.7857 60.0306 14.7716ZM59.4565 19.1315L56.8706 19.4263C56.7686 19.4377 56.6724 19.4793 56.5941 19.5456C56.5159 19.6119 56.4591 19.7 56.431 19.7986C56.2458 20.4588 55.9818 21.0943 55.6449 21.6915C55.5948 21.781 55.5725 21.8834 55.5808 21.9856C55.5891 22.0879 55.6276 22.1853 55.6914 22.2656L57.2999 24.2878L54.9053 26.6824L52.8831 25.0739C52.8023 25.0109 52.7046 24.9734 52.6023 24.966C52.5001 24.9586 52.398 24.9818 52.309 25.0325C51.7106 25.3657 51.0754 25.6278 50.4161 25.8135C50.3175 25.8416 50.2294 25.8984 50.1631 25.9766C50.0968 26.0549 50.0552 26.1511 50.0438 26.2531L49.749 28.839H46.3873L46.0925 26.2531C46.081 26.1511 46.0395 26.0549 45.9732 25.9766C45.9069 25.8984 45.8188 25.8416 45.7201 25.8135C45.0609 25.6278 44.4256 25.3657 43.8272 25.0325C43.7382 24.9818 43.6361 24.9586 43.5339 24.966C43.4317 24.9734 43.3339 25.0109 43.2531 25.0739L41.2309 26.6824L38.8364 24.2878L40.4448 22.2656C40.5078 22.1848 40.5454 22.0871 40.5527 21.9848C40.5601 21.8826 40.5369 21.7806 40.4862 21.6915C40.153 21.0931 39.8909 20.4579 39.7052 19.7986C39.6772 19.7 39.6204 19.6119 39.5421 19.5456C39.4638 19.4793 39.3676 19.4377 39.2656 19.4263L36.6797 19.1315V15.7491L39.2656 15.4543C39.3676 15.4428 39.4638 15.4013 39.5421 15.335C39.6204 15.2687 39.6772 15.1806 39.7052 15.0819C39.8909 14.4227 40.153 13.7874 40.4862 13.189C40.5369 13.1 40.5601 12.9979 40.5527 12.8957C40.5454 12.7935 40.5078 12.6958 40.4448 12.6149L38.8364 10.5927L41.2309 8.19818L43.2531 9.80663C43.3339 9.86962 43.4317 9.90718 43.5339 9.91455C43.6361 9.92192 43.7382 9.89875 43.8272 9.848C44.4256 9.51485 45.0609 9.25275 45.7201 9.06705C45.8188 9.03897 45.9069 8.98218 45.9732 8.9039C46.0395 8.82562 46.081 8.72939 46.0925 8.62745L46.3873 6.04152H49.7696L50.0644 8.62745C50.0759 8.72939 50.1174 8.82562 50.1837 8.9039C50.2501 8.98218 50.3381 9.03897 50.4368 9.06705C51.096 9.25275 51.7313 9.51485 52.3297 9.848C52.4187 9.89875 52.5208 9.92192 52.623 9.91455C52.7252 9.90718 52.823 9.86962 52.9038 9.80663L54.926 8.19818L57.3205 10.5927L55.7121 12.6149C55.6483 12.6952 55.6098 12.7927 55.6015 12.8949C55.5932 12.9971 55.6155 13.0995 55.6655 13.189C56.0025 13.7862 56.2664 14.4217 56.4517 15.0819C56.4798 15.1806 56.5365 15.2687 56.6148 15.335C56.6931 15.4013 56.7893 15.4428 56.8913 15.4543L59.4772 15.7491L59.4565 19.1315Z" fill="url(#paint3_linear_40_199)"/>
<defs>
<linearGradient id="paint0_linear_40_199" x1="25.635" y1="-42.4465" x2="-52.1545" y2="31.8638" gradientUnits="userSpaceOnUse">
<stop stop-color="#2DD1DB"/>
<stop offset="0.60721" stop-color="#2D9CDB"/>
<stop offset="1" stop-color="#1A8ED0"/>
</linearGradient>
<linearGradient id="paint1_linear_40_199" x1="45.729" y1="3.29958" x2="35.8441" y2="10.8348" gradientUnits="userSpaceOnUse">
<stop stop-color="#2DD1DB"/>
<stop offset="0.60721" stop-color="#2D9CDB"/>
<stop offset="1" stop-color="#1A8ED0"/>
</linearGradient>
<linearGradient id="paint2_linear_40_199" x1="44.1025" y1="-6.49015" x2="27.3741" y2="6.26178" gradientUnits="userSpaceOnUse">
<stop stop-color="#2DD1DB"/>
<stop offset="0.60721" stop-color="#2D9CDB"/>
<stop offset="1" stop-color="#1A8ED0"/>
</linearGradient>
<linearGradient id="paint3_linear_40_199" x1="40.9397" y1="-25.5259" x2="10.9045" y2="-2.63036" gradientUnits="userSpaceOnUse">
<stop stop-color="#2DD1DB"/>
<stop offset="0.60721" stop-color="#2D9CDB"/>
<stop offset="1" stop-color="#1A8ED0"/>
</linearGradient>
</defs>
</svg>
