<svg width="22" height="22" viewBox="0 0 22 22" fill="none" xmlns="http://www.w3.org/2000/svg">
<path fill-rule="evenodd" clip-rule="evenodd" d="M11 13.008C14.7968 13.008 17.9797 15.2284 18.8083 19.0254H3.19168C4.02026 15.2284 7.20317 13.008 11 13.008ZM6.9875 6.99053C6.9875 4.77812 8.78711 2.9789 11 2.9789C13.2129 2.9789 15.0125 4.77812 15.0125 6.99053C15.0125 9.20295 13.2129 11.0022 11 11.0022C8.78711 11.0022 6.9875 9.20295 6.9875 6.99053ZM14.7697 11.6771C15.4721 11.1145 16.0389 10.4012 16.4282 9.58999C16.8175 8.77875 17.0193 7.89032 17.0187 6.99053C17.0195 5.97313 16.7622 4.97221 16.2709 4.08122C15.7796 3.19023 15.0704 2.43822 14.2096 1.89568C13.3487 1.35314 12.3643 1.03773 11.3484 0.97884C10.3325 0.919948 9.31822 1.11958 8.40041 1.55901C7.4826 1.99845 6.69123 2.66337 6.10024 3.49162C5.50926 4.31987 5.13796 5.28437 5.02108 6.29504C4.9042 7.30571 5.04553 8.32948 5.43187 9.27071C5.81822 10.2119 6.43697 11.0399 7.23026 11.6771C3.55983 13.0561 0.96875 16.463 0.96875 21.0313H21.0312C21.0312 16.463 18.4402 13.0561 14.7697 11.6771Z" fill="white"/>
</svg>
