<svg width="48" height="48" viewBox="0 0 48 48" fill="none" xmlns="http://www.w3.org/2000/svg">
<path d="M40.75 44.3325H7.75C7.55109 44.3325 7.36032 44.2535 7.21967 44.1128C7.07902 43.9722 7 43.7814 7 43.5825V4.41748C7 4.21857 7.07902 4.0278 7.21967 3.88715C7.36032 3.7465 7.55109 3.66748 7.75 3.66748H31.975C32.0735 3.66985 32.1705 3.69161 32.2606 3.7315C32.3507 3.77139 32.4321 3.82864 32.5 3.89998L41.275 12.99C41.4127 13.1248 41.4933 13.3074 41.5 13.5V43.575C41.501 43.6741 41.4823 43.7724 41.4451 43.8643C41.4078 43.9562 41.3527 44.0397 41.283 44.1102C41.2133 44.1806 41.1302 44.2365 41.0388 44.2747C40.9473 44.3128 40.8491 44.3325 40.75 44.3325ZM8.5 42.8325H40V13.8075L31.66 5.16748H8.5V42.8325Z" fill="white"/>
<path d="M31.725 14.25C31.5261 14.25 31.3353 14.171 31.1946 14.0303C31.054 13.8897 30.975 13.6989 30.975 13.5V4.41748C30.975 4.21857 31.054 4.0278 31.1946 3.88715C31.3353 3.7465 31.5261 3.66748 31.725 3.66748C31.9239 3.66748 32.1147 3.7465 32.2553 3.88715C32.396 4.0278 32.475 4.21857 32.475 4.41748V13.5C32.475 13.6989 32.396 13.8897 32.2553 14.0303C32.1147 14.171 31.9239 14.25 31.725 14.25Z" fill="white"/>
<path d="M36 14.25H31.725C31.5261 14.25 31.3353 14.171 31.1947 14.0303C31.054 13.8897 30.975 13.6989 30.975 13.5C30.975 13.3011 31.054 13.1103 31.1947 12.9697C31.3353 12.829 31.5261 12.75 31.725 12.75H36C36.1989 12.75 36.3897 12.829 36.5303 12.9697C36.671 13.1103 36.75 13.3011 36.75 13.5C36.75 13.6989 36.671 13.8897 36.5303 14.0303C36.3897 14.171 36.1989 14.25 36 14.25ZM21.8175 19.395H12.885C12.6861 19.395 12.4953 19.316 12.3547 19.1753C12.214 19.0347 12.135 18.8439 12.135 18.645V9.75C12.135 9.55109 12.214 9.36032 12.3547 9.21967C12.4953 9.07902 12.6861 9 12.885 9H21.8175C22.0164 9 22.2072 9.07902 22.3478 9.21967C22.4885 9.36032 22.5675 9.55109 22.5675 9.75V18.645C22.5675 18.8439 22.4885 19.0347 22.3478 19.1753C22.2072 19.316 22.0164 19.395 21.8175 19.395ZM13.635 17.895H21.0675V10.5H13.635V17.895ZM35.13 25.5H12.87C12.6711 25.5 12.4803 25.421 12.3397 25.2803C12.199 25.1397 12.12 24.9489 12.12 24.75C12.12 24.5511 12.199 24.3603 12.3397 24.2197C12.4803 24.079 12.6711 24 12.87 24H35.13C35.3289 24 35.5197 24.079 35.6603 24.2197C35.801 24.3603 35.88 24.5511 35.88 24.75C35.88 24.9489 35.801 25.1397 35.6603 25.2803C35.5197 25.421 35.3289 25.5 35.13 25.5ZM35.13 31.3875H12.87C12.6711 31.3875 12.4803 31.3085 12.3397 31.1678C12.199 31.0272 12.12 30.8364 12.12 30.6375C12.12 30.4386 12.199 30.2478 12.3397 30.1072C12.4803 29.9665 12.6711 29.8875 12.87 29.8875H35.13C35.3289 29.8875 35.5197 29.9665 35.6603 30.1072C35.801 30.2478 35.88 30.4386 35.88 30.6375C35.88 30.8364 35.801 31.0272 35.6603 31.1678C35.5197 31.3085 35.3289 31.3875 35.13 31.3875ZM35.13 37.2825H12.87C12.6711 37.2825 12.4803 37.2035 12.3397 37.0628C12.199 36.9222 12.12 36.7314 12.12 36.5325C12.12 36.3336 12.199 36.1428 12.3397 36.0022C12.4803 35.8615 12.6711 35.7825 12.87 35.7825H35.13C35.3289 35.7825 35.5197 35.8615 35.6603 36.0022C35.801 36.1428 35.88 36.3336 35.88 36.5325C35.88 36.7314 35.801 36.9222 35.6603 37.0628C35.5197 37.2035 35.3289 37.2825 35.13 37.2825Z" fill="white"/>
</svg>
