<svg width="818" height="98" viewBox="0 0 818 98" fill="none" xmlns="http://www.w3.org/2000/svg">
<path opacity="0.5" d="M12.518 70.272L12.2211 70.9608L12.2254 70.9626L12.518 70.272ZM3.68599 63.36L3.07832 63.7996L3.68599 63.36ZM0.325993 52.704V51.954H-0.435817L-0.423915 52.7157L0.325993 52.704ZM14.726 52.704L15.4742 52.6518L15.4255 51.954H14.726V52.704ZM17.606 59.232L17.0964 59.7824L17.1065 59.7915L17.606 59.232ZM32.294 59.424L32.77 60.0035L32.7761 59.9986L32.7821 59.9934L32.294 59.424ZM33.158 48.576L32.6142 49.0926L33.158 48.576ZM28.55 45.6L28.2546 46.2894L28.2692 46.2956L28.284 46.3012L28.55 45.6ZM21.062 43.104L20.8504 43.8236L20.8598 43.8262L21.062 43.104ZM10.406 39.36L10.0835 40.0371L10.0931 40.0417L10.1029 40.046L10.406 39.36ZM3.39799 33.696L2.79799 34.146L2.80432 34.1544L2.81088 34.1627L3.39799 33.696ZM3.49399 13.152L4.11594 13.5711L3.49399 13.152ZM11.846 6.432L12.1415 7.12143L12.1517 7.11685L11.846 6.432ZM40.934 9.12L40.4686 9.70829L40.4784 9.71576L40.934 9.12ZM48.134 23.136V23.886H48.9419L48.8819 23.0803L48.134 23.136ZM33.35 23.136L32.6011 23.1776L32.6405 23.886H33.35V23.136ZM30.374 17.472L29.8859 18.0414L29.8968 18.0507L29.9079 18.0596L30.374 17.472ZM16.838 17.184L16.3556 16.6097L16.3498 16.6146L16.3441 16.6196L16.838 17.184ZM16.262 27.552L15.7175 28.0678L15.7315 28.0825L15.7462 28.0965L16.262 27.552ZM20.678 30.432L20.3734 31.1174L20.3884 31.124L20.4038 31.1301L20.678 30.432ZM28.166 32.928L27.9505 33.6464L27.9544 33.6475L28.166 32.928ZM45.926 42.528L45.3332 42.9874L45.926 42.528ZM46.118 62.592L45.4761 62.2042L46.118 62.592ZM37.958 69.984L38.2934 70.6549L38.3029 70.65L37.958 69.984ZM25.19 71.922C20.6046 71.922 16.482 71.1371 12.8106 69.5814L12.2254 70.9626C16.106 72.6069 20.4314 73.422 25.19 73.422V71.922ZM12.8149 69.5833C9.21564 68.0319 6.38345 65.8092 4.29366 62.9204L3.07832 63.7996C5.34054 66.9268 8.39635 69.3121 12.2211 70.9607L12.8149 69.5833ZM4.29366 62.9204C2.21713 60.0499 1.13776 56.6511 1.0759 52.6923L-0.423915 52.7157C-0.357772 56.9489 0.802858 60.6541 3.07832 63.7996L4.29366 62.9204ZM0.325993 53.454H14.726V51.954H0.325993V53.454ZM13.9778 52.7562C14.1807 55.6637 15.2047 58.0307 17.0964 59.7823L18.1155 58.6817C16.5513 57.2333 15.6553 55.2483 15.4742 52.6518L13.9778 52.7562ZM17.1065 59.7915C19.0709 61.5454 21.6987 62.382 24.902 62.382V60.882C21.9613 60.882 19.7251 60.1186 18.1055 58.6725L17.1065 59.7915ZM24.902 62.382C28.1505 62.382 30.8032 61.6192 32.77 60.0035L31.8179 58.8445C30.2008 60.1728 27.9255 60.882 24.902 60.882V62.382ZM32.7821 59.9934C34.746 58.3101 35.732 56.1153 35.732 53.472H34.232C34.232 55.6927 33.426 57.4659 31.8059 58.8546L32.7821 59.9934ZM35.732 53.472C35.732 51.3215 35.0669 49.4965 33.7017 48.0594L32.6142 49.0926C33.6811 50.2155 34.232 51.6545 34.232 53.472H35.732ZM33.7017 48.0594C32.399 46.6882 30.7641 45.6377 28.816 44.8988L28.284 46.3012C30.0479 46.9703 31.4849 47.9038 32.6142 49.0926L33.7017 48.0594ZM28.8454 44.9106C27.0093 44.1237 24.4772 43.2814 21.2642 42.3818L20.8598 43.8262C24.0468 44.7186 26.5066 45.5403 28.2546 46.2894L28.8454 44.9106ZM21.2736 42.3845C16.9389 41.1095 13.4205 39.872 10.7091 38.674L10.1029 40.046C12.8955 41.28 16.4811 42.5385 20.8504 43.8235L21.2736 42.3845ZM10.7284 38.6829C8.15076 37.4554 5.90321 35.6424 3.98511 33.2293L2.81088 34.1627C4.86078 36.7416 7.28523 38.7046 10.0835 40.0371L10.7284 38.6829ZM3.99799 33.246C2.2024 30.8519 1.26799 27.6335 1.26799 23.52H-0.232007C-0.232007 27.8545 0.753581 31.4201 2.79799 34.146L3.99799 33.246ZM1.26799 23.52C1.26799 19.6831 2.22505 16.377 4.11594 13.5711L2.87204 12.7329C0.794935 15.815 -0.232007 19.4209 -0.232007 23.52H1.26799ZM4.11594 13.5711C6.0115 10.7584 8.67645 8.60635 12.1414 7.12136L11.5506 5.74264C7.84754 7.32965 4.94449 9.65761 2.87204 12.7329L4.11594 13.5711ZM12.1517 7.11685C15.6242 5.56663 19.6132 4.782 24.134 4.782V3.282C19.4388 3.282 15.2357 4.09737 11.5403 5.74714L12.1517 7.11685ZM24.134 4.782C30.9225 4.782 36.3449 6.44607 40.4687 9.70821L41.3993 8.53178C36.9471 5.00993 31.1695 3.282 24.134 3.282V4.782ZM40.4784 9.71576C44.642 12.8997 46.9522 17.365 47.3861 23.1917L48.8819 23.0803C48.4198 16.875 45.93 11.9963 41.3896 8.52423L40.4784 9.71576ZM48.134 22.386H33.35V23.886H48.134V22.386ZM34.0988 23.0944C33.9586 20.5699 32.8589 18.4856 30.84 16.8844L29.9079 18.0596C31.6011 19.4024 32.4854 21.0941 32.6011 23.1776L34.0988 23.0944ZM30.8621 16.9026C28.9002 15.221 26.3106 14.418 23.174 14.418V15.918C26.0534 15.918 28.2638 16.651 29.8859 18.0414L30.8621 16.9026ZM23.174 14.418C20.4199 14.418 18.1224 15.1256 16.3556 16.6097L17.3204 17.7583C18.7535 16.5544 20.68 15.918 23.174 15.918V14.418ZM16.3441 16.6196C14.6055 18.1409 13.784 20.323 13.784 23.04H15.284C15.284 20.637 15.9985 18.9151 17.3319 17.7484L16.3441 16.6196ZM13.784 23.04C13.784 25.0092 14.4238 26.7022 15.7175 28.0678L16.8065 27.0362C15.7962 25.9698 15.284 24.6548 15.284 23.04H13.784ZM15.7462 28.0965C17.0315 29.3141 18.5774 30.3191 20.3734 31.1174L20.9826 29.7466C19.3226 29.0088 17.9245 28.0939 16.7778 27.0075L15.7462 28.0965ZM20.4038 31.1301C22.224 31.8452 24.7428 32.684 27.9505 33.6464L28.3815 32.2096C25.1892 31.2519 22.716 30.4268 20.9522 29.7339L20.4038 31.1301ZM27.9544 33.6475C32.2862 34.9216 35.7997 36.1894 38.5057 37.448L39.1383 36.088C36.3403 34.7866 32.7498 33.4944 28.3776 32.2085L27.9544 33.6475ZM38.5057 37.448C41.142 38.6742 43.4174 40.5154 45.3332 42.9874L46.5188 42.0686C44.4666 39.4206 42.006 37.4218 39.1383 36.088L38.5057 37.448ZM45.3332 42.9874C47.1895 45.3826 48.152 48.5666 48.152 52.608H49.652C49.652 48.3294 48.6305 44.7934 46.5188 42.0686L45.3332 42.9874ZM48.152 52.608C48.152 56.0551 47.2615 59.249 45.4761 62.2042L46.7599 62.9798C48.6865 59.791 49.652 56.3289 49.652 52.608H48.152ZM45.4761 62.2042C43.7002 65.1436 41.09 67.5174 37.6131 69.318L38.3029 70.65C41.994 68.7385 44.8238 66.1844 46.7599 62.9798L45.4761 62.2042ZM37.6226 69.3132C34.1639 71.0425 30.0278 71.922 25.19 71.922V73.422C30.2081 73.422 34.5841 72.5095 38.2934 70.6548L37.6226 69.3132ZM81.962 29.856V29.106H81.212V29.856H81.962ZM83.21 59.52L82.6797 60.0503L82.7 60.0707L82.7219 60.0894L83.21 59.52ZM93.866 60.672H94.616V59.922H93.866V60.672ZM93.866 72V72.75H94.616V72H93.866ZM68.426 29.856H69.176V29.106H68.426V29.856ZM62.09 29.856H61.34V30.606H62.09V29.856ZM62.09 18.816V18.066H61.34V18.816H62.09ZM68.426 18.816V19.566H69.176V18.816H68.426ZM68.426 5.664V4.914H67.676V5.664H68.426ZM81.962 5.664H82.712V4.914H81.962V5.664ZM81.962 18.816H81.212V19.566H81.962V18.816ZM93.866 18.816H94.616V18.066H93.866V18.816ZM93.866 29.856V30.606H94.616V29.856H93.866ZM81.212 29.856V55.584H82.712V29.856H81.212ZM81.212 55.584C81.212 57.4727 81.6483 59.019 82.6797 60.0503L83.7403 58.9897C83.1077 58.357 82.712 57.2793 82.712 55.584H81.212ZM82.7219 60.0894C83.8232 61.0334 85.5186 61.422 87.626 61.422V59.922C85.6374 59.922 84.3888 59.5426 83.6981 58.9506L82.7219 60.0894ZM87.626 61.422H93.866V59.922H87.626V61.422ZM93.116 60.672V72H94.616V60.672H93.116ZM93.866 71.25H85.418V72.75H93.866V71.25ZM85.418 71.25C79.8643 71.25 75.8378 69.9006 73.1967 67.3341C70.5596 64.7715 69.176 60.8708 69.176 55.488H67.676C67.676 61.1132 69.1244 65.4685 72.1513 68.4099C75.1742 71.3474 79.6437 72.75 85.418 72.75V71.25ZM69.176 55.488V29.856H67.676V55.488H69.176ZM68.426 29.106H62.09V30.606H68.426V29.106ZM62.84 29.856V18.816H61.34V29.856H62.84ZM62.09 19.566H68.426V18.066H62.09V19.566ZM69.176 18.816V5.664H67.676V18.816H69.176ZM68.426 6.414H81.962V4.914H68.426V6.414ZM81.212 5.664V18.816H82.712V5.664H81.212ZM81.962 19.566H93.866V18.066H81.962V19.566ZM93.116 18.816V29.856H94.616V18.816H93.116ZM93.866 29.106H81.962V30.606H93.866V29.106ZM158.349 49.44V50.19H158.984L159.089 49.5633L158.349 49.44ZM119.469 49.44V48.69H118.654L118.721 49.5023L119.469 49.44ZM123.501 58.464L122.993 59.0162L123.501 58.464ZM142.893 55.296V54.546H142.426L142.22 54.9646L142.893 55.296ZM157.389 55.296L158.107 55.5115L158.397 54.546H157.389V55.296ZM148.557 67.968L149.007 68.568L149.012 68.5638L148.557 67.968ZM118.701 69.504L118.329 70.1553L118.341 70.162L118.701 69.504ZM109.197 59.808L108.536 60.1636L108.541 60.1714L109.197 59.808ZM109.197 30.912L108.536 30.5564L109.197 30.912ZM118.605 21.312L118.969 21.9676L118.605 21.312ZM146.061 21.216L145.7 21.8736L145.705 21.876L146.061 21.216ZM155.373 30.528L154.713 30.8842L154.716 30.8905L154.72 30.8967L155.373 30.528ZM144.813 40.416V41.166H145.577L145.563 40.4021L144.813 40.416ZM141.069 32.16L140.577 32.7263L140.586 32.7337L141.069 32.16ZM123.693 32.064L124.19 32.6254L124.191 32.6246L123.693 32.064ZM119.565 40.416L118.822 40.3099L118.7 41.166H119.565V40.416ZM157.983 44.256C157.983 46.1438 157.857 47.8295 157.609 49.3167L159.089 49.5633C159.353 47.9785 159.483 46.2082 159.483 44.256H157.983ZM158.349 48.69H119.469V50.19H158.349V48.69ZM118.721 49.5023C119.054 53.4906 120.46 56.6884 122.993 59.0162L124.008 57.9118C121.805 55.8876 120.524 53.0694 120.216 49.3777L118.721 49.5023ZM122.993 59.0162C125.511 61.3294 128.608 62.478 132.237 62.478V60.978C128.953 60.978 126.227 59.9506 124.008 57.9118L122.993 59.0162ZM132.237 62.478C134.841 62.478 137.118 61.9178 139.032 60.7621C140.949 59.6052 142.456 57.8801 143.566 55.6274L142.22 54.9646C141.217 56.9999 139.893 58.4908 138.257 59.4779C136.62 60.4662 134.624 60.978 132.237 60.978V62.478ZM142.893 56.046H157.389V54.546H142.893V56.046ZM156.67 55.0805C155.181 60.0452 152.331 64.1376 148.101 67.3722L149.012 68.5638C153.486 65.1424 156.525 60.7868 158.107 55.5115L156.67 55.0805ZM148.107 67.368C143.905 70.5192 138.726 72.114 132.525 72.114V73.614C138.995 73.614 144.504 71.9448 149.007 68.568L148.107 67.368ZM132.525 72.114C127.518 72.114 123.036 71.0199 119.061 68.846L118.341 70.162C122.558 72.4681 127.291 73.614 132.525 73.614V72.114ZM119.073 68.8528C115.163 66.6186 112.092 63.4875 109.853 59.4446L108.541 60.1714C110.91 64.4485 114.174 67.7813 118.329 70.1552L119.073 68.8528ZM109.857 59.4524C107.684 55.4172 106.587 50.7428 106.587 45.408H105.087C105.087 50.9532 106.229 55.8788 108.536 60.1636L109.857 59.4524ZM106.587 45.408C106.587 40.0076 107.685 35.3015 109.857 31.2676L108.536 30.5564C106.229 34.8425 105.087 39.8004 105.087 45.408H106.587ZM109.857 31.2676C112.031 27.2306 115.066 24.1362 118.969 21.9676L118.241 20.6564C114.08 22.9678 110.843 26.2734 108.536 30.5564L109.857 31.2676ZM118.969 21.9676C122.875 19.7976 127.386 18.702 132.525 18.702V17.202C127.167 17.202 122.399 18.3464 118.241 20.6564L118.969 21.9676ZM132.525 18.702C137.47 18.702 141.855 19.7651 145.7 21.8736L146.421 20.5584C142.33 18.3149 137.692 17.202 132.525 17.202V18.702ZM145.705 21.876C149.608 23.9825 152.606 26.9809 154.713 30.8842L156.033 30.1718C153.787 26.0111 150.578 22.8015 146.417 20.556L145.705 21.876ZM154.72 30.8967C156.888 34.7374 157.983 39.1831 157.983 44.256H159.483C159.483 38.9609 158.338 34.2546 156.026 30.1593L154.72 30.8967ZM145.563 40.4021C145.495 36.751 144.165 33.7868 141.552 31.5863L140.586 32.7337C142.837 34.6292 144.002 37.169 144.063 40.4299L145.563 40.4021ZM141.561 31.5937C138.979 29.3519 135.823 28.242 132.141 28.242V29.742C135.498 29.742 138.294 30.7441 140.577 32.7263L141.561 31.5937ZM132.141 28.242C128.645 28.242 125.647 29.3233 123.194 31.5034L124.191 32.6246C126.346 30.7087 128.981 29.742 132.141 29.742V28.242ZM123.195 31.5026C120.796 33.6279 119.354 36.5884 118.822 40.3099L120.307 40.5221C120.8 37.0756 122.11 34.4681 124.19 32.6254L123.195 31.5026ZM119.565 41.166H144.813V39.666H119.565V41.166ZM187.743 26.496H186.993V28.8464L188.354 26.9304L187.743 26.496ZM194.847 20.448L195.199 21.1102L195.204 21.1075L194.847 20.448ZM217.599 21.312L217.206 21.9511L217.211 21.9541L217.599 21.312ZM226.335 30.912L225.666 31.2516L225.672 31.2639L226.335 30.912ZM226.335 59.712L225.668 59.3685L225.666 59.3725L226.335 59.712ZM217.599 69.408L217.203 68.7708L217.198 68.7739L217.599 69.408ZM194.943 70.464L194.585 71.123L194.591 71.1262L194.943 70.464ZM187.743 64.416L188.339 63.961L186.993 62.197V64.416H187.743ZM187.743 97.344V98.094H188.493V97.344H187.743ZM174.303 97.344H173.553V98.094H174.303V97.344ZM174.303 18.816V18.066H173.553V18.816H174.303ZM187.743 18.816H188.493V18.066H187.743V18.816ZM213.855 36.96L213.195 37.3166L213.201 37.3274L213.207 37.3379L213.855 36.96ZM208.671 31.584L208.296 32.234L208.305 32.2387L208.671 31.584ZM194.847 31.68L195.221 32.33L195.227 32.3265L194.847 31.68ZM189.663 37.056L189.01 36.6858L189.007 36.6925L189.003 36.6994L189.663 37.056ZM189.663 53.76L189.003 54.1166L189.007 54.1235L189.01 54.1302L189.663 53.76ZM194.847 59.232L194.458 59.8734L194.469 59.8803L194.481 59.8867L194.847 59.232ZM208.671 59.136L208.29 58.4895L208.282 58.4946L208.671 59.136ZM213.855 53.664L213.202 53.2938L213.199 53.3005L213.195 53.3074L213.855 53.664ZM188.354 26.9304C190.006 24.6061 192.279 22.6632 195.199 21.1102L194.495 19.7858C191.398 21.4328 188.936 23.5219 187.131 26.0616L188.354 26.9304ZM195.204 21.1075C198.154 19.5096 201.517 18.702 205.311 18.702V17.202C201.297 17.202 197.684 18.0584 194.49 19.7885L195.204 21.1075ZM205.311 18.702C209.725 18.702 213.684 19.7881 217.206 21.9511L217.991 20.6729C214.218 18.3559 209.984 17.202 205.311 17.202V18.702ZM217.211 21.9541C220.794 24.116 223.613 27.2068 225.666 31.2515L227.003 30.5725C224.833 26.2972 221.828 22.988 217.986 20.6699L217.211 21.9541ZM225.672 31.2639C227.782 35.2342 228.849 39.8775 228.849 45.216H230.349C230.349 39.6745 229.24 34.7818 226.997 30.5601L225.672 31.2639ZM228.849 45.216C228.849 50.5539 227.782 55.2652 225.668 59.3685L227.001 60.0555C229.24 55.7108 230.349 50.7581 230.349 45.216H228.849ZM225.666 59.3725C223.612 63.4188 220.791 66.5441 217.203 68.7708L217.994 70.0452C221.831 67.6639 224.834 64.3252 227.003 60.0515L225.666 59.3725ZM217.198 68.7739C213.677 70.9981 209.721 72.114 205.311 72.114V73.614C209.989 73.614 214.225 72.4259 217.999 70.0421L217.198 68.7739ZM205.311 72.114C201.512 72.114 198.18 71.3362 195.295 69.8018L194.591 71.1262C197.722 72.7918 201.302 73.614 205.311 73.614V72.114ZM195.301 69.805C192.441 68.2506 190.125 66.3013 188.339 63.961L187.147 64.871C189.073 67.3947 191.557 69.4774 194.585 71.123L195.301 69.805ZM186.993 64.416V97.344H188.493V64.416H186.993ZM187.743 96.594H174.303V98.094H187.743V96.594ZM175.053 97.344V18.816H173.553V97.344H175.053ZM174.303 19.566H187.743V18.066H174.303V19.566ZM186.993 18.816V26.496H188.493V18.816H186.993ZM216.621 45.216C216.621 41.9098 215.926 39.0218 214.503 36.5821L213.207 37.3379C214.472 39.5062 215.121 42.1222 215.121 45.216H216.621ZM214.515 36.6034C213.172 34.1205 211.347 32.2203 209.037 30.9293L208.305 32.2387C210.347 33.3797 211.977 35.0635 213.195 37.3166L214.515 36.6034ZM209.045 30.934C206.816 29.6509 204.383 29.01 201.759 29.01V30.51C204.127 30.51 206.301 31.0851 208.297 32.234L209.045 30.934ZM201.759 29.01C199.188 29.01 196.753 29.6884 194.466 31.0335L195.227 32.3265C197.292 31.1115 199.466 30.51 201.759 30.51V29.01ZM194.473 31.03C192.231 32.3204 190.413 34.2154 189.01 36.6858L190.315 37.4262C191.601 35.1606 193.238 33.4716 195.221 32.33L194.473 31.03ZM189.003 36.6994C187.654 39.1958 186.993 42.1069 186.993 45.408H188.493C188.493 42.3091 189.112 39.6521 190.323 37.4126L189.003 36.6994ZM186.993 45.408C186.993 48.7091 187.654 51.6201 189.003 54.1166L190.323 53.4034C189.112 51.1638 188.493 48.5069 188.493 45.408H186.993ZM189.01 54.1302C190.411 56.5979 192.225 58.5204 194.458 59.8734L195.235 58.5906C193.244 57.3836 191.602 55.6581 190.315 53.3898L189.01 54.1302ZM194.481 59.8867C196.766 61.1636 199.195 61.806 201.759 61.806V60.306C199.458 60.306 197.28 59.7324 195.213 58.5773L194.481 59.8867ZM201.759 61.806C204.39 61.806 206.829 61.1292 209.059 59.7774L208.282 58.4946C206.289 59.7028 204.119 60.306 201.759 60.306V61.806ZM209.051 59.7824C211.353 58.4285 213.174 56.5006 214.515 54.0206L213.195 53.3074C211.975 55.5634 210.341 57.2835 208.29 58.4895L209.051 59.7824ZM214.507 54.0342C215.927 51.5328 216.621 48.584 216.621 45.216H215.121C215.121 48.376 214.471 51.0592 213.202 53.2938L214.507 54.0342ZM253.765 70.56L253.45 71.2407L253.461 71.2454L253.765 70.56ZM245.509 64.128L244.906 64.5734L244.913 64.5825L245.509 64.128ZM242.245 55.2V54.45H241.45L241.497 55.244L242.245 55.2ZM255.781 55.2L256.525 55.107L256.443 54.45H255.781V55.2ZM258.757 60.288L258.297 60.8801L258.307 60.888L258.757 60.288ZM271.333 60.768L270.905 60.1523L270.898 60.1568L270.892 60.1614L271.333 60.768ZM270.853 52.992L270.508 53.6578L270.523 53.6654L270.537 53.6723L270.853 52.992ZM262.501 50.112L262.694 49.3873L262.686 49.3851L262.678 49.383L262.501 50.112ZM252.709 47.136L252.425 47.8299L252.431 47.8324L252.709 47.136ZM246.181 42.432L245.609 42.9173L245.618 42.9271L246.181 42.432ZM245.989 25.824L245.378 25.3895L245.37 25.4005L245.989 25.824ZM253.285 20.064L252.983 19.3775L252.978 19.3798L253.285 20.064ZM279.685 22.752L279.2 23.3242L279.206 23.329L279.685 22.752ZM285.925 35.52V36.27H286.731L286.673 35.4666L285.925 35.52ZM273.061 35.52L272.314 35.5879L272.376 36.27H273.061V35.52ZM270.373 30.528L269.893 31.1042L269.906 31.1149L269.919 31.1251L270.373 30.528ZM258.469 29.952L258.053 29.328L258.046 29.3327L258.039 29.3376L258.469 29.952ZM259.237 37.824L258.883 38.4851L258.892 38.4901L258.902 38.4948L259.237 37.824ZM267.589 40.608L267.404 41.3349L267.407 41.3356L267.589 40.608ZM283.525 48.384L282.946 48.8608L282.954 48.8701L282.962 48.8791L283.525 48.384ZM286.405 56.832H287.155L287.155 56.8184L286.405 56.832ZM283.813 65.088L283.202 64.6535L283.194 64.6645L283.813 65.088ZM276.517 70.848L276.813 71.5374L276.819 71.5345L276.517 70.848ZM265.477 72.114C261.214 72.114 257.417 71.3621 254.07 69.8746L253.461 71.2454C257.026 72.8299 261.036 73.614 265.477 73.614V72.114ZM254.08 69.8794C250.721 68.3241 248.071 66.2525 246.106 63.6735L244.913 64.5825C247.044 67.3795 249.898 69.5959 253.45 71.2406L254.08 69.8794ZM246.113 63.6826C244.213 61.1088 243.177 58.2716 242.994 55.156L241.497 55.244C241.697 58.6564 242.838 61.7712 244.906 64.5734L246.113 63.6826ZM242.245 55.95H255.781V54.45H242.245V55.95ZM255.037 55.293C255.319 57.5513 256.422 59.4221 258.297 60.88L259.218 59.696C257.636 58.4659 256.755 56.9447 256.525 55.107L255.037 55.293ZM258.307 60.888C260.25 62.3453 262.624 63.054 265.381 63.054V61.554C262.891 61.554 260.848 60.9187 259.207 59.688L258.307 60.888ZM265.381 63.054C268.029 63.054 270.191 62.5264 271.774 61.3745L270.892 60.1614C269.66 61.0576 267.854 61.554 265.381 61.554V63.054ZM271.762 61.3837C273.407 60.2392 274.291 58.7101 274.291 56.832H272.791C272.791 58.1539 272.204 59.2488 270.905 60.1523L271.762 61.3837ZM274.291 56.832C274.291 55.8312 274.029 54.9252 273.484 54.1459C272.942 53.3726 272.154 52.7689 271.169 52.3117L270.537 53.6723C271.345 54.0471 271.9 54.4994 272.255 55.0061C272.605 55.5068 272.791 56.1048 272.791 56.832H274.291ZM271.198 52.3262C269.394 51.3907 266.545 50.414 262.694 49.3873L262.308 50.8367C266.138 51.858 268.856 52.8013 270.508 53.6578L271.198 52.3262ZM262.678 49.383C258.73 48.4279 255.503 47.4457 252.988 46.4396L252.431 47.8324C255.036 48.8743 258.337 49.8761 262.325 50.841L262.678 49.383ZM252.994 46.4421C250.609 45.4639 248.528 43.9658 246.745 41.9369L245.618 42.9271C247.547 45.1222 249.817 46.7601 252.425 47.8299L252.994 46.4421ZM246.753 41.9468C245.106 40.006 244.243 37.3475 244.243 33.888H242.743C242.743 37.5965 243.672 40.634 245.609 42.9172L246.753 41.9468ZM244.243 33.888C244.243 31.0953 245.029 28.5549 246.608 26.2475L245.37 25.4005C243.621 27.9571 242.743 30.7927 242.743 33.888H244.243ZM246.601 26.2584C248.24 23.9509 250.559 22.11 253.592 20.7482L252.978 19.3798C249.739 20.834 247.194 22.8331 245.378 25.3896L246.601 26.2584ZM253.587 20.7505C256.673 19.3927 260.31 18.702 264.517 18.702V17.202C260.148 17.202 256.297 17.9193 252.983 19.3775L253.587 20.7505ZM264.517 18.702C270.727 18.702 275.594 20.2681 279.2 23.3242L280.17 22.1798C276.224 18.8359 270.98 17.202 264.517 17.202V18.702ZM279.206 23.329C282.809 26.3209 284.806 30.3792 285.177 35.5734L286.673 35.4666C286.276 29.9088 284.114 25.4551 280.164 22.175L279.206 23.329ZM285.925 34.77H273.061V36.27H285.925V34.77ZM273.808 35.4521C273.598 33.1434 272.605 31.282 270.827 29.9309L269.919 31.1251C271.342 32.206 272.14 33.6726 272.314 35.5879L273.808 35.4521ZM270.853 29.9518C269.145 28.5285 266.877 27.858 264.133 27.858V29.358C266.637 29.358 268.529 29.9675 269.893 31.1042L270.853 29.9518ZM264.133 27.858C261.623 27.858 259.568 28.318 258.053 29.328L258.885 30.576C260.058 29.7939 261.779 29.358 264.133 29.358V27.858ZM258.039 29.3376C256.553 30.3779 255.799 31.8583 255.799 33.696H257.299C257.299 32.3337 257.826 31.3181 258.899 30.5664L258.039 29.3376ZM255.799 33.696C255.799 34.7235 256.058 35.6604 256.593 36.4813C257.124 37.2973 257.902 37.9595 258.883 38.4851L259.591 37.1629C258.78 36.7284 258.214 36.2227 257.85 35.6627C257.488 35.1076 257.299 34.4605 257.299 33.696H255.799ZM258.902 38.4948C260.768 39.4279 263.615 40.3716 267.404 41.3349L267.774 39.8811C264.011 38.9244 261.291 38.0121 259.573 37.1532L258.902 38.4948ZM267.407 41.3356C271.227 42.2905 274.357 43.2723 276.809 44.2779L277.378 42.8901C274.837 41.8477 271.632 40.8455 267.771 39.8804L267.407 41.3356ZM276.809 44.2779C279.185 45.2528 281.229 46.7759 282.946 48.8608L284.104 47.9072C282.237 45.6401 279.994 43.9632 277.378 42.8901L276.809 44.2779ZM282.962 48.8791C284.673 50.8268 285.594 53.457 285.655 56.8456L287.155 56.8184C287.089 53.167 286.089 50.1652 284.089 47.8889L282.962 48.8791ZM285.655 56.832C285.655 59.7533 284.837 62.3525 283.202 64.6536L284.425 65.5224C286.246 62.9595 287.155 60.0547 287.155 56.832H285.655ZM283.194 64.6645C281.623 66.961 279.311 68.7993 276.215 70.1615L276.819 71.5345C280.123 70.0807 282.676 68.079 284.432 65.5115L283.194 64.6645ZM276.222 70.1586C273.199 71.4543 269.623 72.114 265.477 72.114V73.614C269.779 73.614 273.564 72.9297 276.813 71.5374L276.222 70.1586ZM377.433 4.992H378.183V4.242H377.433V4.992ZM377.433 15.84V16.59H378.183V15.84H377.433ZM359.577 15.84V15.09H358.827V15.84H359.577ZM359.577 72V72.75H360.327V72H359.577ZM346.137 72H345.387V72.75H346.137V72ZM346.137 15.84H346.887V15.09H346.137V15.84ZM328.281 15.84H327.531V16.59H328.281V15.84ZM328.281 4.992V4.242H327.531V4.992H328.281ZM376.683 4.992V15.84H378.183V4.992H376.683ZM377.433 15.09H359.577V16.59H377.433V15.09ZM358.827 15.84V72H360.327V15.84H358.827ZM359.577 71.25H346.137V72.75H359.577V71.25ZM346.887 72V15.84H345.387V72H346.887ZM346.137 15.09H328.281V16.59H346.137V15.09ZM329.031 15.84V4.992H327.531V15.84H329.031ZM328.281 5.742H377.433V4.242H328.281V5.742ZM402.791 69.504L402.423 70.1577L402.431 70.162L402.791 69.504ZM393.095 59.808L392.439 60.1714L392.443 60.179L393.095 59.808ZM393.191 31.008L392.543 30.6295L392.539 30.637L393.191 31.008ZM403.079 21.408L403.435 22.0684L403.442 22.0641L403.079 21.408ZM430.919 21.408L430.556 22.0641L430.563 22.0684L430.919 21.408ZM440.711 31.008L440.059 31.379L440.064 31.3865L440.711 31.008ZM440.615 59.808L439.972 59.4221L439.968 59.4295L440.615 59.808ZM430.631 69.504L430.987 70.1644L430.99 70.1624L430.631 69.504ZM423.431 59.424L423.79 60.0825L423.797 60.0787L423.431 59.424ZM428.615 54.048L429.275 54.4046L428.615 54.048ZM426.503 33.792L425.96 34.3096L425.966 34.316L425.973 34.3223L426.503 33.792ZM407.111 33.792L406.568 33.2744L406.568 33.2748L407.111 33.792ZM407.015 57.12L406.459 57.6239L406.466 57.6306L406.472 57.6372L407.015 57.12ZM416.615 72.114C411.608 72.114 407.126 71.0199 403.151 68.846L402.431 70.162C406.648 72.4681 411.382 73.614 416.615 73.614V72.114ZM403.159 68.8503C399.184 66.6143 396.049 63.481 393.747 59.437L392.443 60.179C394.877 64.455 398.206 67.7857 402.423 70.1577L403.159 68.8503ZM393.751 59.4446C391.517 55.411 390.389 50.7394 390.389 45.408H388.889C388.889 50.9566 390.065 55.885 392.439 60.1714L393.751 59.4446ZM390.389 45.408C390.389 40.0801 391.548 35.4112 393.843 31.379L392.539 30.637C390.098 34.9248 388.889 39.8559 388.889 45.408H390.389ZM393.838 31.3865C396.202 27.343 399.398 24.2417 403.435 22.0684L402.723 20.7476C398.44 23.0543 395.044 26.353 392.544 30.6295L393.838 31.3865ZM403.442 22.0641C407.483 19.8264 411.996 18.702 416.999 18.702V17.202C411.762 17.202 406.995 18.3816 402.716 20.7519L403.442 22.0641ZM416.999 18.702C422.002 18.702 426.515 19.8264 430.556 22.0641L431.282 20.7519C427.003 18.3816 422.236 17.202 416.999 17.202V18.702ZM430.563 22.0684C434.598 24.2407 437.76 27.3397 440.059 31.379L441.363 30.637C438.926 26.3563 435.56 23.0553 431.275 20.7476L430.563 22.0684ZM440.064 31.3865C442.42 35.4174 443.609 40.0835 443.609 45.408H445.109C445.109 39.8525 443.866 34.9185 441.358 30.6295L440.064 31.3865ZM443.609 45.408C443.609 50.729 442.39 55.3924 439.972 59.4221L441.258 60.1939C443.832 55.9036 445.109 50.967 445.109 45.408H443.609ZM439.968 59.4295C437.604 63.4719 434.376 66.607 430.272 68.8456L430.99 70.1624C435.334 67.793 438.762 64.4641 441.262 60.1865L439.968 59.4295ZM430.275 68.8436C426.235 71.0192 421.687 72.114 416.615 72.114V73.614C421.911 73.614 426.707 72.4688 430.987 70.1644L430.275 68.8436ZM416.615 61.902C419.171 61.902 421.567 61.2952 423.79 60.0824L423.072 58.7656C421.071 59.8568 418.923 60.402 416.615 60.402V61.902ZM423.797 60.0787C426.107 58.7877 427.933 56.8875 429.275 54.4046L427.955 53.6914C426.737 55.9445 425.107 57.6283 423.065 58.7693L423.797 60.0787ZM429.275 54.4046C430.627 51.9022 431.285 48.8928 431.285 45.408H429.785C429.785 48.7072 429.163 51.4578 427.955 53.6914L429.275 54.4046ZM431.285 45.408C431.285 40.221 429.904 36.132 427.033 33.2617L425.973 34.3223C428.478 36.828 429.785 40.483 429.785 45.408H431.285ZM427.046 33.2744C424.279 30.3723 420.85 28.914 416.807 28.914V30.414C420.444 30.414 423.479 31.7076 425.96 34.3096L427.046 33.2744ZM416.807 28.914C412.764 28.914 409.335 30.3723 406.568 33.2744L407.654 34.3096C410.135 31.7076 413.17 30.414 416.807 30.414V28.914ZM406.568 33.2748C403.833 36.1463 402.521 40.2304 402.521 45.408H404.021C404.021 40.4736 405.269 36.8137 407.654 34.3092L406.568 33.2748ZM402.521 45.408C402.521 50.5823 403.799 54.6907 406.459 57.6239L407.571 56.6161C405.239 54.0453 404.021 50.3457 404.021 45.408H402.521ZM406.472 57.6372C409.179 60.4796 412.578 61.902 416.615 61.902V60.402C412.972 60.402 409.971 59.1365 407.558 56.6028L406.472 57.6372ZM529.989 4.992H530.739V4.242H529.989V4.992ZM529.989 15.84V16.59H530.739V15.84H529.989ZM502.053 15.84V15.09H501.303V15.84H502.053ZM502.053 33.024H501.303V33.774H502.053V33.024ZM523.461 33.024H524.211V32.274H523.461V33.024ZM523.461 43.68V44.43H524.211V43.68H523.461ZM502.053 43.68V42.93H501.303V43.68H502.053ZM502.053 72V72.75H502.803V72H502.053ZM488.613 72H487.863V72.75H488.613V72ZM488.613 4.992V4.242H487.863V4.992H488.613ZM529.239 4.992V15.84H530.739V4.992H529.239ZM529.989 15.09H502.053V16.59H529.989V15.09ZM501.303 15.84V33.024H502.803V15.84H501.303ZM502.053 33.774H523.461V32.274H502.053V33.774ZM522.711 33.024V43.68H524.211V33.024H522.711ZM523.461 42.93H502.053V44.43H523.461V42.93ZM501.303 43.68V72H502.803V43.68H501.303ZM502.053 71.25H488.613V72.75H502.053V71.25ZM489.363 72V4.992H487.863V72H489.363ZM488.613 5.742H529.989V4.242H488.613V5.742ZM555.071 69.504L554.703 70.1577L554.711 70.162L555.071 69.504ZM545.375 59.808L544.719 60.1714L544.723 60.179L545.375 59.808ZM545.471 31.008L544.823 30.6295L544.819 30.637L545.471 31.008ZM555.359 21.408L555.715 22.0684L555.722 22.0641L555.359 21.408ZM583.199 21.408L582.836 22.0641L582.843 22.0684L583.199 21.408ZM592.991 31.008L592.339 31.379L592.344 31.3865L592.991 31.008ZM592.895 59.808L592.252 59.4221L592.247 59.4295L592.895 59.808ZM582.911 69.504L583.267 70.1644L583.27 70.1624L582.911 69.504ZM575.711 59.424L576.07 60.0825L576.077 60.0787L575.711 59.424ZM580.895 54.048L581.555 54.4046L580.895 54.048ZM578.783 33.792L578.24 34.3096L578.246 34.316L578.253 34.3223L578.783 33.792ZM559.391 33.792L558.848 33.2744L558.848 33.2748L559.391 33.792ZM559.295 57.12L558.739 57.6239L558.746 57.6306L558.752 57.6372L559.295 57.12ZM568.895 72.114C563.888 72.114 559.406 71.0199 555.431 68.846L554.711 70.162C558.928 72.4681 563.662 73.614 568.895 73.614V72.114ZM555.439 68.8503C551.464 66.6143 548.329 63.481 546.027 59.437L544.723 60.179C547.157 64.455 550.486 67.7857 554.703 70.1577L555.439 68.8503ZM546.031 59.4446C543.797 55.411 542.669 50.7394 542.669 45.408H541.169C541.169 50.9566 542.345 55.885 544.719 60.1714L546.031 59.4446ZM542.669 45.408C542.669 40.0801 543.828 35.4112 546.123 31.379L544.819 30.637C542.378 34.9248 541.169 39.8559 541.169 45.408H542.669ZM546.118 31.3865C548.482 27.343 551.678 24.2417 555.715 22.0684L555.003 20.7476C550.72 23.0543 547.324 26.353 544.823 30.6295L546.118 31.3865ZM555.722 22.0641C559.763 19.8264 564.276 18.702 569.279 18.702V17.202C564.042 17.202 559.275 18.3816 554.996 20.7519L555.722 22.0641ZM569.279 18.702C574.282 18.702 578.795 19.8264 582.836 22.0641L583.562 20.7519C579.283 18.3816 574.516 17.202 569.279 17.202V18.702ZM582.843 22.0684C586.878 24.2407 590.04 27.3397 592.339 31.379L593.643 30.637C591.206 26.3563 587.84 23.0553 583.555 20.7476L582.843 22.0684ZM592.344 31.3865C594.7 35.4174 595.889 40.0835 595.889 45.408H597.389C597.389 39.8525 596.146 34.9185 593.638 30.6295L592.344 31.3865ZM595.889 45.408C595.889 50.729 594.67 55.3924 592.252 59.4221L593.538 60.1939C596.112 55.9036 597.389 50.967 597.389 45.408H595.889ZM592.247 59.4295C589.884 63.4719 586.656 66.607 582.552 68.8456L583.27 70.1624C587.614 67.793 591.042 64.4641 593.542 60.1865L592.247 59.4295ZM582.555 68.8436C578.515 71.0192 573.967 72.114 568.895 72.114V73.614C574.191 73.614 578.987 72.4688 583.267 70.1644L582.555 68.8436ZM568.895 61.902C571.451 61.902 573.847 61.2952 576.07 60.0824L575.352 58.7656C573.351 59.8568 571.203 60.402 568.895 60.402V61.902ZM576.077 60.0787C578.387 58.7877 580.213 56.8875 581.555 54.4046L580.235 53.6914C579.017 55.9445 577.387 57.6283 575.345 58.7693L576.077 60.0787ZM581.555 54.4046C582.907 51.9022 583.565 48.8928 583.565 45.408H582.065C582.065 48.7072 581.443 51.4578 580.235 53.6914L581.555 54.4046ZM583.565 45.408C583.565 40.221 582.184 36.132 579.313 33.2617L578.253 34.3223C580.758 36.828 582.065 40.483 582.065 45.408H583.565ZM579.326 33.2744C576.559 30.3723 573.13 28.914 569.087 28.914V30.414C572.724 30.414 575.759 31.7076 578.24 34.3096L579.326 33.2744ZM569.087 28.914C565.044 28.914 561.615 30.3723 558.848 33.2744L559.934 34.3096C562.415 31.7076 565.45 30.414 569.087 30.414V28.914ZM558.848 33.2748C556.113 36.1463 554.801 40.2304 554.801 45.408H556.301C556.301 40.4736 557.549 36.8137 559.934 34.3092L558.848 33.2748ZM554.801 45.408C554.801 50.5823 556.079 54.6907 558.739 57.6239L559.851 56.6161C557.519 54.0453 556.301 50.3457 556.301 45.408H554.801ZM558.752 57.6372C561.459 60.4796 564.858 61.902 568.895 61.902V60.402C565.252 60.402 562.251 59.1365 559.838 56.6028L558.752 57.6372ZM625.698 0.959999H626.448V0.209999H625.698V0.959999ZM625.698 72V72.75H626.448V72H625.698ZM612.258 72H611.508V72.75H612.258V72ZM612.258 0.959999V0.209999H611.508V0.959999H612.258ZM624.948 0.959999V72H626.448V0.959999H624.948ZM625.698 71.25H612.258V72.75H625.698V71.25ZM613.008 72V0.959999H611.508V72H613.008ZM612.258 1.71H625.698V0.209999H612.258V1.71ZM658.177 0.959999H658.927V0.209999H658.177V0.959999ZM658.177 72V72.75H658.927V72H658.177ZM644.737 72H643.987V72.75H644.737V72ZM644.737 0.959999V0.209999H643.987V0.959999H644.737ZM657.427 0.959999V72H658.927V0.959999H657.427ZM658.177 71.25H644.737V72.75H658.177V71.25ZM645.487 72V0.959999H643.987V72H645.487ZM644.737 1.71H658.177V0.209999H644.737V1.71ZM687.007 69.504L686.64 70.1577L686.647 70.162L687.007 69.504ZM677.311 59.808L676.655 60.1714L676.659 60.179L677.311 59.808ZM677.407 31.008L676.76 30.6295L676.755 30.637L677.407 31.008ZM687.295 21.408L687.651 22.0684L687.659 22.0641L687.295 21.408ZM715.135 21.408L714.772 22.0641L714.78 22.0684L715.135 21.408ZM724.927 31.008L724.275 31.379L724.28 31.3865L724.927 31.008ZM724.831 59.808L724.188 59.4221L724.184 59.4295L724.831 59.808ZM714.847 69.504L715.203 70.1644L715.206 70.1624L714.847 69.504ZM707.647 59.424L708.006 60.0825L708.013 60.0787L707.647 59.424ZM712.831 54.048L713.491 54.4046L712.831 54.048ZM710.719 33.792L710.176 34.3096L710.183 34.316L710.189 34.3223L710.719 33.792ZM691.327 33.792L690.784 33.2744L690.784 33.2748L691.327 33.792ZM691.231 57.12L690.676 57.6239L690.682 57.6306L690.688 57.6372L691.231 57.12ZM700.831 72.114C695.825 72.114 691.342 71.0199 687.367 68.846L686.647 70.162C690.864 72.4681 695.598 73.614 700.831 73.614V72.114ZM687.375 68.8503C683.4 66.6143 680.265 63.481 677.963 59.437L676.659 60.179C679.093 64.455 682.423 67.7857 686.64 70.1577L687.375 68.8503ZM677.967 59.4446C675.733 55.411 674.605 50.7394 674.605 45.408H673.105C673.105 50.9566 674.281 55.885 676.655 60.1714L677.967 59.4446ZM674.605 45.408C674.605 40.0801 675.764 35.4112 678.059 31.379L676.755 30.637C674.315 34.9248 673.105 39.8559 673.105 45.408H674.605ZM678.055 31.3865C680.419 27.343 683.615 24.2417 687.651 22.0684L686.94 20.7476C682.656 23.0543 679.26 26.353 676.76 30.6295L678.055 31.3865ZM687.659 22.0641C691.699 19.8264 696.212 18.702 701.215 18.702V17.202C695.978 17.202 691.212 18.3816 686.932 20.7519L687.659 22.0641ZM701.215 18.702C706.218 18.702 710.732 19.8264 714.772 22.0641L715.499 20.7519C711.219 18.3816 706.452 17.202 701.215 17.202V18.702ZM714.78 22.0684C718.814 24.2407 721.976 27.3397 724.275 31.379L725.579 30.637C723.142 26.3563 719.776 23.0553 715.491 20.7476L714.78 22.0684ZM724.28 31.3865C726.636 35.4174 727.825 40.0835 727.825 45.408H729.325C729.325 39.8525 728.082 34.9185 725.575 30.6295L724.28 31.3865ZM727.825 45.408C727.825 50.729 726.606 55.3924 724.188 59.4221L725.474 60.1939C728.049 55.9036 729.325 50.967 729.325 45.408H727.825ZM724.184 59.4295C721.821 63.4719 718.592 66.607 714.488 68.8456L715.206 70.1624C719.55 67.793 722.978 64.4641 725.479 60.1865L724.184 59.4295ZM714.492 68.8436C710.451 71.0192 705.903 72.114 700.831 72.114V73.614C706.127 73.614 710.923 72.4688 715.203 70.1644L714.492 68.8436ZM700.831 61.902C703.387 61.902 705.783 61.2952 708.006 60.0824L707.288 58.7656C705.288 59.8568 703.139 60.402 700.831 60.402V61.902ZM708.013 60.0787C710.323 58.7877 712.149 56.8875 713.491 54.4046L712.171 53.6914C710.954 55.9445 709.323 57.6283 707.281 58.7693L708.013 60.0787ZM713.491 54.4046C714.844 51.9022 715.501 48.8928 715.501 45.408H714.001C714.001 48.7072 713.379 51.4578 712.171 53.6914L713.491 54.4046ZM715.501 45.408C715.501 40.221 714.12 36.132 711.25 33.2617L710.189 34.3223C712.695 36.828 714.001 40.483 714.001 45.408H715.501ZM711.262 33.2744C708.495 30.3723 705.066 28.914 701.023 28.914V30.414C704.66 30.414 707.696 31.7076 710.176 34.3096L711.262 33.2744ZM701.023 28.914C696.98 28.914 693.552 30.3723 690.784 33.2744L691.87 34.3096C694.351 31.7076 697.386 30.414 701.023 30.414V28.914ZM690.784 33.2748C688.049 36.1463 686.737 40.2304 686.737 45.408H688.237C688.237 40.4736 689.485 36.8137 691.87 34.3092L690.784 33.2748ZM686.737 45.408C686.737 50.5823 688.015 54.6907 690.676 57.6239L691.787 56.6161C689.455 54.0453 688.237 50.3457 688.237 45.408H686.737ZM690.688 57.6372C693.395 60.4796 696.794 61.902 700.831 61.902V60.402C697.189 60.402 694.187 59.1365 691.774 56.6028L690.688 57.6372ZM817.922 18.816L818.642 19.0265L818.923 18.066H817.922V18.816ZM802.37 72V72.75H802.932L803.09 72.2105L802.37 72ZM787.874 72L787.148 72.1894L787.295 72.75H787.874V72ZM778.178 34.848L778.904 34.6586L778.178 31.878L777.452 34.6586L778.178 34.848ZM768.482 72V72.75H769.061L769.208 72.1894L768.482 72ZM753.89 72L753.171 72.2117L753.329 72.75H753.89V72ZM738.242 18.816V18.066H737.24L737.523 19.0277L738.242 18.816ZM751.874 18.816L752.605 18.6463L752.47 18.066H751.874V18.816ZM761.282 59.328L760.551 59.4977L762.009 59.5107L761.282 59.328ZM771.458 18.816V18.066H770.873L770.731 18.6333L771.458 18.816ZM785.666 18.816L786.394 18.6361L786.253 18.066H785.666V18.816ZM795.65 59.232L794.922 59.4119L796.38 59.402L795.65 59.232ZM805.058 18.816V18.066H804.463L804.328 18.646L805.058 18.816ZM817.202 18.6055L801.65 71.7895L803.09 72.2105L818.642 19.0265L817.202 18.6055ZM802.37 71.25H787.874V72.75H802.37V71.25ZM788.6 71.8106L778.904 34.6586L777.452 35.0374L787.148 72.1894L788.6 71.8106ZM777.452 34.6586L767.756 71.8106L769.208 72.1894L778.904 35.0374L777.452 34.6586ZM768.482 71.25H753.89V72.75H768.482V71.25ZM754.609 71.7883L738.961 18.6043L737.523 19.0277L753.171 72.2117L754.609 71.7883ZM738.242 19.566H751.874V18.066H738.242V19.566ZM751.143 18.9857L760.551 59.4977L762.013 59.1583L752.605 18.6463L751.143 18.9857ZM762.009 59.5107L772.185 18.9987L770.731 18.6333L760.555 59.1453L762.009 59.5107ZM771.458 19.566H785.666V18.066H771.458V19.566ZM784.938 18.9959L794.922 59.4119L796.378 59.0521L786.394 18.6361L784.938 18.9959ZM796.38 59.402L805.788 18.986L804.328 18.646L794.92 59.062L796.38 59.402ZM805.058 19.566H817.922V18.066H805.058V19.566Z" fill="url(#paint0_linear_1332_12014)"/>
<defs>
<linearGradient id="paint0_linear_1332_12014" x1="170.047" y1="-145.462" x2="126.4" y2="113.175" gradientUnits="userSpaceOnUse">
<stop stop-color="#2DD1DB"/>
<stop offset="0.60721" stop-color="#2D9CDB"/>
<stop offset="1" stop-color="#1A8ED0"/>
</linearGradient>
</defs>
</svg>
