<svg width="64" height="64" viewBox="0 0 64 64" fill="none" xmlns="http://www.w3.org/2000/svg">
<path d="M39.9125 61.0001H17.875V59.7501H39.8625L52.075 57.5251L60.2 50.2501L62.525 42.8626H61.475C59.675 42.8626 57.9625 43.9251 57.1375 45.5626L56.025 47.7876C55.975 47.8876 55.9 47.9751 55.8 48.0376L47.6125 53.2501C47.5125 53.3126 47.4 53.3501 47.275 53.3501H44.0875C43.7375 53.3501 43.4625 53.0751 43.4625 52.7251C43.4625 52.3751 43.7375 52.1001 44.0875 52.1001C45.4875 52.1001 46.625 50.9501 46.625 49.5376C46.625 48.1126 45.4875 46.9751 44.0875 46.9751H32.5625C32.4125 46.9751 32.275 46.9251 32.1625 46.8251C29.8875 45.5876 27.1 45.6001 24.85 46.8626L20.6625 49.2126C20.5625 49.2626 20.4625 49.2876 20.35 49.2876L15.375 49.2751V48.0251L20.1875 48.0376L24.2375 45.7751C26.85 44.3126 30.1 44.3001 32.75 45.7251H44.0875C46.175 45.7251 47.875 47.4251 47.875 49.5251C47.875 50.5126 47.5 51.4126 46.8875 52.1001H47.0875L54.975 47.0751L56.0125 45.0001C57.0625 42.9376 59.2 41.6001 61.475 41.6001H63.375C63.575 41.6001 63.7625 41.7001 63.875 41.8501C63.9875 42.0126 64.025 42.2126 63.9625 42.4126L61.325 50.7751C61.2875 50.8876 61.225 50.9751 61.15 51.0501L52.7625 58.5501C52.675 58.6251 52.575 58.6751 52.4625 58.7001L40.025 60.9626C39.9875 61.0001 39.95 61.0001 39.9125 61.0001Z" fill="white"/>
<path d="M44.125 52.125H31.25V53.375H44.125V52.125Z" fill="white"/>
<path d="M11 48.675H9.75V63.375H11V48.675Z" fill="white"/>
<path d="M15.375 64H0.625C0.275 64 0 63.725 0 63.375V48.675C0 48.325 0.275 48.05 0.625 48.05H15.375C15.725 48.05 16 48.325 16 48.675V63.375C16 63.725 15.725 64 15.375 64ZM1.25 62.75H14.75V49.3H1.25V62.75Z" fill="white"/>
<path d="M32.625 0H31.375V3.375H32.625V0Z" fill="white"/>
<path d="M28.2698 3.99456L26.9783 0.876465L25.8234 1.35482L27.115 4.47291L28.2698 3.99456Z" fill="white"/>
<path d="M38.1722 1.35482L37.0174 0.876465L35.7258 3.99456L36.8807 4.47291L38.1722 1.35482Z" fill="white"/>
<path d="M56.375 37.75H7.625C7.275 37.75 7 37.475 7 37.125V10.875C7 10.525 7.275 10.25 7.625 10.25H56.375C56.725 10.25 57 10.525 57 10.875V37.125C57 37.475 56.725 37.75 56.375 37.75ZM8.25 36.5H55.75V11.5H8.25V36.5Z" fill="white"/>
<path d="M50.125 34H13.875C13.7125 34 13.55 33.9375 13.4375 33.8125L10.9375 31.3125C10.825 31.2 10.75 31.0375 10.75 30.875V17.125C10.75 16.9625 10.8125 16.8 10.9375 16.6875L13.4375 14.1875C13.55 14.075 13.7125 14 13.875 14H47.625V15.25H14.1375L12 17.3875V30.625L14.1375 32.7625H49.875L52.0125 30.625V17.3875L49.7 15.075L50.5875 14.1875L53.0875 16.6875C53.2 16.8 53.275 16.9625 53.275 17.125V30.875C53.275 31.0375 53.2125 31.2 53.0875 31.3125L50.5875 33.8125C50.45 33.9375 50.2875 34 50.125 34Z" fill="white"/>
<path d="M32 29.625C28.9 29.625 26.375 27.1 26.375 24C26.375 20.9 28.9 18.375 32 18.375C35.1 18.375 37.625 20.9 37.625 24C37.625 27.1 35.1 29.625 32 29.625ZM32 19.625C29.5875 19.625 27.625 21.5875 27.625 24C27.625 26.4125 29.5875 28.375 32 28.375C34.4125 28.375 36.375 26.4125 36.375 24C36.375 21.5875 34.4125 19.625 32 19.625Z" fill="white"/>
<path d="M43.875 26.5C42.5 26.5 41.375 25.375 41.375 24C41.375 22.625 42.5 21.5 43.875 21.5C45.25 21.5 46.375 22.625 46.375 24C46.375 25.375 45.25 26.5 43.875 26.5ZM43.875 22.75C43.1875 22.75 42.625 23.3125 42.625 24C42.625 24.6875 43.1875 25.25 43.875 25.25C44.5625 25.25 45.125 24.6875 45.125 24C45.125 23.3125 44.5625 22.75 43.875 22.75Z" fill="white"/>
<path d="M19.5 26.5C18.125 26.5 17 25.375 17 24C17 22.625 18.125 21.5 19.5 21.5C20.875 21.5 22 22.625 22 24C22 25.375 20.875 26.5 19.5 26.5ZM19.5 22.75C18.8125 22.75 18.25 23.3125 18.25 24C18.25 24.6875 18.8125 25.25 19.5 25.25C20.1875 25.25 20.75 24.6875 20.75 24C20.75 23.3125 20.1875 22.75 19.5 22.75Z" fill="white"/>
</svg>
