<svg width="64" height="64" viewBox="0 0 64 64" fill="none" xmlns="http://www.w3.org/2000/svg">
<path d="M32 0C14.3347 0 0 14.3347 0 32C0 49.6653 14.3347 64 32 64C49.6653 64 64 49.6653 64 32C64 14.3347 49.6653 0 32 0ZM32 1.33333C48.944 1.33333 62.6667 15.0547 62.6667 32C62.6667 48.9453 48.944 62.6667 32 62.6667C15.056 62.6667 1.33333 48.9453 1.33333 32C1.33333 15.0547 15.056 1.33333 32 1.33333ZM29.5307 12.6333V12.6427C29.4221 12.6243 29.3112 12.6243 29.2027 12.6427C28.9187 12.6933 28.8267 12.7987 28.716 12.888C28.6048 12.9802 28.4997 13.0795 28.4013 13.1853C28.1947 13.4027 27.9773 13.6627 27.7627 13.9187C27.5493 14.176 27.336 14.4307 27.1693 14.6147C27.115 14.6744 27.0585 14.7323 27 14.788C26.9373 14.788 26.864 14.7747 26.7627 14.7627C26.5187 14.7293 26.196 14.672 25.8667 14.6147C25.5387 14.5573 25.2067 14.4987 24.9093 14.4667C24.7664 14.4495 24.6226 14.4415 24.4787 14.4427C24.3373 14.4427 24.1973 14.428 23.948 14.5733C23.6987 14.7187 23.648 14.8467 23.5747 14.9693C23.5027 15.092 23.4427 15.216 23.3827 15.3547C23.2627 15.6293 23.1427 15.9493 23.028 16.2653C22.9133 16.5813 22.8013 16.8933 22.708 17.1253C22.668 17.2227 22.6347 17.2947 22.6067 17.352C22.5291 17.3744 22.4508 17.3944 22.372 17.412C22.132 17.4653 21.8093 17.5227 21.4813 17.5813C21.1533 17.64 20.8187 17.7013 20.528 17.7733C20.384 17.8093 20.2493 17.8467 20.1173 17.8987C19.984 17.9507 19.848 17.9787 19.664 18.2C19.48 18.4213 19.4773 18.56 19.4507 18.7C19.424 18.84 19.408 18.9773 19.3973 19.1267C19.3787 19.428 19.3787 19.7693 19.3773 20.1067C19.3773 20.444 19.3773 20.776 19.3667 21.0267C19.3627 21.1333 19.3533 21.2093 19.3467 21.2733C19.296 21.3107 19.2347 21.3573 19.1467 21.4147C18.9373 21.548 18.6507 21.7133 18.3613 21.8827C18.0733 22.052 17.7827 22.2253 17.5347 22.3933C17.4145 22.4725 17.2996 22.5593 17.1907 22.6533C17.084 22.748 16.9667 22.8213 16.8707 23.0907C16.7733 23.36 16.8147 23.492 16.836 23.6333C16.8573 23.7733 16.8933 23.908 16.9347 24.052C17.0173 24.3413 17.132 24.6627 17.2453 24.9787C17.3573 25.296 17.4693 25.608 17.544 25.8453C17.576 25.948 17.5973 26.024 17.612 26.0853C17.5773 26.1387 17.532 26.2067 17.4653 26.292C17.3147 26.4893 17.1053 26.7413 16.8907 27C16.6773 27.2587 16.4627 27.5227 16.2867 27.7653C16.2007 27.881 16.1223 28.0021 16.052 28.128C15.984 28.2533 15.8987 28.3627 15.8987 28.648C15.8987 28.9333 15.984 29.044 16.052 29.1693C16.12 29.2947 16.1987 29.4093 16.2867 29.5307C16.4627 29.7747 16.6773 30.0373 16.8907 30.2973C17.104 30.556 17.3147 30.808 17.4667 31.004C17.5307 31.0907 17.5773 31.1573 17.612 31.2107C17.5927 31.2915 17.5705 31.3715 17.5453 31.4507C17.4693 31.688 17.3587 32.0013 17.2453 32.3173C17.132 32.6333 17.0187 32.9533 16.9347 33.2427C16.8929 33.3809 16.8599 33.5216 16.836 33.664C16.8147 33.8053 16.7733 33.936 16.8693 34.2053C16.9667 34.4747 17.0827 34.5493 17.1893 34.6427C17.296 34.7373 17.4093 34.82 17.5333 34.904C17.7827 35.072 18.0733 35.2453 18.3613 35.4147C18.6507 35.584 18.9373 35.748 19.1453 35.8813C19.2347 35.936 19.296 35.9827 19.3453 36.0213C19.3533 36.0853 19.3627 36.164 19.3667 36.2707C19.3773 36.5213 19.3773 36.8533 19.3773 37.1907C19.3773 37.5267 19.3773 37.8653 19.3987 38.1667C19.408 38.3173 19.4227 38.456 19.4507 38.596C19.4773 38.736 19.48 38.876 19.664 39.096C19.848 39.3173 19.984 39.3467 20.1173 39.3987C20.2507 39.4507 20.384 39.4907 20.528 39.5267C20.8187 39.5987 21.1547 39.66 21.4813 39.7187C21.8093 39.7773 22.1307 39.8347 22.372 39.888C22.4733 39.9107 22.5467 39.9307 22.6067 39.948C22.6347 40.0053 22.668 40.0773 22.708 40.1747C22.7693 40.3227 22.8427 40.532 22.9147 40.7267L19.3933 46.724C19.3211 46.8466 19.287 46.988 19.2954 47.1301C19.3039 47.2721 19.3545 47.4085 19.4407 47.5216C19.527 47.6348 19.6451 47.7197 19.7799 47.7655C19.9146 47.8113 20.06 47.8159 20.1973 47.7787L23.4187 46.9147L24.284 50.1387C24.3213 50.2747 24.398 50.3966 24.5043 50.4893C24.6107 50.5819 24.7421 50.641 24.8819 50.6592C25.0218 50.6774 25.1639 50.654 25.2905 50.5917C25.417 50.5295 25.5224 50.4312 25.5933 50.3093L28.916 44.5573C28.9867 44.5973 29.0707 44.6333 29.2027 44.656C29.488 44.7067 29.6107 44.64 29.7453 44.5933C29.8787 44.5467 30.0067 44.4907 30.14 44.424C30.4093 44.2907 30.7027 44.1227 30.9933 43.956C31.2813 43.788 31.5653 43.6213 31.784 43.5053C31.876 43.4573 31.9427 43.424 32 43.3987C32.0573 43.424 32.1253 43.4573 32.216 43.5053C32.4347 43.6213 32.7187 43.788 33.008 43.956C33.2973 44.1227 33.5907 44.292 33.86 44.424C33.9933 44.4907 34.12 44.5467 34.2547 44.5933C34.3893 44.64 34.512 44.7067 34.7973 44.656C34.8971 44.6403 34.9933 44.6068 35.0813 44.5573L38.4013 50.3093C38.4723 50.4312 38.5776 50.5295 38.7042 50.5917C38.8307 50.654 38.9729 50.6774 39.1127 50.6592C39.2526 50.641 39.3839 50.5819 39.4903 50.4893C39.5967 50.3966 39.6734 50.2747 39.7107 50.1387L40.576 46.9173L43.7947 47.7813C43.9319 47.8178 44.0768 47.8127 44.2111 47.7666C44.3454 47.7205 44.4629 47.6356 44.5488 47.5225C44.6347 47.4095 44.685 47.2735 44.6934 47.1318C44.7018 46.9901 44.6679 46.8491 44.596 46.7267L41.0827 40.7373C41.156 40.5373 41.2293 40.3253 41.292 40.1747C41.332 40.0773 41.3653 40.0053 41.3933 39.948C41.4533 39.9307 41.5267 39.9107 41.628 39.888C41.868 39.8347 42.1907 39.7787 42.5187 39.7187C42.8467 39.66 43.1813 39.5987 43.472 39.5267C43.6116 39.4931 43.7488 39.4503 43.8827 39.3987C44.016 39.3453 44.152 39.3173 44.336 39.096C44.52 38.8747 44.5227 38.736 44.5493 38.596C44.576 38.456 44.592 38.316 44.6027 38.1667C44.6213 37.8653 44.6213 37.5267 44.6227 37.1907C44.6227 36.8533 44.6227 36.5213 44.6333 36.2707C44.6373 36.164 44.6467 36.084 44.6533 36.0213C44.704 35.984 44.7653 35.9373 44.8533 35.88C45.0627 35.7467 45.3467 35.584 45.636 35.4133C45.924 35.2453 46.216 35.072 46.4627 34.904C46.588 34.82 46.7013 34.7373 46.8067 34.6427C46.9133 34.5493 47.0307 34.4747 47.1267 34.2053C47.224 33.936 47.1827 33.8053 47.1613 33.664C47.1374 33.5216 47.1044 33.3809 47.0627 33.2427C46.9687 32.9311 46.8651 32.6225 46.752 32.3173C46.6475 32.0302 46.548 31.7412 46.4533 31.4507C46.4283 31.3715 46.406 31.2914 46.3867 31.2107C46.42 31.1573 46.4667 31.0907 46.5307 31.0053C46.6827 30.808 46.8933 30.556 47.1067 30.2973C47.32 30.0387 47.5373 29.7747 47.7133 29.5307C47.8013 29.4107 47.88 29.2947 47.948 29.1693C48.016 29.044 48.1013 28.9347 48.1013 28.6493C48.1013 28.3627 48.016 28.252 47.948 28.128C47.8777 28.0021 47.7994 27.881 47.7133 27.7653C47.5373 27.5227 47.32 27.2587 47.1067 27C46.8933 26.7413 46.6827 26.4867 46.5307 26.2893C46.4799 26.223 46.4314 26.155 46.3853 26.0853C46.4 26.0227 46.4213 25.948 46.452 25.8453C46.528 25.608 46.6387 25.296 46.752 24.9787C46.8653 24.6627 46.9787 24.3413 47.0627 24.052C47.104 23.908 47.14 23.7733 47.1613 23.6333C47.1827 23.492 47.224 23.36 47.128 23.0907C47.0307 22.8227 46.9147 22.748 46.808 22.6533C46.6992 22.5592 46.5843 22.4724 46.464 22.3933C46.1934 22.2145 45.9172 22.0442 45.636 21.8827C45.3467 21.7133 45.0627 21.548 44.8547 21.4147C44.7863 21.3701 44.7196 21.3229 44.6547 21.2733C44.6467 21.2093 44.6373 21.132 44.6333 21.0267C44.6227 20.776 44.6227 20.444 44.6227 20.1067C44.6227 19.7693 44.6227 19.428 44.6013 19.128C44.5931 18.9848 44.5758 18.8423 44.5493 18.7013C44.5227 18.5613 44.52 18.4213 44.336 18.2C44.152 17.9787 44.016 17.9507 43.8827 17.8987C43.7493 17.8453 43.616 17.8093 43.472 17.7733C43.1563 17.6995 42.8383 17.6355 42.5187 17.5813C42.1907 17.5227 41.8693 17.464 41.628 17.412C41.5492 17.3944 41.4709 17.3744 41.3933 17.352C41.3569 17.2776 41.3232 17.202 41.292 17.1253C41.1987 16.8933 41.0867 16.5813 40.972 16.2653C40.8632 15.9582 40.7449 15.6545 40.6173 15.3547C40.5613 15.2218 40.4967 15.0926 40.424 14.968C40.352 14.848 40.3 14.7173 40.052 14.5733C39.8027 14.4267 39.6627 14.4453 39.5213 14.4427C39.3787 14.4427 39.24 14.456 39.0907 14.4667C38.7933 14.4987 38.4613 14.5573 38.1333 14.6133C37.804 14.672 37.4813 14.7307 37.2373 14.7627C37.136 14.776 37.0627 14.784 37 14.7893C36.9416 14.7331 36.8851 14.6748 36.8307 14.6147C36.629 14.3861 36.4311 14.154 36.2373 13.9187C36.0227 13.6627 35.8027 13.3987 35.5973 13.1827C35.4995 13.0776 35.3949 12.9792 35.284 12.888C35.1733 12.7987 35.0827 12.6907 34.7973 12.64C34.512 12.5893 34.3893 12.6533 34.2547 12.7C34.1213 12.7467 33.9933 12.8067 33.86 12.8733C33.5907 13.0067 33.2973 13.1733 33.0067 13.34C32.7187 13.5093 32.4347 13.676 32.216 13.792C32.1253 13.84 32.0573 13.868 32 13.8933C31.9427 13.8667 31.876 13.84 31.784 13.792C31.5653 13.676 31.2813 13.5093 30.992 13.3413C30.7129 13.1761 30.4288 13.0196 30.14 12.872C30.0123 12.8063 29.8804 12.7488 29.7453 12.7C29.6787 12.6773 29.6147 12.6493 29.532 12.6333H29.5307ZM29.448 14.0387C29.484 14.0547 29.5053 14.06 29.5493 14.0813C29.7587 14.1853 30.0373 14.3427 30.3227 14.508C30.608 14.6733 30.8987 14.844 31.1587 14.9813C31.2893 15.0507 31.412 15.1147 31.5333 15.164C31.6573 15.2147 31.756 15.2733 32 15.2733C32.244 15.2733 32.34 15.2147 32.464 15.164C32.5913 15.1091 32.7159 15.0481 32.8373 14.9813C33.0987 14.844 33.392 14.6733 33.6773 14.508C33.9627 14.3427 34.2413 14.184 34.4507 14.0813C34.4947 14.0587 34.516 14.0547 34.552 14.0387C34.5813 14.0667 34.5987 14.0787 34.632 14.1147C34.7947 14.284 35.0053 14.5333 35.216 14.7867C35.4293 15.04 35.6427 15.3013 35.8413 15.52C35.94 15.6307 36.032 15.728 36.1307 15.8173C36.228 15.908 36.3 15.996 36.528 16.0813C36.7573 16.1653 36.8693 16.144 37.0027 16.1387C37.136 16.1387 37.2707 16.1187 37.416 16.0987C37.7093 16.0587 38.0413 15.9987 38.364 15.9427C38.688 15.8853 39.0053 15.832 39.2373 15.8067C39.2867 15.8067 39.3067 15.808 39.3467 15.7933L39.396 15.8987C39.4893 16.1147 39.6053 16.42 39.7187 16.732C39.832 17.044 39.9453 17.364 40.0573 17.6387C40.1133 17.7747 40.168 17.9 40.2293 18.0187C40.2907 18.1373 40.328 18.244 40.5133 18.4013C40.6987 18.5587 40.8107 18.576 40.9373 18.6173C41.064 18.6573 41.1947 18.692 41.3373 18.724C41.6267 18.788 41.9573 18.844 42.2813 18.904C42.6053 18.9627 42.9213 19.02 43.148 19.076C43.1987 19.0893 43.2187 19.0987 43.2573 19.1093C43.2627 19.1507 43.2667 19.1733 43.2707 19.2267C43.2867 19.4627 43.288 19.7867 43.2893 20.12C43.2893 20.452 43.2893 20.792 43.3027 21.088C43.308 21.2373 43.316 21.3733 43.3333 21.5053C43.3507 21.6373 43.3507 21.7507 43.472 21.9613C43.592 22.1707 43.6893 22.228 43.7947 22.3093C43.8987 22.392 44.0107 22.4693 44.136 22.5493C44.384 22.7093 44.6773 22.8773 44.9613 23.044C45.2453 23.2107 45.5213 23.3773 45.716 23.508C45.76 23.5373 45.776 23.5533 45.8093 23.5787C45.8 23.6187 45.796 23.6427 45.7813 23.6947C45.716 23.9213 45.608 24.2293 45.4973 24.5413C45.3853 24.8533 45.2707 25.1707 45.1827 25.4533C45.1391 25.5862 45.1017 25.721 45.0707 25.8573C45.0427 25.988 45.004 26.0933 45.044 26.3307C45.0853 26.568 45.1587 26.6547 45.2293 26.768C45.3 26.8813 45.3813 26.9947 45.472 27.112C45.6507 27.3467 45.8667 27.6053 46.0787 27.8587C46.2893 28.1147 46.4947 28.3667 46.6333 28.5573C46.6653 28.6013 46.6773 28.624 46.7 28.6587C46.6773 28.6947 46.6653 28.716 46.6333 28.76C46.4947 28.9507 46.2893 29.2 46.0787 29.456C45.8667 29.7107 45.652 29.9707 45.472 30.2053C45.3813 30.3227 45.2987 30.432 45.2293 30.544C45.1587 30.6573 45.0853 30.7493 45.044 30.9867C45.004 31.224 45.0427 31.3307 45.0707 31.4613C45.0973 31.592 45.1373 31.72 45.1827 31.8613C45.272 32.144 45.3853 32.464 45.4973 32.776C45.6093 33.088 45.716 33.396 45.7813 33.6227C45.796 33.6747 45.8 33.6987 45.8093 33.74C45.776 33.7653 45.76 33.78 45.716 33.8093C45.4691 33.9715 45.2174 34.1262 44.9613 34.2733C44.6773 34.44 44.384 34.6093 44.1347 34.768C44.0107 34.848 43.8987 34.9227 43.7947 35.0053C43.6893 35.088 43.592 35.144 43.472 35.3547C43.352 35.564 43.352 35.6747 43.3333 35.808C43.3166 35.947 43.3064 36.0867 43.3027 36.2267C43.2893 36.5227 43.2893 36.86 43.2893 37.1933C43.2893 37.5253 43.2867 37.8493 43.2707 38.0867C43.2667 38.14 43.2627 38.1627 43.2573 38.2067C43.2173 38.22 43.1987 38.2267 43.148 38.24C42.9213 38.296 42.6053 38.356 42.2813 38.4133C41.9573 38.4733 41.6267 38.5307 41.3387 38.5933C41.2037 38.6216 41.0703 38.6563 40.9387 38.6973C40.8107 38.7387 40.6987 38.7587 40.512 38.9173C40.328 39.0733 40.2907 39.1813 40.2293 39.3C40.1661 39.4239 40.1087 39.5507 40.0573 39.68C39.9453 39.9547 39.832 40.2747 39.7187 40.5867C39.6053 40.8973 39.4907 41.2 39.396 41.416C39.3747 41.4653 39.3627 41.4827 39.3427 41.5213C39.3053 41.5213 39.2853 41.5213 39.236 41.508C38.9441 41.4711 38.6533 41.4258 38.364 41.372C38.0413 41.3147 37.708 41.2547 37.4173 41.216C37.2799 41.1956 37.1415 41.1818 37.0027 41.1747C36.8693 41.1747 36.7573 41.1533 36.528 41.2373C36.3 41.3213 36.228 41.408 36.1307 41.4973C36.0297 41.5929 35.9332 41.693 35.8413 41.7973C35.6427 42.016 35.428 42.2773 35.216 42.5307C35.004 42.784 34.7947 43.028 34.6333 43.1973L34.5533 43.2787C34.516 43.2627 34.4947 43.256 34.4507 43.2347C34.1889 43.0989 33.931 42.9558 33.6773 42.8053C33.392 42.64 33.0987 42.4693 32.8373 42.3307C32.716 42.2645 32.5914 42.2044 32.464 42.1507C32.34 42.1 32.244 42.0413 32 42.0413C31.756 42.0413 31.6573 42.1 31.5333 42.1507C31.4061 42.2056 31.2815 42.2665 31.16 42.3333C30.8987 42.472 30.608 42.6427 30.3227 42.8067C30.0373 42.972 29.7587 43.1307 29.5493 43.2333C29.5053 43.256 29.484 43.2627 29.448 43.2787C29.4187 43.2507 29.4013 43.2347 29.368 43.1987C29.2053 43.028 28.9947 42.7853 28.784 42.532C28.5707 42.2787 28.3573 42.016 28.1587 41.7973C28.0669 41.6929 27.9703 41.5928 27.8693 41.4973C27.772 41.408 27.7 41.3213 27.472 41.2373C27.2427 41.1533 27.1307 41.1693 26.9973 41.1747C26.864 41.1747 26.7293 41.196 26.584 41.216C26.2907 41.256 25.9587 41.316 25.636 41.372C25.312 41.4293 24.9947 41.4827 24.7627 41.508C24.7147 41.508 24.696 41.508 24.656 41.5213C24.6373 41.484 24.6253 41.4667 24.604 41.4173C24.5107 41.2 24.3947 40.8973 24.2813 40.5853C24.168 40.2747 24.0547 39.9547 23.9427 39.6787C23.8913 39.5498 23.8339 39.4235 23.7707 39.3C23.7093 39.18 23.672 39.0733 23.4867 38.916C23.3013 38.7587 23.1893 38.7387 23.0627 38.6973C22.9311 38.6563 22.7976 38.6216 22.6627 38.5933C22.3733 38.5293 22.0427 38.4733 21.7187 38.4147C21.3947 38.356 21.0787 38.2947 20.852 38.24C20.8013 38.2267 20.7813 38.2187 20.7427 38.2053C20.7373 38.1627 20.7333 38.1387 20.7293 38.0853C20.7133 37.8493 20.712 37.5253 20.7107 37.192C20.7107 36.86 20.7107 36.5227 20.6973 36.2267C20.6936 36.0863 20.6834 35.9461 20.6667 35.8067C20.6493 35.6747 20.6493 35.564 20.528 35.3533C20.408 35.144 20.3107 35.0867 20.2053 35.0053C20.0946 34.9207 19.9798 34.8415 19.8613 34.768C19.6133 34.6093 19.3213 34.44 19.036 34.2747C18.752 34.1067 18.476 33.9413 18.2813 33.8093C18.2373 33.78 18.2213 33.7653 18.188 33.74C18.1973 33.6987 18.2013 33.6733 18.216 33.6227C18.2813 33.396 18.3893 33.088 18.5 32.776C18.612 32.464 18.7267 32.144 18.8147 31.8613C18.86 31.72 18.8987 31.592 18.9267 31.4613C18.9547 31.3307 18.9933 31.224 18.9533 30.9867C18.912 30.7493 18.8387 30.6573 18.768 30.544C18.693 30.4273 18.6124 30.3143 18.5267 30.2053C18.3467 29.9707 18.1293 29.712 17.9187 29.456C17.7093 29.2013 17.5053 28.9507 17.3667 28.76C17.3347 28.716 17.3227 28.6947 17.3 28.6587C17.3227 28.6227 17.3347 28.6013 17.3667 28.5573C17.5053 28.3667 17.7093 28.1147 17.9187 27.86C18.1293 27.604 18.3453 27.344 18.5267 27.1093C18.616 26.992 18.6973 26.8813 18.768 26.768C18.8387 26.6547 18.912 26.568 18.9533 26.3307C18.9947 26.0933 18.9547 25.9867 18.9267 25.8573C18.8957 25.721 18.8583 25.5862 18.8147 25.4533C18.7253 25.1707 18.612 24.8533 18.5 24.5413C18.3972 24.2619 18.3025 23.9796 18.216 23.6947C18.2013 23.6427 18.1973 23.62 18.188 23.5787C18.2213 23.552 18.2373 23.5373 18.2813 23.508C18.4747 23.3747 18.752 23.2107 19.036 23.044C19.3213 22.8773 19.6133 22.708 19.8627 22.5507C19.9867 22.4707 20.1013 22.392 20.2053 22.3107C20.3107 22.2267 20.408 22.1707 20.528 21.9613C20.648 21.7507 20.648 21.6373 20.6667 21.5053C20.684 21.372 20.692 21.2373 20.6973 21.088C20.7107 20.792 20.7107 20.452 20.7107 20.12C20.7107 19.7867 20.7133 19.4627 20.7293 19.2267C20.732 19.1733 20.7373 19.152 20.7427 19.1093C20.7827 19.096 20.8013 19.088 20.852 19.076C21.0787 19.02 21.3947 18.9627 21.7187 18.9027C22.0427 18.8453 22.3733 18.788 22.6613 18.724C22.7963 18.6949 22.9298 18.6593 23.0613 18.6173C23.1893 18.576 23.3013 18.5587 23.488 18.4013C23.672 18.244 23.7093 18.136 23.7707 18.0187C23.832 17.8987 23.8867 17.7747 23.9427 17.6387C24.0547 17.364 24.168 17.044 24.2813 16.732C24.3947 16.42 24.5093 16.1147 24.604 15.8987L24.6533 15.7947C24.6933 15.7947 24.7133 15.7947 24.7627 15.808C24.9947 15.832 25.312 15.8853 25.636 15.9427C25.9587 16 26.292 16.06 26.5827 16.0987C26.7293 16.1187 26.864 16.1347 26.9973 16.14C27.1307 16.14 27.2427 16.1653 27.472 16.0813C27.7 15.9973 27.772 15.9107 27.8693 15.82C27.9703 15.7249 28.0668 15.6252 28.1587 15.5213C28.3573 15.3013 28.572 15.0413 28.784 14.7867C28.996 14.5333 29.2053 14.2853 29.3667 14.1147C29.4013 14.0787 29.42 14.0667 29.4467 14.0387H29.448ZM32 17.3307C25.748 17.3307 20.6667 22.412 20.6667 28.664C20.6667 34.916 25.748 39.9973 32 39.9973C38.252 39.9973 43.3333 34.916 43.3333 28.664C43.3333 22.412 38.252 17.3307 32 17.3307ZM32 18.588C33.3234 18.5869 34.634 18.8469 35.8568 19.3529C37.0796 19.8589 38.1906 20.6011 39.1262 21.537C40.0619 22.4729 40.8038 23.5841 41.3095 24.807C41.8152 26.03 42.0747 27.3406 42.0733 28.664C42.0747 29.9872 41.8151 31.2978 41.3094 32.5206C40.8037 33.7433 40.0617 34.8544 39.1261 35.7901C38.1904 36.7257 37.0793 37.4677 35.8566 37.9734C34.6338 38.4791 33.3232 38.7387 32 38.7373C30.6768 38.7387 29.3662 38.4791 28.1434 37.9734C26.9207 37.4677 25.8096 36.7257 24.8739 35.7901C23.9383 34.8544 23.1963 33.7433 22.6906 32.5206C22.1849 31.2978 21.9253 29.9872 21.9267 28.664C21.9253 27.3406 22.1848 26.03 22.6905 24.807C23.1962 23.5841 23.9381 22.4729 24.8738 21.537C25.8094 20.6011 26.9204 19.8589 28.1432 19.3529C29.366 18.8469 30.6766 18.5869 32 18.588ZM31.9693 22.2813C31.568 22.2813 31.3933 22.488 31.26 22.6333C31.1311 22.779 31.0176 22.9377 30.9213 23.1067C30.7147 23.452 30.512 23.8667 30.3147 24.2867C30.1173 24.7067 29.9253 25.132 29.7653 25.4533C29.6853 25.6133 29.6133 25.7507 29.56 25.8387C29.5493 25.856 29.544 25.8613 29.5333 25.8747C29.52 25.8747 29.5133 25.888 29.4947 25.888C29.3947 25.9133 29.2453 25.9413 29.068 25.968C28.712 26.0267 28.2507 26.0827 27.788 26.1453C27.328 26.208 26.868 26.2787 26.476 26.3747C26.2872 26.4167 26.1031 26.4779 25.9267 26.5573C25.7493 26.6413 25.5013 26.744 25.38 27.1253C25.2587 27.5067 25.3987 27.7347 25.4947 27.9067C25.5907 28.0773 25.708 28.22 25.8413 28.3733C26.1053 28.676 26.4387 28.9973 26.7787 29.3147C27.1187 29.6333 27.464 29.9467 27.7213 30.1973C27.8493 30.3227 27.9573 30.4333 28.024 30.5107C28.0347 30.524 28.036 30.5293 28.044 30.5413C28.044 30.5587 28.048 30.5653 28.0467 30.5853C28.0353 30.7313 28.018 30.8768 27.9947 31.0213C27.9387 31.376 27.8507 31.8293 27.768 32.2867C27.6853 32.744 27.608 33.2 27.5787 33.6013C27.5627 33.8013 27.5587 33.988 27.5827 34.1827C27.6093 34.3773 27.6293 34.644 27.956 34.8773C28.2813 35.1107 28.5413 35.0453 28.7347 35.008C28.9245 34.9662 29.1094 34.905 29.2867 34.8253C29.6573 34.668 30.0667 34.452 30.4733 34.2253C30.8813 34.0013 31.2853 33.7707 31.604 33.604C31.764 33.5213 31.9027 33.456 31.9973 33.4173C32.0173 33.404 32.024 33.404 32.0413 33.404C32.1879 33.4639 32.3321 33.5297 32.4733 33.6013C32.7947 33.764 33.1987 33.988 33.6093 34.208C34.02 34.428 34.432 34.644 34.8053 34.7973C34.992 34.8733 35.1653 34.9347 35.36 34.9707C35.5533 35.008 35.8133 35.0693 36.136 34.8307C36.4587 34.5933 36.48 34.3253 36.5027 34.1307C36.5219 33.9382 36.521 33.7443 36.5 33.552C36.4653 33.152 36.38 32.6933 36.292 32.2373C36.204 31.78 36.112 31.328 36.052 30.9733C36.0263 30.8302 36.0063 30.6861 35.992 30.5413V30.5C36.0933 30.3779 36.2001 30.2605 36.312 30.148C36.5653 29.8947 36.9093 29.5773 37.2453 29.2547C37.5813 28.9347 37.912 28.612 38.172 28.3053C38.3027 28.1507 38.416 28.0027 38.5107 27.8307C38.604 27.6573 38.744 27.432 38.6173 27.052C38.4907 26.672 38.2413 26.5693 38.0627 26.4867C37.8843 26.4087 37.6985 26.3493 37.508 26.3093C37.0739 26.2184 36.6356 26.149 36.1947 26.1013C35.7333 26.044 35.2693 25.992 34.9147 25.9413C34.7701 25.9204 34.6264 25.8937 34.484 25.8613C34.4667 25.8613 34.4627 25.848 34.448 25.848C34.4373 25.8347 34.4307 25.8293 34.4187 25.812C34.3444 25.6881 34.2751 25.5613 34.2107 25.432C34.0467 25.112 33.848 24.692 33.6453 24.2733C33.4586 23.8722 33.2522 23.4806 33.0267 23.1C32.9276 22.932 32.8114 22.7747 32.68 22.6307C32.544 22.4867 32.3693 22.284 31.9693 22.2867V22.2813ZM31.9787 23.9613C32.1227 24.2107 32.28 24.504 32.4453 24.8467C32.6427 25.252 32.8387 25.6773 33.0213 26.0333C33.112 26.212 33.1987 26.372 33.288 26.516C33.38 26.66 33.4387 26.7827 33.656 26.9373C33.8747 27.0933 34.0093 27.1093 34.1747 27.148C34.34 27.188 34.5213 27.2187 34.7187 27.248C35.116 27.3067 35.5827 27.3587 36.0307 27.4147C36.408 27.4613 36.736 27.5147 37.0173 27.5707C36.8253 27.784 36.5947 28.024 36.32 28.2867C35.9947 28.5987 35.6507 28.9173 35.3667 29.2C35.2253 29.3427 35.1 29.4733 34.9933 29.604C34.8827 29.7347 34.7813 29.828 34.7 30.084C34.62 30.3373 34.6467 30.4707 34.6613 30.64C34.6747 30.8093 34.7013 30.9907 34.7347 31.1867C34.8013 31.5827 34.8987 32.04 34.984 32.484C35.056 32.8573 35.1067 33.1853 35.14 33.4707C34.8357 33.3338 34.5364 33.1861 34.2427 33.028C33.8427 32.8147 33.4333 32.588 33.076 32.4067C32.9128 32.3221 32.746 32.2447 32.576 32.1747C32.4173 32.1107 32.296 32.044 32.0293 32.0467C31.76 32.0467 31.6427 32.1173 31.484 32.1827C31.328 32.248 31.164 32.3293 30.9867 32.4227C30.632 32.6067 30.224 32.8387 29.828 33.0573C29.4947 33.2413 29.196 33.3907 28.9347 33.5107C28.9653 33.224 29.0147 32.8947 29.0813 32.5213C29.1613 32.0773 29.2507 31.6173 29.312 31.2213C29.344 31.024 29.3653 30.844 29.3787 30.6747C29.3893 30.5053 29.4147 30.3707 29.3307 30.1173C29.2467 29.864 29.1467 29.772 29.0373 29.6427C28.9152 29.5038 28.7871 29.3703 28.6533 29.2427C28.3667 28.9627 28.02 28.6493 27.6907 28.3413C27.4467 28.1138 27.211 27.8777 26.984 27.6333C27.2667 27.5747 27.5947 27.5133 27.9707 27.464C28.4187 27.4027 28.8827 27.348 29.2787 27.284C29.476 27.252 29.656 27.2173 29.82 27.1773C29.9853 27.136 30.1227 27.12 30.3387 26.9613C30.5547 26.8013 30.6093 26.6787 30.6987 26.5347C30.7867 26.388 30.872 26.2267 30.9613 26.0467C31.1387 25.688 31.332 25.2627 31.524 24.8547C31.684 24.5107 31.8387 24.212 31.9787 23.9613ZM23.6053 42.388C23.6667 42.4973 23.7293 42.6093 23.948 42.7373C24.1973 42.8827 24.3373 42.8627 24.4787 42.8667C24.6213 42.8667 24.76 42.8533 24.9093 42.844C25.2067 42.812 25.5387 42.7533 25.8667 42.6947C26.196 42.6373 26.5187 42.58 26.7627 42.548C26.864 42.5347 26.9373 42.5267 27 42.5213C27.0453 42.5653 27.0987 42.6187 27.1693 42.6947C27.336 42.88 27.548 43.1347 27.7627 43.3907L27.8693 43.5133L25.2187 48.1067L24.6173 45.8613C24.5677 45.6782 24.4474 45.5223 24.2829 45.4278C24.1184 45.3333 23.9232 45.308 23.74 45.3573L21.5133 45.9533L23.604 42.388H23.6053ZM40.3907 42.4013L42.4787 45.9613L40.252 45.364C40.0687 45.3156 39.8736 45.3419 39.7096 45.4371C39.5456 45.5324 39.4261 45.6888 39.3773 45.872L38.776 48.112L36.1253 43.524C36.1627 43.4787 36.2 43.4413 36.2373 43.396C36.4507 43.1387 36.664 42.8853 36.8307 42.7C36.885 42.6402 36.9415 42.5824 37 42.5267C37.0627 42.5267 37.136 42.5427 37.2373 42.5533C37.4813 42.5853 37.804 42.6427 38.1333 42.7C38.4613 42.7573 38.7933 42.816 39.0907 42.8493C39.24 42.8653 39.3787 42.876 39.5213 42.872C39.6627 42.872 39.8027 42.888 40.052 42.7427C40.1974 42.6666 40.3157 42.5474 40.3907 42.4013Z" fill="white"/>
</svg>
