<svg width="48" height="48" viewBox="0 0 48 48" fill="none" xmlns="http://www.w3.org/2000/svg">
<path d="M19.3168 38.8282C20.4065 38.8282 21.2887 37.9396 21.2887 36.8563C21.2887 35.7731 20.4 34.8844 19.3168 34.8844C18.2271 34.8844 17.3449 35.7731 17.3449 36.8563C17.3449 37.9396 18.2271 38.8282 19.3168 38.8282ZM19.3168 35.5331C20.0498 35.5331 20.64 36.1298 20.64 36.8563C20.64 37.5893 20.0433 38.1796 19.3168 38.1796C18.5838 38.1796 17.9935 37.5828 17.9935 36.8563C17.9871 36.1234 18.5838 35.5331 19.3168 35.5331ZM14.0368 25.4336L18.8822 27.0682C18.9146 27.0812 18.9535 27.0877 18.986 27.0877C19.0703 27.0877 19.1546 27.0553 19.213 26.9904C19.2973 26.9061 19.3298 26.7763 19.2908 26.6596L17.7146 21.9763C18.3114 20.8477 18.6292 19.5828 18.6292 18.2985C18.6292 13.9655 15.1006 10.4434 10.7676 10.4434C6.44111 10.4434 2.91895 13.9655 2.91895 18.2985C2.91895 22.625 6.44111 26.1471 10.7676 26.1471C11.9027 26.1471 12.9989 25.9071 14.0368 25.4336ZM3.56759 18.2985C3.56759 14.3223 6.79786 11.092 10.7676 11.092C14.7438 11.092 17.9806 14.3223 17.9806 18.2985C17.9806 19.518 17.6692 20.7244 17.0789 21.7882C17.0335 21.8661 17.0271 21.9634 17.053 22.0477L18.4671 26.2444L14.1146 24.7785C14.0822 24.7655 14.0433 24.759 14.0108 24.759C13.9654 24.759 13.9135 24.772 13.8746 24.7915C12.8887 25.2585 11.8444 25.492 10.7611 25.492C6.79786 25.4985 3.56759 22.2682 3.56759 18.2985Z" fill="white" stroke="white" stroke-width="0.5"/>
<path d="M15.6194 21.0357V20.5622C15.6194 20.4713 15.6 20.387 15.5675 20.3092C15.7556 20.1211 15.8659 19.8616 15.8659 19.5827C15.8659 19.3038 15.7556 19.0508 15.5805 18.8627C15.7556 18.6746 15.8659 18.4281 15.8659 18.1492C15.8659 17.8508 15.7362 17.5784 15.5351 17.3903C15.587 17.2865 15.6194 17.1827 15.6065 17.0659C15.4183 14.88 13.6216 13.2324 11.4227 13.2324H10.4562C9.32753 13.2324 8.27672 13.667 7.48537 14.4649C6.78483 15.1654 6.35672 16.0865 6.2724 17.0659C6.25943 17.1827 6.29186 17.2865 6.34375 17.3903C6.14267 17.5784 6.01294 17.8508 6.01294 18.1492C6.01294 18.4281 6.12321 18.6746 6.30483 18.8627C6.12321 19.0508 6.01294 19.3038 6.01294 19.5827C6.01294 19.92 6.18159 20.2313 6.45402 20.4194C6.44105 20.4649 6.42807 20.5103 6.42807 20.5557V21.0227C6.42807 21.9113 7.14807 22.6313 8.03672 22.6313H14.0238C14.8929 22.6378 15.6194 21.9178 15.6194 21.0357ZM7.06375 19.92C7.01186 19.92 6.95997 19.9394 6.90807 19.9524C6.75888 19.894 6.6551 19.7513 6.6551 19.5892C6.6551 19.3686 6.83024 19.1935 7.05078 19.1935H14.8216C15.0356 19.1935 15.2108 19.3686 15.2108 19.5892C15.2108 19.7319 15.1394 19.8551 15.0162 19.9265C15.0162 19.9265 15.0162 19.9265 15.0097 19.933C14.9967 19.933 14.9837 19.9265 14.9708 19.9265H7.06375V19.92ZM6.6551 18.1557C6.6551 17.9351 6.83024 17.76 7.05078 17.76H14.8216C15.0356 17.76 15.2108 17.9351 15.2108 18.1557C15.2108 18.3762 15.0421 18.5449 14.8216 18.5449H7.05078C6.83024 18.5449 6.6551 18.3697 6.6551 18.1557ZM7.93943 14.9254C8.60105 14.2573 9.49618 13.8876 10.4497 13.8876H11.4162C13.2713 13.8876 14.7956 15.2822 14.9513 17.1113C14.9383 17.1113 14.9254 17.1178 14.9124 17.1178C14.88 17.1178 14.854 17.1113 14.8216 17.1113H7.05078C7.00537 17.1113 6.95997 17.1178 6.91456 17.1243C6.98591 16.294 7.34916 15.5157 7.93943 14.9254ZM7.06375 21.0357L7.05726 20.5686H14.9643V21.0357C14.9643 21.5611 14.5362 21.9957 14.0043 21.9957H8.01726C7.49834 21.9892 7.06375 21.5611 7.06375 21.0357Z" fill="white" stroke="white" stroke-width="0.5"/>
<path d="M45.081 33.7881C45.081 31.7968 43.7253 30.1103 41.7859 29.6757L41.3708 29.5849V18.8173V16.5471V13.226C41.3708 7.54381 36.7459 2.91895 31.0637 2.91895C25.3816 2.91895 20.7567 7.54381 20.7567 13.226V16.2033C20.7372 16.3135 20.7243 16.4303 20.7243 16.5471V18.8173C20.7243 18.9341 20.7437 19.0508 20.7567 19.1611V28.7352H7.42697C6.934 28.7352 6.46697 28.9492 6.14265 29.3189C5.81832 29.6887 5.66913 30.1816 5.734 30.6681L7.47886 43.6087C7.58913 44.4519 8.31562 45.0811 9.16535 45.0811H43.1999C44.2378 45.0811 45.081 44.2379 45.081 43.2V33.7881ZM44.4324 33.7881V36.8627L41.3448 38.186C40.6508 38.4844 40.2032 39.1589 40.2032 39.9179V44.4325H30.7329C30.9145 44.1989 31.0443 43.92 31.0832 43.6087L32.5297 32.8865C33.8724 31.9719 35.5394 30.5773 36.4151 28.8973C36.7589 29.1244 37.1481 29.2995 37.5762 29.3968L41.6497 30.3114C43.2843 30.6746 44.4324 32.1017 44.4324 33.7881ZM32.4194 29.3125C32.0951 28.9427 31.628 28.7287 31.1351 28.7287H25.9135C26.7243 28.093 27.2367 27.12 27.2367 26.0368V26.0303C28.2616 26.9514 29.5199 27.5611 31.0832 27.5611C32.6205 27.5611 33.8724 26.9579 34.8843 26.0498C34.8908 26.9903 35.2735 27.84 35.8962 28.4627C35.1762 29.9287 33.7362 31.1935 32.6399 31.9979L32.8216 30.6552C32.8929 30.1752 32.7437 29.6887 32.4194 29.3125ZM21.3989 16.2292C21.548 15.5352 22.1643 15.0098 22.9037 15.0098H23.4291V20.3546H22.9037C22.1643 20.3546 21.548 19.8292 21.3989 19.1352V16.2292ZM22.9037 14.3611C22.7805 14.3611 22.6702 14.3806 22.5535 14.3935V13.8941C22.5535 9.21732 26.361 5.40976 31.0443 5.40976C35.721 5.40976 39.5286 9.21732 39.5286 13.8941V14.3935C39.4118 14.3741 39.3016 14.3611 39.1783 14.3611H38.3351C38.1535 14.3611 38.0107 14.5038 38.0107 14.6854V14.8735C36.1297 13.92 34.8064 12.5708 34.0929 10.8389C34.054 10.7416 33.9632 10.6703 33.8594 10.6444C33.7556 10.6249 33.6453 10.6508 33.5675 10.7287C31.1805 12.973 27.9826 14.3676 24.0778 14.88V14.6919C24.0778 14.5103 23.9351 14.3676 23.7535 14.3676H22.9037V14.3611ZM40.7221 18.8173C40.7221 19.5114 40.2616 20.0887 39.6259 20.2833V19.7384C39.6259 19.5568 39.4832 19.4141 39.3016 19.4141C39.1199 19.4141 38.9772 19.5568 38.9772 19.7384V20.3611H38.6594V15.0162H39.1848C40.0345 15.0162 40.7221 15.7038 40.7221 16.5535V18.8173ZM38.0302 20.7698C38.0691 20.8995 38.1924 21.0033 38.3351 21.0033H38.9772V21.2757C38.9772 21.9957 38.5102 22.6184 37.8226 22.826L37.0832 23.0465C37.4659 22.2876 37.7772 21.5027 38.0302 20.7698ZM24.0778 15.5352C27.9826 15.0357 31.2064 13.6865 33.6713 11.5071C34.521 13.2779 35.9805 14.653 38.0043 15.6065V18.4541C37.7253 19.6671 37.174 21.6 36.201 23.3189L32.9318 24.2984C32.5751 23.8898 31.9653 23.6238 31.2778 23.6238C30.1816 23.6238 29.2929 24.2984 29.2929 25.1352C29.2929 25.9719 30.1816 26.6465 31.2778 26.6465C32.374 26.6465 33.2626 25.9719 33.2626 25.1352C33.2626 25.0508 33.2497 24.9665 33.2302 24.8887L35.6821 24.1557C34.6053 25.7125 33.1199 26.9254 31.0832 26.9254C26.348 26.9254 24.5318 20.2898 24.0778 18.2011V15.5352ZM32.614 25.1287C32.614 25.5957 31.9978 25.9914 31.2778 25.9914C30.5513 25.9914 29.9416 25.5957 29.9416 25.1287C29.9416 24.6616 30.5578 24.266 31.2778 24.266C32.0043 24.266 32.614 24.6616 32.614 25.1287ZM37.7124 28.7611C36.428 28.4757 35.5329 27.3535 35.5329 26.0433V25.4011C35.948 24.9276 36.3113 24.4087 36.6356 23.8638L38.0043 23.4552C38.9708 23.1633 39.6194 22.2876 39.6194 21.2822V20.9579C40.041 20.8735 40.4172 20.6595 40.7156 20.3676V29.4357L37.7124 28.7611ZM31.0637 3.56759C36.3891 3.56759 40.7221 7.90057 40.7221 13.226V14.9968C40.5664 14.8411 40.3783 14.7179 40.1772 14.6141V13.9006C40.1772 8.86705 36.0778 4.76759 31.0443 4.76759C26.0043 4.76759 21.9048 8.86705 21.9048 13.9006V14.6206C21.7232 14.7179 21.548 14.8346 21.3989 14.9708V13.2325C21.3989 7.90057 25.7318 3.56759 31.0637 3.56759ZM21.3989 20.4C21.788 20.7762 22.3199 21.0033 22.9037 21.0033H23.7535C23.9351 21.0033 24.0778 20.8606 24.0778 20.6789V20.653C24.5967 22.2227 25.3945 24.013 26.5881 25.3752V26.0433C26.5881 27.3146 25.7318 28.4173 24.4994 28.7352H21.4053V20.4H21.3989ZM8.12102 43.5179L6.38265 30.5773C6.34373 30.2789 6.43454 29.9741 6.63562 29.7406C6.8367 29.5071 7.1221 29.3773 7.42697 29.3773H31.1351C31.4399 29.3773 31.7253 29.5071 31.9264 29.7406C32.1275 29.9676 32.2183 30.2725 32.1794 30.5773L30.4345 43.5179C30.3632 44.0303 29.9221 44.4195 29.4032 44.426H9.16535C8.63994 44.4325 8.19237 44.0368 8.12102 43.5179ZM43.1999 44.4325H40.8583V39.9179C40.8583 39.4249 41.1502 38.9773 41.6043 38.7827L44.4324 37.5698V43.2C44.4324 43.8746 43.881 44.4325 43.1999 44.4325Z" fill="white" stroke="white" stroke-width="0.5"/>
</svg>
