<svg width="48" height="48" viewBox="0 0 48 48" fill="none" xmlns="http://www.w3.org/2000/svg">
<path d="M37.687 1.98899C36.1659 1.98899 35.0619 2.91379 35.0619 4.18799V13.7689C34.4727 13.7666 33.7447 13.7645 32.9484 13.7626C33.8583 13.0352 34.52 12.0432 34.8419 10.9235C35.1638 9.80393 35.1302 8.61197 34.7456 7.5123C34.361 6.41263 33.6445 5.45951 32.6949 4.78457C31.7454 4.10963 30.6097 3.74619 29.4447 3.74443C28.2797 3.74267 27.1429 4.10269 26.1913 4.77476C25.2398 5.44682 24.5203 6.39778 24.1324 7.49628C23.7445 8.59479 23.7073 9.78664 24.0258 10.9072C24.3444 12.0278 25.003 13.0218 25.9108 13.752C24.888 13.751 24.2108 13.7505 24.1875 13.7505C22.792 13.761 21.4429 14.2525 20.3677 15.1422C19.2925 16.0319 18.5572 17.2652 18.2857 18.6341C18.2213 18.7456 18.187 18.8719 18.1863 19.0006V19.4152C18.1811 19.4979 18.1703 19.5791 18.1685 19.6625C18.1675 19.7455 18.1735 19.8284 18.1863 19.9104V29.6881C18.2096 30.3263 18.4741 30.9318 18.9265 31.3826C19.3788 31.8333 19.9853 32.0957 20.6236 32.1168L20.6105 33.6124C20.6058 33.982 20.739 34.3401 20.9842 34.6167C21.2294 34.8933 21.5689 35.0685 21.9364 35.1082V45.0005C21.9373 45.7956 22.2538 46.5578 22.8163 47.1197C23.3788 47.6816 24.1414 47.9972 24.9365 47.9972C25.7316 47.9972 26.4942 47.6816 27.0567 47.1197C27.6192 46.5578 27.9357 45.7956 27.9366 45.0005V35.1255H29.4367V45.0005C29.4375 45.7956 29.754 46.5578 30.3166 47.1197C30.8791 47.6816 31.6417 47.9972 32.4368 47.9972C33.2319 47.9972 33.9944 47.6816 34.557 47.1197C35.1195 46.5578 35.436 45.7956 35.4369 45.0005V35.0724C35.7583 34.9901 36.0432 34.8033 36.2468 34.5413C36.4505 34.2794 36.5613 33.9573 36.5619 33.6255V22.1706C36.5624 21.9981 36.6024 21.8279 36.6787 21.6732C36.7551 21.5185 36.8658 21.3832 37.0025 21.2778L38.6968 19.9789C39.1978 19.5925 39.6037 19.0966 39.8837 18.5293C40.1637 17.9619 40.3102 17.338 40.3121 16.7053V4.18797C40.3121 2.91379 39.208 1.98899 37.687 1.98899ZM25.3115 9.37549C25.3115 8.55961 25.5534 7.76204 26.0067 7.08364C26.4599 6.40524 27.1042 5.87649 27.8579 5.56425C28.6117 5.252 29.4411 5.17029 30.2413 5.32944C31.0416 5.48859 31.7766 5.88146 32.3535 6.45837C32.9305 7.03528 33.3233 7.77031 33.4825 8.57051C33.6417 9.37072 33.56 10.2002 33.2478 10.9539C32.9356 11.7077 32.4069 12.352 31.7285 12.8053C31.0501 13.2585 30.2525 13.5005 29.4367 13.5005C28.895 13.5005 28.3585 13.3938 27.8581 13.1865C27.3576 12.9792 26.9028 12.6754 26.5198 12.2923C26.1367 11.9093 25.8329 11.4546 25.6255 10.9541C25.4182 10.4536 25.3115 9.9172 25.3115 9.37549ZM26.4366 45.0005C26.4366 45.3983 26.2785 45.7799 25.9972 46.0612C25.7159 46.3425 25.3343 46.5005 24.9365 46.5005C24.5387 46.5005 24.1571 46.3425 23.8758 46.0612C23.5945 45.7799 23.4364 45.3983 23.4364 45.0005V35.1255H26.4366V45.0005ZM33.9368 45.0005C33.9368 45.3983 33.7788 45.7799 33.4975 46.0612C33.2162 46.3425 32.8346 46.5005 32.4368 46.5005C32.0389 46.5005 31.6574 46.3425 31.3761 46.0612C31.0948 45.7799 30.9367 45.3983 30.9367 45.0005V35.1255H33.9368V45.0005ZM38.812 16.7053C38.812 17.1081 38.7193 17.5055 38.541 17.8668C38.3628 18.228 38.1038 18.5434 37.7841 18.7885L36.0898 20.0874C35.7701 20.3325 35.5111 20.6479 35.3328 21.0091C35.1546 21.3704 35.0619 21.7678 35.0619 22.1707V33.6255H22.1105L22.1265 31.7943C22.5151 31.5948 22.8423 31.2935 23.073 30.9225C23.3037 30.5516 23.4293 30.1249 23.4364 29.6881V23.1256C23.4364 22.9267 23.3574 22.7359 23.2168 22.5953C23.0761 22.4546 22.8853 22.3756 22.6864 22.3756C22.4875 22.3756 22.2967 22.4546 22.1561 22.5953C22.0154 22.7359 21.9364 22.9267 21.9364 23.1256V29.6881C21.9091 29.9606 21.7759 30.2115 21.5655 30.3868C21.3551 30.5621 21.0843 30.6479 20.8114 30.6256C20.5384 30.6479 20.2676 30.5621 20.0572 30.3868C19.8468 30.2115 19.7136 29.9606 19.6863 29.6881V19.8255L19.7947 19.9447L19.6863 19.7505V19.4423C19.777 18.3076 20.2893 17.2481 21.1222 16.4723C21.9551 15.6964 23.0483 15.2606 24.1865 15.2505C24.1865 15.2505 32.3739 15.2563 35.434 15.2704L35.4394 15.2705C35.587 15.2704 35.7331 15.2412 35.8694 15.1846C36.0058 15.1281 36.1296 15.0452 36.2339 14.9407C36.3381 14.8362 36.4207 14.7122 36.477 14.5757C36.5333 14.4393 36.5622 14.2931 36.5619 14.1455V4.18797C36.5619 3.722 37.1244 3.48898 37.687 3.48898C38.2495 3.48898 38.812 3.72198 38.812 4.18797V16.7053ZM18.7221 12.4399L18.0622 9.32221L20.2541 8.25205C20.9367 7.90803 21.4659 7.32109 21.7376 6.60665C22.0094 5.89221 22.004 5.10196 21.7226 4.39127L20.743 1.89636C20.5318 1.34043 20.1569 0.861622 19.6679 0.523143C19.1789 0.184665 18.5988 0.00242837 18.0041 0.000488285C17.6531 0.000471406 17.3051 0.0645975 16.9772 0.189706L9.61147 2.98924C9.24286 3.1296 8.90603 3.3422 8.62074 3.61455C8.33545 3.88691 8.10746 4.21353 7.95016 4.57523C7.78586 4.9492 7.69684 5.35188 7.6882 5.76027C7.67955 6.16865 7.75145 6.57473 7.89978 6.95533L9.14188 10.1187C9.35323 10.6747 9.72823 11.1536 10.2174 11.4921C10.7065 11.8306 11.2868 12.0128 11.8816 12.0147C12.3217 12.0151 12.756 11.9142 13.1509 11.72L13.3084 11.6431L16.3488 13.9462C16.5926 14.1308 16.887 14.2366 17.1926 14.2492C17.4981 14.2618 17.8002 14.1808 18.0584 14.0169C18.3166 13.853 18.5186 13.6142 18.6372 13.3323C18.7558 13.0504 18.7855 12.739 18.7221 12.4399ZM16.3522 8.48779L17.2546 12.7505L13.479 9.89059L12.4927 10.3721C12.3026 10.4657 12.0935 10.5144 11.8816 10.5147C11.5886 10.5111 11.3035 10.419 11.0638 10.2505C10.824 10.082 10.6408 9.84495 10.5382 9.57049L9.29608 6.40714C9.1421 6.02726 9.14492 5.60184 9.30392 5.22403C9.46292 4.84623 9.76515 4.54682 10.1444 4.39136L17.5101 1.59183C17.6678 1.53159 17.8352 1.50063 18.0041 1.50049C18.2969 1.50428 18.5818 1.59644 18.8214 1.7649C19.061 1.93337 19.2441 2.17027 19.3467 2.44458L20.3263 4.93946C20.4711 5.29908 20.4764 5.69977 20.3413 6.06313C20.2063 6.42649 19.9405 6.72638 19.596 6.90413L16.3522 8.48779Z" fill="white"/>
</svg>
