<svg width="48" height="48" viewBox="0 0 48 48" fill="none" xmlns="http://www.w3.org/2000/svg">
<path d="M19.6436 4.50293V4.50586C18.8031 4.47286 17.9504 4.72141 17.2412 5.25586C16.0684 6.14011 15.5565 7.60965 15.8408 9H12.75C12.3358 9.00015 12 9.33585 12 9.75V10.5H5.25C4.8358 10.5002 4.50003 10.8358 4.5 11.25V45.75C4.50003 46.1643 4.8358 46.5 5.25 46.5H33.75C34.1642 46.5 34.5 46.1643 34.5 45.75V11.25C34.5 10.8358 34.1642 10.5002 33.75 10.5H27V9.75C27 9.33585 26.6642 9.00015 26.25 9H23.168C23.429 7.713 23.0053 6.33982 21.9785 5.43457C21.3124 4.84732 20.484 4.53518 19.6436 4.50293ZM19.5879 6.00293V6.01172C20.0906 6.03122 20.5859 6.21669 20.9883 6.57129C21.7931 7.28079 21.9843 8.44703 21.4512 9.37793C21.2768 9.68423 21.339 10.0705 21.6006 10.3066H21.6035C21.6155 10.3216 21.6285 10.3269 21.6416 10.3359L21.6562 10.3506C21.6652 10.3656 21.6756 10.3665 21.6855 10.374C21.7046 10.389 21.724 10.3987 21.7441 10.4092H21.7588C21.8708 10.4707 21.9969 10.5044 22.125 10.5029H25.5V11.1299C25.4865 11.2109 25.4865 11.2945 25.5 11.376V14.1299C25.4865 14.2109 25.4865 14.2945 25.5 14.376V15.0029H13.5V14.3701C13.5135 14.2906 13.5135 14.2094 13.5 14.1299V11.3701C13.5135 11.2906 13.5135 11.2094 13.5 11.1299V10.5029H16.875C17.4665 10.5179 17.835 9.8645 17.5254 9.36035C17.5104 9.31235 17.4911 9.26473 17.4668 9.21973C17.0064 8.25073 17.2898 7.10278 18.1465 6.45703C18.5749 6.13423 19.0851 5.98388 19.5879 6.00293ZM39.75 10.5C39.3358 10.5 39 10.8358 39 11.25V13.5029H38.3555H36.75H36.7471C36.3329 13.5044 35.9984 13.8417 36 14.2559V23.2588C35.988 24.2707 37.512 24.2707 37.5 23.2588V15.0059H38.3555H39V39.7529C39 40.1671 39.3358 40.5029 39.75 40.5029H39.9434V42.7559C39.9434 43.17 40.2792 43.5059 40.6934 43.5059H41.25V46.5029H42.75V43.5059H43.3096C43.7249 43.5059 44.0598 43.1654 44.0566 42.75V40.5029H44.25C44.6642 40.5029 45 40.1671 45 39.7529V13.8955C45.0005 13.879 45.0005 13.8622 45 13.8457V11.2529C45 10.8388 44.6642 10.5029 44.25 10.5029H39.75V10.5ZM40.5 12H43.5V13.5029H40.5V12ZM6 12.0059H12V13.5059H8.25C7.8358 13.5059 7.50003 13.8417 7.5 14.2559V42.7559C7.50003 43.17 7.8358 43.5059 8.25 43.5059H30.75C31.1642 43.5059 31.5 43.17 31.5 42.7559V14.2559C31.5 13.8417 31.1642 13.5059 30.75 13.5059H27V12.0059H33V45.0059H6V12.0059ZM40.5 15H43.5V22.4971H40.5V15ZM9 15.0059H12V15.7559C12 16.17 12.3358 16.5059 12.75 16.5059H26.25C26.6642 16.5059 27 16.17 27 15.7559V15.0059H30V42.0059H9V15.0059ZM15.7646 19.5059C15.57 19.5059 15.3851 19.5913 15.249 19.7314L12.7646 22.1982L11.7861 21.2285C11.0772 20.4946 9.99058 21.5871 10.7285 22.292L12.2344 23.7891C12.5269 24.0799 12.9994 24.0799 13.292 23.7891L16.3037 20.7949C16.7946 20.3202 16.4474 19.4898 15.7646 19.5059ZM18.6855 19.5059C17.687 19.5584 17.763 21.0552 18.7617 21.0059H23.2617C24.276 21.0209 24.276 19.4915 23.2617 19.5059H18.7617C18.7364 19.5045 18.7109 19.5045 18.6855 19.5059ZM18.7031 22.5059C17.7016 22.5554 17.7779 24.0581 18.7793 24.0059H27.7207C28.7349 24.0209 28.7349 22.4915 27.7207 22.5059H18.7793C18.7539 22.5045 18.7285 22.5045 18.7031 22.5059ZM40.5 23.9971H43.5V38.9971H43.3594C43.3418 38.9965 43.3242 38.9965 43.3066 38.9971H40.6904C40.6784 38.9968 40.6651 38.9968 40.6523 38.9971H40.5V23.9971ZM15.7646 27.0059C15.57 27.0059 15.3851 27.0913 15.249 27.2314L12.7646 29.6982L11.7861 28.7285C11.0772 27.9946 9.99058 29.0871 10.7285 29.792L12.2344 31.2891C12.5269 31.5799 12.9994 31.5799 13.292 31.2891L16.3037 28.2949C16.7946 27.8202 16.4474 26.9898 15.7646 27.0059ZM18.6855 27.0059C17.6841 27.0554 17.7603 28.5581 18.7617 28.5059H23.2617C24.276 28.5209 24.276 26.9915 23.2617 27.0059H18.7617C18.7364 27.0045 18.7109 27.0045 18.6855 27.0059ZM18.7031 30.0059C17.7016 30.0554 17.7779 31.5581 18.7793 31.5059H27.7207C28.7349 31.5209 28.7349 29.9915 27.7207 30.0059H18.7793C18.7539 30.0045 18.7285 30.0045 18.7031 30.0059ZM15.7646 34.5059C15.57 34.5059 15.3851 34.5913 15.249 34.7314L12.7646 37.1982L11.7861 36.2285C11.0772 35.4946 9.99058 36.5871 10.7285 37.292L12.2344 38.7891C12.5269 39.0799 12.9994 39.0799 13.292 38.7891L16.3037 35.7949C16.7946 35.3202 16.4474 34.4898 15.7646 34.5059ZM18.6855 34.5059C17.687 34.5584 17.763 36.0552 18.7617 36.0059H23.2617C24.276 36.0209 24.276 34.4915 23.2617 34.5059H18.7617C18.7364 34.5045 18.7109 34.5045 18.6855 34.5059ZM18.7031 37.5059C17.7016 37.5554 17.7779 39.0581 18.7793 39.0059H27.7207C28.7349 39.0209 28.7349 37.4915 27.7207 37.5059H18.7793C18.7539 37.5045 18.7285 37.5045 18.7031 37.5059ZM41.4404 40.4971H42.5566V41.9971H41.4404V40.4971Z" fill="white"/>
</svg>
