<svg width="48" height="48" viewBox="0 0 48 48" fill="none" xmlns="http://www.w3.org/2000/svg">
<path d="M23.25 33H8.25C8.05109 33 7.86032 33.079 7.71967 33.2197C7.57902 33.3603 7.5 33.5511 7.5 33.75C7.5 33.9489 7.57902 34.1397 7.71967 34.2803C7.86032 34.421 8.05109 34.5 8.25 34.5H23.25C23.4489 34.5 23.6397 34.421 23.7803 34.2803C23.921 34.1397 24 33.9489 24 33.75C24 33.5511 23.921 33.3603 23.7803 33.2197C23.6397 33.079 23.4489 33 23.25 33ZM37.902 35.598L34.1895 39.3105L32.598 37.719C32.4565 37.5824 32.2671 37.5068 32.0704 37.5085C31.8738 37.5102 31.6857 37.5891 31.5466 37.7281C31.4076 37.8672 31.3287 38.0553 31.327 38.2519C31.3253 38.4486 31.4009 38.6381 31.5375 38.7795L33.6585 40.9005C33.7991 41.0411 33.9899 41.1201 34.1887 41.1201C34.3876 41.1201 34.5784 41.0411 34.719 40.9005L38.961 36.6585C39.0976 36.517 39.1732 36.3276 39.1715 36.131C39.1698 35.9343 39.0909 35.7462 38.9519 35.6071C38.8128 35.4681 38.6247 35.3892 38.4281 35.3875C38.2314 35.3858 38.042 35.4614 37.9005 35.598H37.902ZM37.5 28.773V12.75C37.4957 12.7176 37.4892 12.6855 37.4805 12.654C37.4767 12.6221 37.4707 12.5905 37.4625 12.5595C37.4333 12.4319 37.3706 12.3144 37.281 12.219L25.281 0.219C25.1854 0.128597 25.0673 0.0654145 24.939 0.036C24.9109 0.0287246 24.8823 0.0232139 24.8535 0.0195C24.8195 0.0105182 24.7849 0.00400125 24.75 0L6.75 0C5.75544 0 4.80161 0.395088 4.09835 1.09835C3.39509 1.80161 3 2.75544 3 3.75V44.25C3 45.2446 3.39509 46.1984 4.09835 46.9016C4.80161 47.6049 5.75544 48 6.75 48H36.6255C36.8 47.9974 36.9679 47.9331 37.0995 47.8185C39.2884 47.3975 41.2667 46.2384 42.7043 44.5349C44.1418 42.8313 44.9515 40.6862 44.9984 38.4576C45.0453 36.2291 44.3264 34.0519 42.9618 32.2894C41.5971 30.5269 39.6693 29.2857 37.5 28.773ZM25.5 2.5605L34.9395 12H27.75C27.1533 12 26.581 11.7629 26.159 11.341C25.7371 10.919 25.5 10.3467 25.5 9.75V2.5605ZM6.75 46.5C6.15326 46.5 5.58097 46.2629 5.15901 45.841C4.73705 45.419 4.5 44.8467 4.5 44.25V3.75C4.5 3.15326 4.73705 2.58097 5.15901 2.15901C5.58097 1.73705 6.15326 1.5 6.75 1.5H24V9.75C24 10.7446 24.3951 11.6984 25.0984 12.4017C25.8016 13.1049 26.7554 13.5 27.75 13.5H36V28.5375C35.751 28.518 35.5035 28.5 35.25 28.5C33.1345 28.4985 31.0759 29.1857 29.3856 30.4578C27.6952 31.7298 26.4649 33.5177 25.8807 35.5509C25.2965 37.5842 25.39 39.7524 26.1473 41.7278C26.9046 43.7031 28.2843 45.3783 30.078 46.5H6.75ZM35.25 46.5C33.6183 46.5 32.0233 46.0161 30.6665 45.1096C29.3098 44.2031 28.2524 42.9146 27.628 41.4071C27.0036 39.8996 26.8402 38.2408 27.1585 36.6405C27.4768 35.0402 28.2626 33.5702 29.4164 32.4164C30.5702 31.2626 32.0402 30.4768 33.6405 30.1585C35.2408 29.8402 36.8996 30.0036 38.4071 30.628C39.9146 31.2524 41.2031 32.3098 42.1096 33.6665C43.0161 35.0233 43.5 36.6183 43.5 38.25C43.4972 40.4372 42.6271 42.534 41.0806 44.0806C39.534 45.6271 37.4372 46.4972 35.25 46.5ZM7.5 24.75C7.5 24.9489 7.57902 25.1397 7.71967 25.2803C7.86032 25.421 8.05109 25.5 8.25 25.5H32.25C32.4489 25.5 32.6397 25.421 32.7803 25.2803C32.921 25.1397 33 24.9489 33 24.75C33 24.5511 32.921 24.3603 32.7803 24.2197C32.6397 24.079 32.4489 24 32.25 24H8.25C8.05109 24 7.86032 24.079 7.71967 24.2197C7.57902 24.3603 7.5 24.5511 7.5 24.75ZM26.25 28.5H8.25C8.05109 28.5 7.86032 28.579 7.71967 28.7197C7.57902 28.8603 7.5 29.0511 7.5 29.25C7.5 29.4489 7.57902 29.6397 7.71967 29.7803C7.86032 29.921 8.05109 30 8.25 30H26.25C26.4489 30 26.6397 29.921 26.7803 29.7803C26.921 29.6397 27 29.4489 27 29.25C27 29.0511 26.921 28.8603 26.7803 28.7197C26.6397 28.579 26.4489 28.5 26.25 28.5ZM14.25 13.5C14.695 13.5 15.13 13.368 15.5 13.1208C15.87 12.8736 16.1584 12.5222 16.3287 12.111C16.499 11.6999 16.5436 11.2475 16.4568 10.811C16.37 10.3746 16.1557 9.97368 15.841 9.65901C15.5263 9.34434 15.1254 9.13005 14.689 9.04323C14.2525 8.95642 13.8001 9.00097 13.389 9.17127C12.9778 9.34157 12.6264 9.62996 12.3792 9.99997C12.132 10.37 12 10.805 12 11.25C12 11.8467 12.2371 12.419 12.659 12.841C13.081 13.2629 13.6533 13.5 14.25 13.5ZM14.25 10.5C14.3983 10.5 14.5433 10.544 14.6667 10.6264C14.79 10.7088 14.8861 10.8259 14.9429 10.963C14.9997 11.1 15.0145 11.2508 14.9856 11.3963C14.9566 11.5418 14.8852 11.6754 14.7803 11.7803C14.6754 11.8852 14.5418 11.9566 14.3963 11.9856C14.2508 12.0145 14.1 11.9997 13.963 11.9429C13.8259 11.8861 13.7088 11.79 13.6264 11.6667C13.544 11.5433 13.5 11.3983 13.5 11.25C13.5 11.0511 13.579 10.8603 13.7197 10.7197C13.8603 10.579 14.0511 10.5 14.25 10.5ZM8.25 39H21.75C21.9489 39 22.1397 38.921 22.2803 38.7803C22.421 38.6397 22.5 38.4489 22.5 38.25C22.5 38.0511 22.421 37.8603 22.2803 37.7197C22.1397 37.579 21.9489 37.5 21.75 37.5H8.25C8.05109 37.5 7.86032 37.579 7.71967 37.7197C7.57902 37.8603 7.5 38.0511 7.5 38.25C7.5 38.4489 7.57902 38.6397 7.71967 38.7803C7.86032 38.921 8.05109 39 8.25 39ZM23.25 42H8.25C8.05109 42 7.86032 42.079 7.71967 42.2197C7.57902 42.3603 7.5 42.5511 7.5 42.75C7.5 42.9489 7.57902 43.1397 7.71967 43.2803C7.86032 43.421 8.05109 43.5 8.25 43.5H23.25C23.4489 43.5 23.6397 43.421 23.7803 43.2803C23.921 43.1397 24 42.9489 24 42.75C24 42.5511 23.921 42.3603 23.7803 42.2197C23.6397 42.079 23.4489 42 23.25 42ZM8.4555 13.65C8.52857 13.9172 8.56242 14.1936 8.556 14.4705C8.50015 15.1528 8.7085 15.8304 9.138 16.3635C9.67128 16.7926 10.3488 17.0009 11.031 16.9455L11.2665 16.959C11.2601 16.9837 11.2551 17.0087 11.2515 17.034V21.834C11.2516 21.9697 11.2884 22.1028 11.3582 22.2191C11.4279 22.3355 11.5279 22.4308 11.6475 22.4948C11.7671 22.5588 11.9018 22.5892 12.0373 22.5828C12.1728 22.5763 12.3041 22.5332 12.417 22.458L14.25 21.225L16.0845 22.4475C16.2074 22.5301 16.352 22.5744 16.5 22.575C16.6237 22.5751 16.7454 22.5441 16.854 22.485C16.9735 22.421 17.0734 22.3259 17.1431 22.2097C17.2128 22.0935 17.2498 21.9605 17.25 21.825V16.95L17.469 16.938C18.1512 16.9932 18.8286 16.7849 19.362 16.356C19.7918 15.8252 20.0021 15.15 19.95 14.469C19.9432 14.1921 19.9771 13.9156 20.0505 13.6485C20.1827 13.423 20.3463 13.2174 20.5365 13.038C21.0707 12.5867 21.4089 11.9457 21.48 11.25C21.4074 10.5534 21.0669 9.9123 20.5305 9.462C20.3403 9.28261 20.1767 9.07705 20.0445 8.8515C19.9714 8.58431 19.9376 8.30792 19.944 8.031C19.9998 7.34872 19.7915 6.67106 19.362 6.138C18.8296 5.70677 18.152 5.4963 17.469 5.55C17.1926 5.55735 16.9167 5.52399 16.65 5.451C16.4243 5.31902 16.2187 5.15535 16.0395 4.965C15.5881 4.42992 14.9465 4.09109 14.25 4.02C13.5521 4.09226 12.9098 4.43334 12.459 4.971C12.2799 5.16092 12.0749 5.32455 11.85 5.457C11.5828 5.52988 11.3064 5.56323 11.0295 5.556C10.3473 5.50077 9.66985 5.70905 9.1365 6.138C8.70581 6.67061 8.49588 7.34818 8.55 8.031C8.55679 8.30794 8.52293 8.58438 8.4495 8.8515C8.31731 9.07705 8.15367 9.28261 7.9635 9.462C7.42932 9.91332 7.09108 10.5543 7.02 11.25C7.09262 11.9466 7.43308 12.5877 7.9695 13.038C8.15978 13.2178 8.32343 13.4239 8.4555 13.65ZM15.75 20.4225L14.6655 19.701C14.5423 19.6188 14.3974 19.5749 14.2493 19.5749C14.1011 19.5749 13.9562 19.6188 13.833 19.701L12.7485 20.4225V17.793C13.1454 18.201 13.6803 18.446 14.2485 18.48C14.8167 18.446 15.3516 18.201 15.7485 17.793L15.75 20.4225ZM9.0645 10.4865C9.38509 10.182 9.64828 9.82223 9.8415 9.4245C9.98868 8.99463 10.0592 8.54227 10.05 8.088C10.0319 7.78445 10.0832 7.48076 10.2 7.2C10.4814 7.08346 10.7855 7.03217 11.0895 7.05C11.5441 7.05824 11.9965 6.98613 12.426 6.837C12.8236 6.64371 13.1829 6.37995 13.4865 6.0585C13.746 5.8155 14.0685 5.514 14.2515 5.514C14.4345 5.514 14.757 5.814 15.0165 6.0585C15.3203 6.3803 15.6802 6.6441 16.0785 6.837C16.5079 6.98638 16.9604 7.05849 17.415 7.05C17.719 7.03212 18.0232 7.08341 18.3045 7.2C18.4214 7.48125 18.4727 7.78545 18.4545 8.0895C18.4461 8.54456 18.5183 8.99753 18.6675 9.4275C18.8607 9.82523 19.1239 10.185 19.4445 10.4895C19.6875 10.7475 19.989 11.07 19.989 11.253C19.989 11.436 19.689 11.7585 19.4445 12.0165C19.1239 12.321 18.8607 12.6808 18.6675 13.0785C18.5181 13.5085 18.4455 13.9614 18.453 14.4165C18.4714 14.7206 18.4201 15.0248 18.303 15.306C18.0216 15.4225 17.7175 15.4738 17.4135 15.456C16.9589 15.4478 16.5065 15.5199 16.077 15.669C15.6794 15.8623 15.3201 16.1261 15.0165 16.4475C14.757 16.6905 14.4345 16.992 14.2515 16.992C14.0685 16.992 13.746 16.692 13.4865 16.4475C13.1827 16.1257 12.8228 15.8619 12.4245 15.669C11.9951 15.5196 11.5426 15.4475 11.088 15.456C10.784 15.4739 10.4798 15.4226 10.1985 15.306C10.0816 15.0248 10.0303 14.7205 10.0485 14.4165C10.0569 13.9614 9.98475 13.5085 9.8355 13.0785C9.64228 12.6808 9.37909 12.321 9.0585 12.0165C8.8155 11.7585 8.514 11.436 8.514 11.253C8.514 11.07 8.8215 10.7445 9.0645 10.4865Z" fill="white"/>
</svg>
