<svg width="48" height="48" viewBox="0 0 48 48" fill="none" xmlns="http://www.w3.org/2000/svg">
<path d="M3.56575 44.0515C3.08843 44.0434 2.6193 43.9261 2.19432 43.7086C1.64225 43.4564 1.17426 43.0509 0.846042 42.5403C0.517819 42.0297 0.343177 41.4356 0.342896 40.8286V19.8046C0.342896 15.0762 2.22126 10.5414 5.56476 7.19794C8.90827 3.85444 13.443 1.97607 18.1715 1.97607H29.7738C34.5022 1.97607 39.0369 3.85444 42.3805 7.19794C45.724 10.5414 47.6023 15.0762 47.6023 19.8046C47.6023 24.5331 45.724 29.0678 42.3805 32.4113C39.0369 35.7549 34.5022 37.6332 29.7738 37.6332H12.9189L5.48575 43.3795C4.93461 43.804 4.26134 44.0397 3.56575 44.0515ZM18.1989 5.37722C14.3736 5.38085 10.7061 6.90204 8.00117 9.60692C5.29629 12.3118 3.7751 15.9794 3.77147 19.8046V40.3761L11.2869 34.6572C11.5808 34.4003 11.953 34.2504 12.3429 34.2321H29.8012C33.4667 34.0057 36.9079 32.3901 39.4234 29.7144C41.9389 27.0388 43.3394 23.5045 43.3394 19.8321C43.3394 16.1596 41.9389 12.6254 39.4234 9.94972C36.9079 7.27407 33.4667 5.65842 29.8012 5.43207L18.1989 5.37722Z" fill="white"/>
<path d="M33.0103 18.4593H14.9897C14.5351 18.4593 14.099 18.2787 13.7776 17.9572C13.4561 17.6357 13.2755 17.1997 13.2755 16.745C13.2755 16.2904 13.4561 15.8544 13.7776 15.5329C14.099 15.2114 14.5351 15.0308 14.9897 15.0308H33.0103C33.465 15.0308 33.901 15.2114 34.2225 15.5329C34.544 15.8544 34.7246 16.2904 34.7246 16.745C34.7246 17.1997 34.544 17.6357 34.2225 17.9572C33.901 18.2787 33.465 18.4593 33.0103 18.4593ZM24.864 26.8525H14.9897C14.5351 26.8525 14.099 26.6719 13.7776 26.3504C13.4561 26.0289 13.2755 25.5928 13.2755 25.1382C13.2755 24.6835 13.4561 24.2475 13.7776 23.926C14.099 23.6045 14.5351 23.4239 14.9897 23.4239H24.864C25.3187 23.4239 25.7547 23.6045 26.0762 23.926C26.3977 24.2475 26.5783 24.6835 26.5783 25.1382C26.5783 25.5928 26.3977 26.0289 26.0762 26.3504C25.7547 26.6719 25.3187 26.8525 24.864 26.8525Z" fill="white"/>
</svg>
