<svg width="64" height="64" viewBox="0 0 64 64" fill="none" xmlns="http://www.w3.org/2000/svg">
<path d="M35.3333 21.4666C34.9333 21.4666 34.6666 21.2 34.6666 20.8V18.8C34.6666 18.4 34.9333 18.1333 35.3333 18.1333C35.7333 18.1333 36 18.4 36 18.8V20.8C36 21.2 35.7333 21.4666 35.3333 21.4666ZM39.4666 21.2C39.3333 21.2 39.2 21.2 39.2 21.0666C38.9333 20.9333 38.8 20.5333 38.9333 20.1333L39.6 18.9333C39.7333 18.6666 40.1333 18.5333 40.5333 18.6666C40.8 18.8 40.9333 19.2 40.8 19.6L40 20.9333C40 21.0666 39.7333 21.2 39.4666 21.2ZM42.8 24.5333C42.5333 24.5333 42.4 24.4 42.2666 24.1333C42.1333 23.8666 42.1333 23.4666 42.5333 23.2L43.6 22.5333C43.8666 22.4 44.2666 22.4 44.5333 22.8C44.6666 23.0666 44.6666 23.4666 44.2666 23.7333L43.2 24.4C43.0666 24.5333 42.9333 24.5333 42.8 24.5333ZM44 33.8666C43.8666 33.8666 43.7333 33.8666 43.7333 33.7333L42.5333 33.0666C42.2666 32.9333 42.1333 32.5333 42.2666 32.1333C42.4 31.8666 42.8 31.7333 43.2 31.8666L44.4 32.5333C44.6666 32.6666 44.8 33.0666 44.6666 33.4666C44.4 33.7333 44.2666 33.8666 44 33.8666ZM45.3333 28.8H42.6666C42.2666 28.8 42 28.5333 42 28.1333C42 27.7333 42.2666 27.4666 42.6666 27.4666H45.3333C45.7333 27.4666 46 27.7333 46 28.1333C46 28.5333 45.7333 28.8 45.3333 28.8ZM40.6666 30.8H36.6666C36.5333 30.8 36.2666 30.6666 36.1333 30.5333C36 30.4 36 30.2666 36 30L37.0666 24.6666C37.2 24.2666 37.4666 24.1333 37.8666 24.1333C38.2666 24.2666 38.5333 24.5333 38.4 24.9333L37.6 29.4666H40.8C41.2 29.4666 41.4666 29.7333 41.4666 30.1333C41.4666 30.5333 41.0666 30.8 40.6666 30.8Z" fill="white" stroke="white" stroke-width="0.25"/>
<path d="M39.3333 32.1333C38.9333 32.1333 38.6666 31.8666 38.6666 31.4666V27.4666C38.6666 27.0666 38.9333 26.7999 39.3333 26.7999C39.7333 26.7999 40 27.0666 40 27.4666V31.4666C40 31.8666 39.7333 32.1333 39.3333 32.1333ZM34 32.1333H30C29.7333 32.1333 29.4666 31.9999 29.3333 31.7333C29.2 31.4666 29.3333 31.1999 29.4666 31.0666L32.9333 27.7333C33.2 27.4666 33.3333 27.1999 33.3333 26.7999C33.3333 26.1333 32.6666 25.4666 32 25.4666C31.3333 25.4666 30.6666 26.1333 30.6666 26.7999C30.6666 27.1999 30.4 27.4666 30 27.4666C29.6 27.4666 29.3333 27.1999 29.3333 26.7999C29.3333 25.3333 30.5333 24.1333 32 24.1333C33.4666 24.1333 34.6666 25.3333 34.6666 26.7999C34.6666 27.4666 34.4 28.1333 33.8666 28.6666L31.6 30.7999H33.8666C34.2666 30.7999 34.5333 31.0666 34.5333 31.4666C34.5333 31.8666 34.4 32.1333 34 32.1333ZM31.0666 21.3333C30.8 21.3333 30.6666 21.1999 30.5333 20.9333L29.8666 19.8666C29.7333 19.5999 29.7333 19.1999 30.1333 18.9333C30.4 18.7999 30.8 18.7999 31.0666 19.1999L31.7333 20.2666C31.8666 20.5333 31.8666 20.9333 31.4666 21.1999C31.2 21.3333 31.0666 21.3333 31.0666 21.3333Z" fill="white" stroke="white" stroke-width="0.25"/>
<path d="M36.8 46.5334C36.2666 46.5334 35.8666 46.5334 35.3333 46.4001C32.1333 45.6001 29.3333 44.0001 27.0666 41.7334L21.6 36.2668C19.3333 34.0001 17.7333 31.0668 16.9333 28.0001C16.4 26.0001 17.0666 23.7334 18.5333 22.2668L21.0666 19.7334C21.8666 18.9334 23.0666 18.9334 23.8666 19.7334L26.8 22.6668C27.4666 23.3334 27.6 24.4001 27.0666 25.2001L25.2 28.0001C24.6666 28.8001 24.8 29.8668 25.4666 30.5334L32.8 37.8668C33.4666 38.5334 34.5333 38.6668 35.3333 38.1334L38.2666 36.1334C39.0666 35.6001 40.1333 35.7334 40.8 36.4001L43.7333 39.3334C44.5333 40.1334 44.5333 41.3334 43.7333 42.1334L41.2 44.6668C39.8666 45.8668 38.4 46.5334 36.8 46.5334ZM22.4 20.2668C22.2666 20.2668 22 20.2668 21.8666 20.4001L19.3333 22.9334C18.1333 24.1334 17.7333 25.7334 18.1333 27.3334C18.8 30.2668 20.4 32.9334 22.5333 34.9334L28 40.4001C30.1333 42.5334 32.8 44.0001 35.6 44.8001C37.2 45.2001 38.9333 44.6668 40 43.6001L42.5333 41.0668C42.8 40.8001 42.8 40.4001 42.5333 40.1334L39.6 37.2001C39.3333 36.9334 39.0666 36.9334 38.8 37.0668L36 39.2001C34.6666 40.1334 32.9333 39.8668 31.7333 38.8001L24.4 31.4668C23.3333 30.4001 23.0666 28.5334 24 27.2001L26 24.2668C26.1333 24.0001 26.1333 23.6001 25.8666 23.4668L22.9333 20.5334C22.8 20.4001 22.6666 20.2668 22.4 20.2668ZM42.4 35.8668C42.2666 35.8668 42 35.8668 41.8666 35.7334C41.6 35.4668 41.6 35.0668 41.8666 34.8001C43.6 33.0668 44.5333 30.6668 44.5333 28.2668C44.5333 23.0668 40.4 18.9334 35.2 18.9334C32.6666 18.9334 30.4 19.8668 28.6666 21.6001L28.5333 21.7334C28.2666 22.0001 27.8666 21.8668 27.6 21.6001C27.3333 21.3334 27.3333 20.9334 27.6 20.6668C29.6 18.6668 32.2666 17.6001 35.0666 17.6001C40.9333 17.6001 45.7333 22.4001 45.7333 28.2668C45.7333 31.0668 44.6666 33.7334 42.6666 35.7334C42.8 35.8668 42.5333 35.8668 42.4 35.8668Z" fill="white" stroke="white" stroke-width="0.25"/>
<path d="M24.8001 27.7334C24.6667 27.7334 24.4001 27.7334 24.2667 27.6L19.4667 22.9334C19.2001 22.6667 19.2001 22.2667 19.4667 22C19.7334 21.7334 20.1334 21.7334 20.4001 22L25.2001 26.6667C25.4667 26.9334 25.4667 27.3334 25.2001 27.6C25.2001 27.6 24.9334 27.7334 24.8001 27.7334ZM40.8001 43.7334C40.6667 43.7334 40.4001 43.7334 40.2667 43.6L35.6001 38.9334C35.3334 38.6667 35.3334 38.2667 35.6001 38C35.8667 37.7334 36.2667 37.7334 36.5334 38L41.3334 42.6667C41.6001 42.9334 41.6001 43.3334 41.3334 43.6C41.2001 43.7334 40.9334 43.7334 40.8001 43.7334Z" fill="white" stroke="white" stroke-width="0.25"/>
<path d="M32 61C16.05 61 3 47.95 3 32C3 16.05 16.05 3 32 3C47.95 3 61 16.05 61 32C61 47.95 47.95 61 32 61ZM32 4.20833C16.6542 4.20833 4.20833 16.6542 4.20833 32C4.20833 47.3458 16.6542 59.7917 32 59.7917C47.3458 59.7917 59.7917 47.3458 59.7917 32C59.7917 16.6542 47.3458 4.20833 32 4.20833Z" fill="white" stroke="white" stroke-width="0.25"/>
</svg>
