<svg width="96" height="96" viewBox="0 0 96 96" fill="none" xmlns="http://www.w3.org/2000/svg">
<path d="M12.0016 6.00149C8.70346 6.00149 6.00146 8.70349 6.00146 12.0016V76.4238C6.00146 80.5329 9.1018 83.2442 11.9957 83.7745L12.0014 88.5061C12.0116 89.6951 13.3351 90.4001 14.3276 89.7453L18.0044 87.299L21.6695 89.7453C22.6616 90.3965 23.9811 89.6926 23.9928 88.5061V83.921H58.4964C62.6256 83.921 66.0054 80.5529 66.0054 76.4238V71.9296H67.4995C68.328 71.9263 68.9969 71.2521 68.9937 70.4237V12.0016C68.9937 8.70349 66.3034 6.00149 63.0053 6.00149H12.0016ZM73.5028 6.00149C72.6732 5.99671 71.9973 6.6661 71.994 7.49566V88.5061C71.9973 89.3356 72.6732 90.005 73.5028 90.0002H88.506C89.3298 89.9969 89.9969 89.3299 90.0002 88.5061V7.49566C89.9969 6.67182 89.3298 6.00478 88.506 6.00149H73.5028ZM12.0016 9.00155H63.0055C64.6935 9.00155 66.0056 10.3136 66.0056 12.0016V68.9295H13.4958C11.7422 68.9295 10.2874 69.4782 9.00152 70.4119V12.0016C9.00152 10.3136 10.3136 9.00155 12.0016 9.00155ZM74.997 9.00155H87.0001V12.0016H82.503V15.0017H87.0001V21.0047H83.9971V23.9931H87.0001V29.9961H82.503V32.9962H87.0001V38.9963H83.9971V41.9993H87.0001V47.9994H82.503V51.0024H87.0001V57.0025H83.9971V60.0026H87.0001V66.0056H82.503V68.9939H87.0001V74.997H83.9971V77.9971H87.0001V87.0002H74.997V9.00155ZM34.127 12.0016C32.7901 12.0016 31.502 13.0309 31.502 14.4919V15.2829C27.3023 17.1681 24.096 20.9597 22.7655 25.6191C21.2236 26.0422 20.2283 27.6197 20.2283 29.2549C20.2283 31.1653 21.5787 32.9962 23.5829 32.9962H51.4213C53.4255 32.9962 54.7759 31.1653 54.7759 29.2549C54.7759 27.6188 53.7821 26.0411 52.2387 25.6191C50.9078 20.9639 47.7011 17.1727 43.5051 15.2859V14.4919C43.5051 13.0309 42.217 12.0016 40.8801 12.0016H34.127ZM34.502 15.0017H40.5051V19.4871C40.5487 21.4433 43.4618 21.4433 43.5051 19.4871V18.6902C45.9959 20.1827 47.9634 22.5741 49.0277 25.4989H47.7006C45.6986 25.4989 45.6986 28.5019 47.7006 28.5019H51.4213C51.4729 28.5019 51.7758 28.6724 51.7758 29.2549C51.7758 29.8374 51.4732 29.9961 51.4213 29.9961H23.5829C23.5313 29.9961 23.2284 29.8374 23.2284 29.2549C23.2284 28.6724 23.531 28.5019 23.5829 28.5019H27.2949C29.2969 28.5019 29.2969 25.4989 27.2949 25.4989H25.9677C27.0341 22.5735 29.0082 20.1827 31.502 18.6902V19.4871C31.4566 21.532 34.5474 21.532 34.502 19.4871L34.502 15.0017ZM35.6417 20.9696C33.6397 20.9696 33.6397 23.9725 35.6417 23.9725H39.3508C41.3528 23.9725 41.3528 20.9696 39.3508 20.9696H35.6417ZM35.4982 25.4784C33.5446 25.6159 33.684 28.5282 35.6417 28.4785H39.3508C41.3069 28.4348 41.3069 25.5218 39.3508 25.4784H35.6417C35.5941 25.4762 35.546 25.4762 35.4982 25.4784ZM20.993 34.5021V37.5021C20.9963 38.326 21.6633 38.993 22.4872 38.9963H25.6777C25.7652 39.2232 25.8526 39.4515 25.9531 39.6731L23.706 41.9202C23.1165 42.5066 23.1165 43.4607 23.706 44.0472L27.9482 48.2894C28.5344 48.877 29.4862 48.877 30.0723 48.2894L32.3194 46.0394C32.5421 46.1387 32.7682 46.2313 32.9962 46.3177V49.5053C32.9978 50.3302 33.6654 50.9991 34.4904 51.0024H40.4934C41.323 51.0055 41.9976 50.3348 41.9993 49.5053V46.3294C42.2282 46.2413 42.4497 46.1406 42.6731 46.0394L44.9232 48.2894C45.5093 48.8769 46.4611 48.8769 47.0472 48.2894L51.2895 44.0471C51.879 43.4607 51.879 42.5066 51.2895 41.9202L49.0424 39.6848C49.1429 39.4595 49.2305 39.227 49.3178 38.9963H52.4966C53.325 38.9994 53.9992 38.3305 54.0025 37.5021V34.502H51.0024V35.9962H48.3334C47.6553 35.9951 47.0607 36.4491 46.8832 37.1037C46.6723 37.8726 46.3661 38.612 45.975 39.3068C45.6444 39.8923 45.7438 40.6262 46.2181 41.1028L48.099 42.9837L45.9838 45.1107L44.0911 43.2151C43.6132 42.7364 42.874 42.6368 42.2864 42.9719C41.5939 43.368 40.8629 43.6875 40.095 43.9036C39.4482 44.0833 38.9994 44.6708 38.9963 45.3421V47.9994H35.9963V45.3304C35.9973 44.6522 35.5433 44.0577 34.8888 43.8802C34.1207 43.6691 33.3914 43.3629 32.6974 42.9719C32.1098 42.6369 31.3706 42.7364 30.8926 43.2151L29.0088 45.1107L26.8935 42.9837L28.7774 41.091C29.256 40.6131 29.3556 39.8739 29.0205 39.2863C28.6247 38.5946 28.3169 37.859 28.1006 37.0919C27.9187 36.4421 27.3252 35.9937 26.6504 35.9962H23.9931V34.502L20.993 34.5021ZM31.502 34.5021C31.502 37.7981 34.2061 40.5051 37.5021 40.5051C40.7981 40.5051 43.5051 37.7981 43.5051 34.5021H40.5051C40.5051 36.1767 39.1768 37.5021 37.5021 37.5021C35.8275 37.5021 34.502 36.1767 34.502 34.5021H31.502ZM24.0722 55.4966C22.0273 55.4513 22.0273 58.542 24.0722 58.4967H51.0024C53.0472 58.542 53.0472 55.4513 51.0024 55.4966H24.0722ZM24.0722 61.4967C22.0702 61.4967 22.0702 64.4997 24.0722 64.4997H51.0024C53.0044 64.4997 53.0044 61.4967 51.0024 61.4967H24.0722ZM13.4958 71.9296H63.0055V76.4238C63.0055 78.9428 61.0157 80.9209 58.4967 80.9209H23.9931V76.5029C23.9962 75.6745 23.3273 75.0003 22.4989 74.997H13.4958C12.6674 75.0003 11.9985 75.6745 12.0016 76.5029V80.6543C10.2423 80.048 9.00155 78.4133 9.00155 76.4238C9.00155 73.9048 10.9768 71.9296 13.4958 71.9296ZM60.1696 74.9238C60.114 74.9226 60.0581 74.9246 60.0025 74.9294H28.5019C28.4503 74.9267 28.3984 74.9267 28.3466 74.9294C26.4707 75.1365 26.6146 77.9089 28.5019 77.9207H60.0025C61.8268 77.9207 62.1032 75.2458 60.1696 74.9236V74.9238ZM15.0017 77.9971H21.0047C21.0005 80.5797 21.0047 83.1312 21.0047 85.7052L18.8338 84.2521C18.3279 83.9123 17.6668 83.9123 17.1609 84.2521L15.0017 85.6935V77.9971ZM81 82.5001C80.6022 82.5001 80.2207 82.6581 79.9394 82.9394C79.6581 83.2207 79.5 83.6023 79.5 84.0001C79.5 84.3979 79.6581 84.7795 79.9394 85.0608C80.2207 85.3421 80.6022 85.5001 81 85.5001C81.197 85.5001 81.3921 85.4613 81.5741 85.3859C81.7561 85.3106 81.9214 85.2001 82.0607 85.0608C82.2 84.9215 82.3105 84.7561 82.3859 84.5741C82.4613 84.3922 82.5001 84.1971 82.5001 84.0001C82.5001 83.6023 82.342 83.2207 82.0607 82.9394C81.7794 82.6581 81.3979 82.5001 81 82.5001Z" fill="url(#paint0_linear_40_183)"/>
<defs>
<linearGradient id="paint0_linear_40_183" x1="23.8458" y1="-97.3817" x2="-77.7829" y2="-19.9112" gradientUnits="userSpaceOnUse">
<stop stop-color="#2DD1DB"/>
<stop offset="0.60721" stop-color="#2D9CDB"/>
<stop offset="1" stop-color="#1A8ED0"/>
</linearGradient>
</defs>
</svg>
