<svg width="64" height="64" viewBox="0 0 64 64" fill="none" xmlns="http://www.w3.org/2000/svg">
<path d="M36.5 30H33.5C33.2 30 33 29.8 33 29.5V24.5C33 24.2 33.2 24 33.5 24H36.5C36.8 24 37 24.2 37 24.5V29.5C37 29.8 36.8 30 36.5 30ZM34 29H36V25H34V29Z" fill="white"/>
<path d="M39.5 30H36.5C36.2 30 36 29.8 36 29.5V18.5C36 18.2 36.2 18 36.5 18H39.5C39.8 18 40 18.2 40 18.5V29.5C40 29.8 39.8 30 39.5 30ZM37 29H39V19H37V29ZM45.5 30H42.5C42.2 30 42 29.8 42 29.5V20.5C42 20.2 42.2 20 42.5 20H45.5C45.8 20 46 20.2 46 20.5V29.5C46 29.8 45.8 30 45.5 30ZM43 29H45V21H43V29Z" fill="white"/>
<path d="M48.5 30H45.5C45.2 30 45 29.8 45 29.5V11.5C45 11.2 45.2 11 45.5 11H48.5C48.8 11 49 11.2 49 11.5V29.5C49 29.8 48.8 30 48.5 30ZM46 29H48V12H46V29ZM54.5 30H51.5C51.2 30 51 29.8 51 29.5V8.5C51 8.2 51.2 8 51.5 8H54.5C54.8 8 55 8.2 55 8.5V29.5C55 29.8 54.8 30 54.5 30ZM52 29H54V9H52V29Z" fill="white"/>
<path d="M57.5 30H54.5C54.2 30 54 29.8 54 29.5V12.5C54 12.2 54.2 12 54.5 12H57.5C57.8 12 58 12.2 58 12.5V29.5C58 29.8 57.8 30 57.5 30ZM55 29H57V13H55V29Z" fill="white"/>
<path d="M59.5 30H29.5C29.2 30 29 29.8 29 29.5C29 29.2 29.2 29 29.5 29H59.5C59.8 29 60 29.2 60 29.5C60 29.8 59.8 30 59.5 30ZM52.5 33H36.5C36.2 33 36 32.8 36 32.5C36 32.2 36.2 32 36.5 32H52.5C52.8 32 53 32.2 53 32.5C53 32.8 52.8 33 52.5 33ZM52.5 43H37.5C37.2 43 37 42.8 37 42.5C37 42.2 37.2 42 37.5 42H52.5C52.8 42 53 42.2 53 42.5C53 42.8 52.8 43 52.5 43ZM52.5 41H37.5C37.2 41 37 40.8 37 40.5C37 40.2 37.2 40 37.5 40H52.5C52.8 40 53 40.2 53 40.5C53 40.8 52.8 41 52.5 41ZM52.5 49H37.5C37.2 49 37 48.8 37 48.5C37 48.2 37.2 48 37.5 48H52.5C52.8 48 53 48.2 53 48.5C53 48.8 52.8 49 52.5 49ZM52.5 47H37.5C37.2 47 37 46.8 37 46.5C37 46.2 37.2 46 37.5 46H52.5C52.8 46 53 46.2 53 46.5C53 46.8 52.8 47 52.5 47ZM52.5 53H37.5C37.2 53 37 52.8 37 52.5C37 52.2 37.2 52 37.5 52H52.5C52.8 52 53 52.2 53 52.5C53 52.8 52.8 53 52.5 53ZM52.5 55H37.5C37.2 55 37 54.8 37 54.5C37 54.2 37.2 54 37.5 54H52.5C52.8 54 53 54.2 53 54.5C53 54.8 52.8 55 52.5 55ZM30.5 15.2C30.2 15.2 30 15 30 14.7V8.5C30 8.2 30.2 8 30.5 8C30.8 8 31 8.2 31 8.5V14.7C31 14.9 30.8 15.2 30.5 15.2Z" fill="white"/>
<path d="M30.5 31C30.2 31 30 30.8 30 30.5V20C30 19.7 30.2 19.5 30.5 19.5C30.8 19.5 31 19.7 31 20V30.5C31 30.8 30.8 31 30.5 31ZM12.5 60C12.2 60 12 59.8 12 59.5V47.5C12 47.2 12.2 47 12.5 47C12.8 47 13 47.2 13 47.5V59.5C13 59.8 12.8 60 12.5 60ZM13 24C9.7 24 7 21.3 7 18C7 14.7 9.7 12 13 12C16.3 12 19 14.7 19 18C19 21.3 16.3 24 13 24ZM13 13C10.2 13 8 15.2 8 18C8 20.8 10.2 23 13 23C15.8 23 18 20.8 18 18C18 15.2 15.8 13 13 13ZM34.5 43H31.5C31.2 43 31 42.8 31 42.5V39.5C31 39.2 31.2 39 31.5 39H34.5C34.8 39 35 39.2 35 39.5V42.5C35 42.8 34.8 43 34.5 43ZM32 42H34V40H32V42ZM34.5 49H31.5C31.2 49 31 48.8 31 48.5V45.5C31 45.2 31.2 45 31.5 45H34.5C34.8 45 35 45.2 35 45.5V48.5C35 48.8 34.8 49 34.5 49ZM32 48H34V46H32V48ZM34.5 55H31.5C31.2 55 31 54.8 31 54.5V51.5C31 51.2 31.2 51 31.5 51H34.5C34.8 51 35 51.2 35 51.5V54.5C35 54.8 34.8 55 34.5 55ZM32 54H34V52H32V54Z" fill="white"/>
<path d="M14.6 60.0001H10.3C9 60.0001 7.9 59.0001 7.8 57.7001L7.1 45.5001C7 45.2001 6.8 45.0001 6.5 45.0001C5.1 45.0001 4 43.9001 4 42.5001V30.5001C4 28.0001 6 26.0001 8.5 26.0001H18.4L29.6 14.7001C30.4 13.9001 31.7 13.8001 32.5 14.5001C33.4 15.3001 33.6 16.6001 32.9 17.5001L21 33.4001V42.5001C21 43.9001 19.9 45.0001 18.5 45.0001C18.2 45.0001 18 45.2001 17.9 45.5001L17.1 57.6001C17 59.0001 15.9 60.0001 14.6 60.0001ZM8.5 27.0001C6.6 27.0001 5 28.6001 5 30.5001V42.5001C5 43.3001 5.7 44.0001 6.5 44.0001C7.3 44.0001 8 44.6001 8.1 45.5001L8.9 57.6001C9 58.4001 9.6 59.0001 10.4 59.0001H14.7C15.5 59.0001 16.1 58.4001 16.2 57.6001L17 45.5001C17.1 44.7001 17.7 44.0001 18.6 44.0001C19.4 44.0001 20.1 43.3001 20.1 42.5001V33.2001C20.1 33.1001 20.1 33.0001 20.2 32.9001L32.2 17.0001C32.6 16.5001 32.5 15.8001 32 15.4001C31.5 15.0001 30.8 15.0001 30.4 15.5001L18.9 26.9001C18.8 27.0001 18.7 27.0001 18.5 27.0001H8.5Z" fill="white"/>
<path d="M13 34C12.8 34 12.6 33.9 12.5 33.7L10 26.7C9.90004 26.5 10 26.4 10.1 26.2C10.2 26.1 10.3 26 10.5 26H15.5C15.7 26 15.8 26.1 15.9 26.2C16 26.3 16 26.5 16 26.7L13.5 33.7C13.4 33.9 13.2 34 13 34ZM11.2 27L13 32L14.8 27H11.2Z" fill="white"/>
</svg>
