<svg width="684" height="94" viewBox="0 0 684 94" fill="none" xmlns="http://www.w3.org/2000/svg">
<path opacity="0.5" d="M38.6743 68L38.0934 68.4744L38.3184 68.75H38.6743V68ZM14.2903 38.144L14.8711 37.6696L13.5403 36.04V38.144H14.2903ZM14.2903 68V68.75H15.0403V68H14.2903ZM0.850258 68H0.100258V68.75H0.850258V68ZM0.850258 0.991999V0.241999H0.100258V0.991999H0.850258ZM14.2903 0.991999H15.0403V0.241999H14.2903V0.991999ZM14.2903 31.04H13.5403V33.1544L14.8726 31.5126L14.2903 31.04ZM38.6743 0.991999V0.241999H38.317L38.0919 0.519405L38.6743 0.991999ZM54.8983 0.991999L55.4747 1.47181L56.4984 0.241999H54.8983V0.991999ZM27.2503 34.208L26.6738 33.7282L26.2724 34.2105L26.6762 34.6907L27.2503 34.208ZM55.6663 68V68.75H57.2769L56.2403 67.5173L55.6663 68ZM39.2551 67.5256L14.8711 37.6696L13.7094 38.6184L38.0934 68.4744L39.2551 67.5256ZM13.5403 38.144V68H15.0403V38.144H13.5403ZM14.2903 67.25H0.850258V68.75H14.2903V67.25ZM1.60026 68V0.991999H0.100258V68H1.60026ZM0.850258 1.742H14.2903V0.241999H0.850258V1.742ZM13.5403 0.991999V31.04H15.0403V0.991999H13.5403ZM14.8726 31.5126L39.2566 1.46459L38.0919 0.519405L13.7079 30.5674L14.8726 31.5126ZM38.6743 1.742H54.8983V0.241999H38.6743V1.742ZM54.3218 0.512188L26.6738 33.7282L27.8267 34.6878L55.4747 1.47181L54.3218 0.512188ZM26.6762 34.6907L55.0922 68.4827L56.2403 67.5173L27.8243 33.7253L26.6762 34.6907ZM55.6663 67.25H38.6743V68.75H55.6663V67.25ZM119.323 45.44V46.19H119.958L120.062 45.5633L119.323 45.44ZM80.4425 45.44V44.69H79.6274L79.6951 45.5023L80.4425 45.44ZM84.4745 54.464L83.967 55.0162L84.4745 54.464ZM103.867 51.296V50.546H103.4L103.194 50.9646L103.867 51.296ZM118.363 51.296L119.081 51.5115L119.371 50.546H118.363V51.296ZM109.531 63.968L109.981 64.568L109.986 64.5638L109.531 63.968ZM79.6745 65.504L79.3023 66.1553L79.3147 66.162L79.6745 65.504ZM70.1705 55.808L69.5101 56.1636L69.5144 56.1714L70.1705 55.808ZM70.1705 26.912L69.5102 26.5564L70.1705 26.912ZM79.5785 17.312L79.9427 17.9676L79.5785 17.312ZM107.035 17.216L106.674 17.8736L106.678 17.876L107.035 17.216ZM116.347 26.528L115.686 26.8842L115.69 26.8905L115.693 26.8967L116.347 26.528ZM105.787 36.416V37.166H106.551L106.536 36.4021L105.787 36.416ZM102.043 28.16L101.551 28.7263L101.559 28.7337L102.043 28.16ZM84.6665 28.064L85.1638 28.6254L85.1648 28.6246L84.6665 28.064ZM80.5385 36.416L79.7961 36.3099L79.6738 37.166H80.5385V36.416ZM118.957 40.256C118.957 42.1438 118.831 43.8295 118.583 45.3167L120.062 45.5633C120.326 43.9785 120.457 42.2082 120.457 40.256H118.957ZM119.323 44.69H80.4425V46.19H119.323V44.69ZM79.6951 45.5023C80.0275 49.4906 81.4338 52.6884 83.967 55.0162L84.982 53.9118C82.7792 51.8876 81.4976 49.0694 81.1899 45.3777L79.6951 45.5023ZM83.967 55.0162C86.4843 57.3294 89.5819 58.478 93.2105 58.478V56.978C89.9272 56.978 87.2007 55.9506 84.982 53.9118L83.967 55.0162ZM93.2105 58.478C95.8152 58.478 98.0914 57.9178 100.006 56.7621C101.923 55.6052 103.43 53.8801 104.539 51.6274L103.194 50.9646C102.191 52.9999 100.866 54.4908 99.2309 55.4779C97.5937 56.4662 95.5978 56.978 93.2105 56.978V58.478ZM103.867 52.046H118.363V50.546H103.867V52.046ZM117.644 51.0805C116.155 56.0452 113.305 60.1376 109.075 63.3722L109.986 64.5638C114.46 61.1424 117.498 56.7868 119.081 51.5115L117.644 51.0805ZM109.081 63.368C104.879 66.5192 99.7 68.114 93.4985 68.114V69.614C99.969 69.614 105.478 67.9448 109.981 64.568L109.081 63.368ZM93.4985 68.114C88.4918 68.114 84.0096 67.0199 80.0344 64.846L79.3147 66.162C83.5314 68.4681 88.2652 69.614 93.4985 69.614V68.114ZM80.0466 64.8528C76.1368 62.6186 73.0658 59.4875 70.8266 55.4446L69.5144 56.1714C71.8833 60.4485 75.1482 63.7813 79.3024 66.1552L80.0466 64.8528ZM70.8309 55.4524C68.6581 51.4172 67.5605 46.7428 67.5605 41.408H66.0605C66.0605 46.9532 67.2029 51.8788 69.5102 56.1636L70.8309 55.4524ZM67.5605 41.408C67.5605 36.0076 68.6587 31.3015 70.8309 27.2676L69.5102 26.5564C67.2023 30.8425 66.0605 35.8004 66.0605 41.408H67.5605ZM70.8309 27.2676C73.0046 23.2306 76.0393 20.1362 79.9427 17.9676L79.2143 16.6564C75.0537 18.9678 71.8164 22.2734 69.5102 26.5564L70.8309 27.2676ZM79.9427 17.9676C83.8487 15.7976 88.3602 14.702 93.4985 14.702V13.202C88.1409 13.202 83.3723 14.3464 79.2143 16.6564L79.9427 17.9676ZM93.4985 14.702C98.4435 14.702 102.829 15.7651 106.674 17.8736L107.395 16.5584C103.304 14.3149 98.6655 13.202 93.4985 13.202V14.702ZM106.678 17.876C110.582 19.9825 113.58 22.9809 115.686 26.8842L117.007 26.1718C114.761 22.0111 111.551 18.8015 107.391 16.556L106.678 17.876ZM115.693 26.8967C117.862 30.7374 118.957 35.1831 118.957 40.256H120.457C120.457 34.9609 119.311 30.2546 117 26.1593L115.693 26.8967ZM106.536 36.4021C106.469 32.751 105.139 29.7868 102.526 27.5863L101.559 28.7337C103.81 30.6292 104.976 33.169 105.037 36.4299L106.536 36.4021ZM102.534 27.5937C99.9528 25.3519 96.7971 24.242 93.1145 24.242V25.742C96.4719 25.742 99.2682 26.7441 101.551 28.7263L102.534 27.5937ZM93.1145 24.242C89.6187 24.242 86.6209 25.3233 84.1682 27.5034L85.1648 28.6246C87.3201 26.7087 89.9543 25.742 93.1145 25.742V24.242ZM84.1692 27.5026C81.7696 29.6279 80.3277 32.5884 79.7961 36.3099L81.281 36.5221C81.7733 33.0756 83.0834 30.4681 85.1638 28.6254L84.1692 27.5026ZM80.5385 37.166H105.787V35.666H80.5385V37.166ZM186.157 14.816L186.848 15.1066L187.285 14.066H186.157V14.816ZM153.229 93.152V93.902H153.727L153.92 93.4426L153.229 93.152ZM138.925 93.152L138.237 92.853L137.781 93.902H138.925V93.152ZM150.445 66.656L151.132 66.955L151.259 66.6642L151.138 66.3708L150.445 66.656ZM129.133 14.816V14.066H128.013L128.439 15.1012L129.133 14.816ZM144.205 14.816L144.908 14.556L144.727 14.066H144.205V14.816ZM157.933 51.968L157.229 52.228L157.928 54.1186L158.635 52.2311L157.933 51.968ZM171.853 14.816V14.066H171.333L171.15 14.5529L171.853 14.816ZM185.465 14.5254L152.537 92.8614L153.92 93.4426L186.848 15.1066L185.465 14.5254ZM153.229 92.402H138.925V93.902H153.229V92.402ZM139.612 93.451L151.132 66.955L149.757 66.357L138.237 92.853L139.612 93.451ZM151.138 66.3708L129.826 14.5308L128.439 15.1012L149.751 66.9412L151.138 66.3708ZM129.133 15.566H144.205V14.066H129.133V15.566ZM143.501 15.076L157.229 52.228L158.636 51.708L144.908 14.556L143.501 15.076ZM158.635 52.2311L172.555 15.0791L171.15 14.5529L157.23 51.7049L158.635 52.2311ZM171.853 15.566H186.157V14.066H171.853V15.566ZM269.173 0.991999H269.923V0.241999H269.173V0.991999ZM269.173 11.84V12.59H269.923V11.84H269.173ZM241.237 11.84V11.09H240.487V11.84H241.237ZM241.237 29.024H240.487V29.774H241.237V29.024ZM262.645 29.024H263.395V28.274H262.645V29.024ZM262.645 39.68V40.43H263.395V39.68H262.645ZM241.237 39.68V38.93H240.487V39.68H241.237ZM241.237 68V68.75H241.987V68H241.237ZM227.797 68H227.047V68.75H227.797V68ZM227.797 0.991999V0.241999H227.047V0.991999H227.797ZM268.423 0.991999V11.84H269.923V0.991999H268.423ZM269.173 11.09H241.237V12.59H269.173V11.09ZM240.487 11.84V29.024H241.987V11.84H240.487ZM241.237 29.774H262.645V28.274H241.237V29.774ZM261.895 29.024V39.68H263.395V29.024H261.895ZM262.645 38.93H241.237V40.43H262.645V38.93ZM240.487 39.68V68H241.987V39.68H240.487ZM241.237 67.25H227.797V68.75H241.237V67.25ZM228.547 68V0.991999H227.047V68H228.547ZM227.797 1.742H269.173V0.241999H227.797V1.742ZM333.519 45.44V46.19H334.154L334.259 45.5633L333.519 45.44ZM294.639 45.44V44.69H293.824L293.891 45.5023L294.639 45.44ZM298.671 54.464L298.163 55.0162L298.671 54.464ZM318.063 51.296V50.546H317.596L317.39 50.9646L318.063 51.296ZM332.559 51.296L333.277 51.5115L333.567 50.546H332.559V51.296ZM323.727 63.968L324.177 64.568L324.182 64.5638L323.727 63.968ZM293.871 65.504L293.499 66.1553L293.511 66.162L293.871 65.504ZM284.367 55.808L283.706 56.1636L283.711 56.1714L284.367 55.808ZM284.367 26.912L283.706 26.5564L284.367 26.912ZM293.775 17.312L294.139 17.9676L293.775 17.312ZM321.231 17.216L320.87 17.8736L320.875 17.876L321.231 17.216ZM330.543 26.528L329.883 26.8842L329.886 26.8905L329.89 26.8967L330.543 26.528ZM319.983 36.416V37.166H320.747L320.733 36.4021L319.983 36.416ZM316.239 28.16L315.747 28.7263L315.756 28.7337L316.239 28.16ZM298.863 28.064L299.36 28.6254L299.361 28.6246L298.863 28.064ZM294.735 36.416L293.992 36.3099L293.87 37.166H294.735V36.416ZM333.153 40.256C333.153 42.1438 333.027 43.8295 332.779 45.3167L334.259 45.5633C334.523 43.9785 334.653 42.2082 334.653 40.256H333.153ZM333.519 44.69H294.639V46.19H333.519V44.69ZM293.891 45.5023C294.224 49.4906 295.63 52.6884 298.163 55.0162L299.178 53.9118C296.975 51.8876 295.694 49.0694 295.386 45.3777L293.891 45.5023ZM298.163 55.0162C300.681 57.3294 303.778 58.478 307.407 58.478V56.978C304.123 56.978 301.397 55.9506 299.178 53.9118L298.163 55.0162ZM307.407 58.478C310.011 58.478 312.288 57.9178 314.202 56.7621C316.119 55.6052 317.626 53.8801 318.736 51.6274L317.39 50.9646C316.387 52.9999 315.062 54.4908 313.427 55.4779C311.79 56.4662 309.794 56.978 307.407 56.978V58.478ZM318.063 52.046H332.559V50.546H318.063V52.046ZM331.84 51.0805C330.351 56.0452 327.501 60.1376 323.271 63.3722L324.182 64.5638C328.656 61.1424 331.695 56.7868 333.277 51.5115L331.84 51.0805ZM323.277 63.368C319.075 66.5192 313.896 68.114 307.695 68.114V69.614C314.165 69.614 319.674 67.9448 324.177 64.568L323.277 63.368ZM307.695 68.114C302.688 68.114 298.206 67.0199 294.231 64.846L293.511 66.162C297.728 68.4681 302.461 69.614 307.695 69.614V68.114ZM294.243 64.8528C290.333 62.6186 287.262 59.4875 285.023 55.4446L283.711 56.1714C286.079 60.4485 289.344 63.7813 293.499 66.1552L294.243 64.8528ZM285.027 55.4524C282.854 51.4172 281.757 46.7428 281.757 41.408H280.257C280.257 46.9532 281.399 51.8788 283.706 56.1636L285.027 55.4524ZM281.757 41.408C281.757 36.0076 282.855 31.3015 285.027 27.2676L283.706 26.5564C281.399 30.8425 280.257 35.8004 280.257 41.408H281.757ZM285.027 27.2676C287.201 23.2306 290.236 20.1362 294.139 17.9676L293.411 16.6564C289.25 18.9678 286.013 22.2734 283.706 26.5564L285.027 27.2676ZM294.139 17.9676C298.045 15.7976 302.556 14.702 307.695 14.702V13.202C302.337 13.202 297.569 14.3464 293.411 16.6564L294.139 17.9676ZM307.695 14.702C312.64 14.702 317.025 15.7651 320.87 17.8736L321.591 16.5584C317.5 14.3149 312.862 13.202 307.695 13.202V14.702ZM320.875 17.876C324.778 19.9825 327.776 22.9809 329.883 26.8842L331.203 26.1718C328.957 22.0111 325.748 18.8015 321.587 16.556L320.875 17.876ZM329.89 26.8967C332.058 30.7374 333.153 35.1831 333.153 40.256H334.653C334.653 34.9609 333.508 30.2546 331.196 26.1593L329.89 26.8967ZM320.733 36.4021C320.665 32.751 319.335 29.7868 316.722 27.5863L315.756 28.7337C318.007 30.6292 319.172 33.169 319.233 36.4299L320.733 36.4021ZM316.73 27.5937C314.149 25.3519 310.993 24.242 307.311 24.242V25.742C310.668 25.742 313.464 26.7441 315.747 28.7263L316.73 27.5937ZM307.311 24.242C303.815 24.242 300.817 25.3233 298.364 27.5034L299.361 28.6246C301.516 26.7087 304.151 25.742 307.311 25.742V24.242ZM298.365 27.5026C295.966 29.6279 294.524 32.5884 293.992 36.3099L295.477 36.5221C295.97 33.0756 297.28 30.4681 299.36 28.6254L298.365 27.5026ZM294.735 37.166H319.983V35.666H294.735V37.166ZM349.185 26.912L348.52 26.5643L348.516 26.5725L349.185 26.912ZM357.921 17.312L357.533 16.6698L357.528 16.6729L357.921 17.312ZM380.673 16.352L380.315 17.011L380.321 17.0141L380.673 16.352ZM387.873 22.4L387.269 22.8449L388.623 24.6822V22.4H387.873ZM387.873 14.816V14.066H387.123V14.816H387.873ZM401.409 14.816H402.159V14.066H401.409V14.816ZM401.409 68V68.75H402.159V68H401.409ZM387.873 68H387.123V68.75H387.873V68ZM387.873 60.224H388.623V57.8231L387.256 59.7971L387.873 60.224ZM380.673 66.464L381.025 67.1262L381.03 67.1235L380.673 66.464ZM357.921 65.408L357.52 66.0421L357.525 66.0452L357.921 65.408ZM349.185 55.712L348.514 56.0475L348.52 56.0596L349.185 55.712ZM385.953 33.056L385.293 33.4127L385.297 33.4202L385.953 33.056ZM380.769 27.68L380.388 28.3265L380.396 28.3307L380.403 28.3347L380.769 27.68ZM366.849 27.584L366.475 26.934L366.849 27.584ZM361.665 32.96L361.012 32.5898L361.009 32.5958L361.665 32.96ZM361.665 49.664L361.001 50.0133L361.007 50.0238L361.012 50.0342L361.665 49.664ZM366.849 55.136L366.46 55.7775L366.468 55.7824L366.849 55.136ZM380.769 55.232L381.135 55.8867L381.142 55.8827L381.149 55.8784L380.769 55.232ZM385.953 49.856L386.608 50.2203L386.613 50.2126L385.953 49.856ZM346.767 41.216C346.767 35.94 347.803 31.2913 349.854 27.2515L348.516 26.5725C346.343 30.8527 345.267 35.74 345.267 41.216H346.767ZM349.849 27.2596C351.969 23.2076 354.792 20.1136 358.313 17.9511L357.528 16.6729C353.754 18.9904 350.753 22.2964 348.52 26.5644L349.849 27.2596ZM358.308 17.9541C361.898 15.7882 365.89 14.702 370.305 14.702V13.202C365.631 13.202 361.368 14.3558 357.533 16.6699L358.308 17.9541ZM370.305 14.702C374.171 14.702 377.499 15.4808 380.315 17.011L381.031 15.693C377.958 14.0232 374.375 13.202 370.305 13.202V14.702ZM380.321 17.0141C383.242 18.5682 385.552 20.5142 387.269 22.8449L388.477 21.9551C386.61 19.4218 384.119 17.3358 381.025 15.6898L380.321 17.0141ZM388.623 22.4V14.816H387.123V22.4H388.623ZM387.873 15.566H401.409V14.066H387.873V15.566ZM400.659 14.816V68H402.159V14.816H400.659ZM401.409 67.25H387.873V68.75H401.409V67.25ZM388.623 68V60.224H387.123V68H388.623ZM387.256 59.7971C385.605 62.1826 383.3 64.1881 380.316 65.8045L381.03 67.1235C384.19 65.4119 386.685 63.2574 388.489 60.6509L387.256 59.7971ZM380.321 65.8018C377.438 67.3353 374.074 68.114 370.209 68.114V69.614C374.279 69.614 377.892 68.7927 381.025 67.1262L380.321 65.8018ZM370.209 68.114C365.865 68.114 361.906 66.9991 358.316 64.7708L357.525 66.0452C361.359 68.4249 365.593 69.614 370.209 69.614V68.114ZM358.321 64.7739C354.795 62.5466 351.97 59.4179 349.849 55.3644L348.52 56.0596C350.752 60.3261 353.751 63.6614 357.52 66.0421L358.321 64.7739ZM349.856 55.3766C347.803 51.2715 346.767 46.5573 346.767 41.216H345.267C345.267 46.7547 346.342 51.7045 348.514 56.0474L349.856 55.3766ZM388.623 41.408C388.623 38.0466 387.963 35.1308 386.608 32.6918L385.297 33.4202C386.502 35.5892 387.123 38.2414 387.123 41.408H388.623ZM386.613 32.6994C385.27 30.2165 383.445 28.3163 381.135 27.0253L380.403 28.3347C382.445 29.4757 384.075 31.1595 385.293 33.4126L386.613 32.6994ZM381.149 27.0335C378.859 25.6866 376.392 25.01 373.761 25.01V26.51C376.121 26.51 378.326 27.1134 380.388 28.3265L381.149 27.0335ZM373.761 25.01C371.137 25.01 368.703 25.6509 366.475 26.934L367.223 28.234C369.218 27.0851 371.393 26.51 373.761 26.51V25.01ZM366.475 26.934C364.233 28.2244 362.415 30.1194 361.012 32.5898L362.317 33.3302C363.603 31.0646 365.24 29.3756 367.223 28.234L366.475 26.934ZM361.009 32.5958C359.655 35.0327 358.995 37.9157 358.995 41.216H360.495C360.495 38.1163 361.114 35.4953 362.32 33.3242L361.009 32.5958ZM358.995 41.216C358.995 44.5177 359.656 47.4571 361.001 50.0133L362.328 49.3147C361.114 47.0069 360.495 44.3143 360.495 41.216H358.995ZM361.012 50.0342C362.413 52.5019 364.228 54.4244 366.46 55.7774L367.237 54.4946C365.246 53.2876 363.604 51.5621 362.317 49.2938L361.012 50.0342ZM366.468 55.7824C368.755 57.1275 371.19 57.806 373.761 57.806V56.306C371.468 56.306 369.294 55.7044 367.229 54.4895L366.468 55.7824ZM373.761 57.806C376.385 57.806 378.847 57.1653 381.135 55.8867L380.403 54.5773C378.339 55.7307 376.129 56.306 373.761 56.306V57.806ZM381.149 55.8784C383.446 54.5276 385.266 52.6358 386.608 50.2202L385.297 49.4918C384.079 51.6842 382.444 53.3764 380.388 54.5855L381.149 55.8784ZM386.613 50.2126C387.963 47.7141 388.623 44.7703 388.623 41.408H387.123C387.123 44.5737 386.502 47.2619 385.293 49.4994L386.613 50.2126ZM435.943 25.856V25.106H435.193V25.856H435.943ZM437.191 55.52L436.661 56.0503L436.681 56.0707L436.703 56.0894L437.191 55.52ZM447.847 56.672H448.597V55.922H447.847V56.672ZM447.847 68V68.75H448.597V68H447.847ZM422.407 25.856H423.157V25.106H422.407V25.856ZM416.071 25.856H415.321V26.606H416.071V25.856ZM416.071 14.816V14.066H415.321V14.816H416.071ZM422.407 14.816V15.566H423.157V14.816H422.407ZM422.407 1.664V0.913996H421.657V1.664H422.407ZM435.943 1.664H436.693V0.913996H435.943V1.664ZM435.943 14.816H435.193V15.566H435.943V14.816ZM447.847 14.816H448.597V14.066H447.847V14.816ZM447.847 25.856V26.606H448.597V25.856H447.847ZM435.193 25.856V51.584H436.693V25.856H435.193ZM435.193 51.584C435.193 53.4727 435.63 55.019 436.661 56.0503L437.722 54.9897C437.089 54.357 436.693 53.2793 436.693 51.584H435.193ZM436.703 56.0894C437.804 57.0334 439.5 57.422 441.607 57.422V55.922C439.619 55.922 438.37 55.5426 437.679 54.9506L436.703 56.0894ZM441.607 57.422H447.847V55.922H441.607V57.422ZM447.097 56.672V68H448.597V56.672H447.097ZM447.847 67.25H439.399V68.75H447.847V67.25ZM439.399 67.25C433.846 67.25 429.819 65.9006 427.178 63.3341C424.541 60.7715 423.157 56.8708 423.157 51.488H421.657C421.657 57.1132 423.106 61.4685 426.133 64.4099C429.155 67.3474 433.625 68.75 439.399 68.75V67.25ZM423.157 51.488V25.856H421.657V51.488H423.157ZM422.407 25.106H416.071V26.606H422.407V25.106ZM416.821 25.856V14.816H415.321V25.856H416.821ZM416.071 15.566H422.407V14.066H416.071V15.566ZM423.157 14.816V1.664H421.657V14.816H423.157ZM422.407 2.414H435.943V0.913996H422.407V2.414ZM435.193 1.664V14.816H436.693V1.664H435.193ZM435.943 15.566H447.847V14.066H435.943V15.566ZM447.097 14.816V25.856H448.597V14.816H447.097ZM447.847 25.106H435.943V26.606H447.847V25.106ZM513.482 14.816H514.232V14.066H513.482V14.816ZM513.482 68V68.75H514.232V68H513.482ZM499.946 68H499.196V68.75H499.946V68ZM499.946 61.28H500.696V59.03L499.346 60.83L499.946 61.28ZM493.13 66.752L493.446 67.4321L493.453 67.4289L493.13 66.752ZM473.066 66.08L472.7 66.7345L472.71 66.7399L473.066 66.08ZM465.482 58.304L464.816 58.6492L464.82 58.6567L464.824 58.664L465.482 58.304ZM462.794 14.816V14.066H462.044V14.816H462.794ZM476.234 14.816H476.984V14.066H476.234V14.816ZM479.402 53.888L478.849 54.3948L478.856 54.4025L479.402 53.888ZM496.778 53.888L497.324 54.4026L497.331 54.3948L496.778 53.888ZM499.946 14.816V14.066H499.196V14.816H499.946ZM512.732 14.816V68H514.232V14.816H512.732ZM513.482 67.25H499.946V68.75H513.482V67.25ZM500.696 68V61.28H499.196V68H500.696ZM499.346 60.83C497.697 63.0292 495.523 64.7788 492.807 66.0751L493.453 67.4289C496.369 66.0372 498.739 64.1388 500.546 61.73L499.346 60.83ZM492.814 66.072C490.168 67.3025 487.269 67.922 484.106 67.922V69.422C487.471 69.422 490.588 68.7615 493.446 67.432L492.814 66.072ZM484.106 67.922C480.052 67.922 476.498 67.0809 473.422 65.4201L472.71 66.7399C476.034 68.5351 479.84 69.422 484.106 69.422V67.922ZM473.432 65.4256C470.362 63.7062 467.932 61.2195 466.14 57.944L464.824 58.664C466.744 62.1725 469.37 64.8698 472.7 66.7344L473.432 65.4256ZM466.148 57.9588C464.422 54.6301 463.544 50.6575 463.544 46.016H462.044C462.044 50.8465 462.958 55.0659 464.816 58.6492L466.148 57.9588ZM463.544 46.016V14.816H462.044V46.016H463.544ZM462.794 15.566H476.234V14.066H462.794V15.566ZM475.484 14.816V44.096H476.984V14.816H475.484ZM475.484 44.096C475.484 48.4407 476.571 51.91 478.849 54.3948L479.955 53.3812C478.009 51.258 476.984 48.1993 476.984 44.096H475.484ZM478.856 54.4025C481.136 56.8205 484.229 57.998 488.042 57.998V56.498C484.559 56.498 481.892 55.4355 479.948 53.3735L478.856 54.4025ZM488.042 57.998C491.915 57.998 495.041 56.8232 497.324 54.4025L496.232 53.3735C494.291 55.4328 491.593 56.498 488.042 56.498V57.998ZM497.331 54.3948C499.609 51.91 500.696 48.4407 500.696 44.096H499.196C499.196 48.1993 498.171 51.258 496.225 53.3812L497.331 54.3948ZM500.696 44.096V14.816H499.196V44.096H500.696ZM499.946 15.566H513.482V14.066H499.946V15.566ZM545.943 23.072H545.193V25.7282L546.582 23.4643L545.943 23.072ZM552.663 16.448L552.292 15.7959L552.286 15.7996L552.663 16.448ZM562.263 14.048H563.013V13.298H562.263V14.048ZM562.263 28.16V28.91H563.013V28.16H562.263ZM549.111 31.136L548.605 30.5817L548.597 30.5894L549.111 31.136ZM545.943 68V68.75H546.693V68H545.943ZM532.503 68H531.753V68.75H532.503V68ZM532.503 14.816V14.066H531.753V14.816H532.503ZM545.943 14.816H546.693V14.066H545.943V14.816ZM546.582 23.4643C548.248 20.7499 550.399 18.6316 553.04 17.0964L552.286 15.7996C549.422 17.4644 547.094 19.7621 545.304 22.6797L546.582 23.4643ZM553.033 17.1001C555.725 15.5709 558.794 14.798 562.263 14.798V13.298C558.563 13.298 555.233 14.1251 552.292 15.7959L553.033 17.1001ZM561.513 14.048V28.16H563.013V14.048H561.513ZM562.263 27.41H558.711V28.91H562.263V27.41ZM558.711 27.41C554.38 27.41 550.969 28.4264 548.605 30.5818L549.616 31.6902C551.604 29.8776 554.593 28.91 558.711 28.91V27.41ZM548.597 30.5894C546.257 32.7876 545.193 36.5062 545.193 41.504H546.693C546.693 36.6458 547.74 33.4524 549.624 31.6826L548.597 30.5894ZM545.193 41.504V68H546.693V41.504H545.193ZM545.943 67.25H532.503V68.75H545.943V67.25ZM533.253 68V14.816H531.753V68H533.253ZM532.503 15.566H545.943V14.066H532.503V15.566ZM545.193 14.816V23.072H546.693V14.816H545.193ZM626.131 45.44V46.19H626.767L626.871 45.5633L626.131 45.44ZM587.251 45.44V44.69H586.436L586.504 45.5023L587.251 45.44ZM591.283 54.464L590.776 55.0162L591.283 54.464ZM610.675 51.296V50.546H610.209L610.002 50.9646L610.675 51.296ZM625.171 51.296L625.89 51.5115L626.179 50.546H625.171V51.296ZM616.339 63.968L616.789 64.568L616.795 64.5638L616.339 63.968ZM586.483 65.504L586.111 66.1553L586.123 66.162L586.483 65.504ZM576.979 55.808L576.319 56.1636L576.323 56.1714L576.979 55.808ZM576.979 26.912L576.319 26.5564L576.979 26.912ZM586.387 17.312L586.751 17.9676L586.387 17.312ZM613.843 17.216L613.483 17.8736L613.487 17.876L613.843 17.216ZM623.155 26.528L622.495 26.8842L622.499 26.8905L622.502 26.8967L623.155 26.528ZM612.595 36.416V37.166H613.359L613.345 36.4021L612.595 36.416ZM608.851 28.16L608.359 28.7263L608.368 28.7337L608.851 28.16ZM591.475 28.064L591.973 28.6254L591.974 28.6246L591.475 28.064ZM587.347 36.416L586.605 36.3099L586.482 37.166H587.347V36.416ZM625.765 40.256C625.765 42.1438 625.639 43.8295 625.391 45.3167L626.871 45.5633C627.135 43.9785 627.265 42.2082 627.265 40.256H625.765ZM626.131 44.69H587.251V46.19H626.131V44.69ZM586.504 45.5023C586.836 49.4906 588.243 52.6884 590.776 55.0162L591.791 53.9118C589.588 51.8876 588.306 49.0694 587.999 45.3777L586.504 45.5023ZM590.776 55.0162C593.293 57.3294 596.391 58.478 600.019 58.478V56.978C596.736 56.978 594.009 55.9506 591.791 53.9118L590.776 55.0162ZM600.019 58.478C602.624 58.478 604.9 57.9178 606.815 56.7621C608.731 55.6052 610.239 53.8801 611.348 51.6274L610.002 50.9646C609 52.9999 607.675 54.4908 606.04 55.4779C604.402 56.4662 602.406 56.978 600.019 56.978V58.478ZM610.675 52.046H625.171V50.546H610.675V52.046ZM624.453 51.0805C622.963 56.0452 620.114 60.1376 615.884 63.3722L616.795 64.5638C621.269 61.1424 624.307 56.7868 625.89 51.5115L624.453 51.0805ZM615.889 63.368C611.688 66.5192 606.509 68.114 600.307 68.114V69.614C606.778 69.614 612.287 67.9448 616.789 64.568L615.889 63.368ZM600.307 68.114C595.301 68.114 590.818 67.0199 586.843 64.846L586.123 66.162C590.34 68.4681 595.074 69.614 600.307 69.614V68.114ZM586.855 64.8528C582.946 62.6186 579.874 59.4875 577.635 55.4446L576.323 56.1714C578.692 60.4485 581.957 63.7813 586.111 66.1552L586.855 64.8528ZM577.64 55.4524C575.467 51.4172 574.369 46.7428 574.369 41.408H572.869C572.869 46.9532 574.012 51.8788 576.319 56.1636L577.64 55.4524ZM574.369 41.408C574.369 36.0076 575.467 31.3015 577.64 27.2676L576.319 26.5564C574.011 30.8425 572.869 35.8004 572.869 41.408H574.369ZM577.64 27.2676C579.813 23.2306 582.848 20.1362 586.751 17.9676L586.023 16.6564C581.862 18.9678 578.625 22.2734 576.319 26.5564L577.64 27.2676ZM586.751 17.9676C590.657 15.7976 595.169 14.702 600.307 14.702V13.202C594.95 13.202 590.181 14.3464 586.023 16.6564L586.751 17.9676ZM600.307 14.702C605.252 14.702 609.638 15.7651 613.483 17.8736L614.204 16.5584C610.113 14.3149 605.474 13.202 600.307 13.202V14.702ZM613.487 17.876C617.39 19.9825 620.389 22.9809 622.495 26.8842L623.815 26.1718C621.57 22.0111 618.36 18.8015 614.199 16.556L613.487 17.876ZM622.502 26.8967C624.67 30.7374 625.765 35.1831 625.765 40.256H627.265C627.265 34.9609 626.12 30.2546 623.808 26.1593L622.502 26.8967ZM613.345 36.4021C613.277 32.751 611.947 29.7868 609.334 27.5863L608.368 28.7337C610.619 30.6292 611.785 33.169 611.845 36.4299L613.345 36.4021ZM609.343 27.5937C606.762 25.3519 603.606 24.242 599.923 24.242V25.742C603.281 25.742 606.077 26.7441 608.359 28.7263L609.343 27.5937ZM599.923 24.242C596.427 24.242 593.43 25.3233 590.977 27.5034L591.974 28.6246C594.129 26.7087 596.763 25.742 599.923 25.742V24.242ZM590.978 27.5026C588.578 29.6279 587.136 32.5884 586.605 36.3099L588.09 36.5221C588.582 33.0756 589.892 30.4681 591.973 28.6254L590.978 27.5026ZM587.347 37.166H612.595V35.666H587.347V37.166ZM650.725 66.56L650.41 67.2407L650.421 67.2454L650.725 66.56ZM642.469 60.128L641.866 60.5734L641.873 60.5825L642.469 60.128ZM639.205 51.2V50.45H638.41L638.457 51.244L639.205 51.2ZM652.741 51.2L653.485 51.107L653.403 50.45H652.741V51.2ZM655.717 56.288L655.257 56.8801L655.267 56.888L655.717 56.288ZM668.293 56.768L667.865 56.1523L667.858 56.1568L667.852 56.1614L668.293 56.768ZM667.813 48.992L667.468 49.6578L667.483 49.6654L667.497 49.6723L667.813 48.992ZM659.461 46.112L659.654 45.3873L659.646 45.3851L659.638 45.383L659.461 46.112ZM649.669 43.136L649.385 43.8299L649.391 43.8324L649.669 43.136ZM643.141 38.432L642.569 38.9173L642.578 38.9271L643.141 38.432ZM642.949 21.824L642.338 21.3895L642.33 21.4005L642.949 21.824ZM650.245 16.064L649.943 15.3775L649.938 15.3798L650.245 16.064ZM676.645 18.752L676.16 19.3242L676.166 19.329L676.645 18.752ZM682.885 31.52V32.27H683.691L683.633 31.4666L682.885 31.52ZM670.021 31.52L669.274 31.5879L669.336 32.27H670.021V31.52ZM667.333 26.528L666.853 27.1042L666.866 27.1149L666.879 27.1251L667.333 26.528ZM655.429 25.952L655.013 25.328L655.006 25.3327L654.999 25.3376L655.429 25.952ZM656.197 33.824L655.843 34.4851L655.852 34.4901L655.862 34.4948L656.197 33.824ZM664.549 36.608L664.364 37.3349L664.367 37.3356L664.549 36.608ZM680.485 44.384L679.906 44.8608L679.914 44.8701L679.922 44.8791L680.485 44.384ZM683.365 52.832H684.115L684.115 52.8184L683.365 52.832ZM680.773 61.088L680.162 60.6535L680.154 60.6645L680.773 61.088ZM673.477 66.848L673.773 67.5374L673.779 67.5345L673.477 66.848ZM662.437 68.114C658.174 68.114 654.377 67.3621 651.03 65.8746L650.421 67.2454C653.986 68.8299 657.996 69.614 662.437 69.614V68.114ZM651.04 65.8794C647.681 64.3241 645.031 62.2525 643.066 59.6735L641.873 60.5825C644.004 63.3795 646.858 65.5959 650.41 67.2406L651.04 65.8794ZM643.073 59.6826C641.173 57.1088 640.137 54.2716 639.954 51.156L638.457 51.244C638.657 54.6564 639.798 57.7712 641.866 60.5734L643.073 59.6826ZM639.205 51.95H652.741V50.45H639.205V51.95ZM651.997 51.293C652.279 53.5513 653.382 55.4221 655.257 56.88L656.178 55.696C654.596 54.4659 653.715 52.9447 653.485 51.107L651.997 51.293ZM655.267 56.888C657.21 58.3453 659.584 59.054 662.341 59.054V57.554C659.851 57.554 657.808 56.9187 656.167 55.688L655.267 56.888ZM662.341 59.054C664.989 59.054 667.151 58.5264 668.734 57.3745L667.852 56.1614C666.62 57.0576 664.814 57.554 662.341 57.554V59.054ZM668.722 57.3837C670.367 56.2392 671.251 54.7101 671.251 52.832H669.751C669.751 54.1539 669.164 55.2488 667.865 56.1523L668.722 57.3837ZM671.251 52.832C671.251 51.8312 670.989 50.9252 670.444 50.1459C669.902 49.3726 669.114 48.7689 668.129 48.3117L667.497 49.6723C668.305 50.0471 668.86 50.4994 669.215 51.0061C669.565 51.5068 669.751 52.1048 669.751 52.832H671.251ZM668.159 48.3262C666.354 47.3907 663.505 46.414 659.654 45.3873L659.268 46.8367C663.098 47.858 665.816 48.8013 667.468 49.6578L668.159 48.3262ZM659.638 45.383C655.69 44.4279 652.463 43.4457 649.948 42.4396L649.391 43.8324C651.996 44.8743 655.297 45.8761 659.285 46.841L659.638 45.383ZM649.954 42.4421C647.569 41.4639 645.488 39.9658 643.705 37.9369L642.578 38.9271C644.507 41.1222 646.777 42.7601 649.385 43.8299L649.954 42.4421ZM643.713 37.9468C642.066 36.006 641.203 33.3475 641.203 29.888H639.703C639.703 33.5965 640.632 36.634 642.569 38.9172L643.713 37.9468ZM641.203 29.888C641.203 27.0953 641.99 24.5549 643.568 22.2475L642.33 21.4005C640.581 23.9571 639.703 26.7927 639.703 29.888H641.203ZM643.561 22.2584C645.2 19.9509 647.519 18.11 650.552 16.7482L649.938 15.3798C646.699 16.834 644.154 18.8331 642.338 21.3896L643.561 22.2584ZM650.547 16.7505C653.633 15.3927 657.27 14.702 661.477 14.702V13.202C657.108 13.202 653.257 13.9193 649.943 15.3775L650.547 16.7505ZM661.477 14.702C667.687 14.702 672.554 16.2681 676.16 19.3242L677.13 18.1798C673.184 14.8359 667.94 13.202 661.477 13.202V14.702ZM676.166 19.329C679.769 22.3209 681.766 26.3792 682.137 31.5734L683.633 31.4666C683.236 25.9088 681.074 21.4551 677.124 18.175L676.166 19.329ZM682.885 30.77H670.021V32.27H682.885V30.77ZM670.768 31.4521C670.558 29.1434 669.565 27.282 667.787 25.9309L666.879 27.1251C668.302 28.206 669.1 29.6726 669.274 31.5879L670.768 31.4521ZM667.813 25.9518C666.105 24.5285 663.837 23.858 661.093 23.858V25.358C663.597 25.358 665.489 25.9675 666.853 27.1042L667.813 25.9518ZM661.093 23.858C658.583 23.858 656.528 24.318 655.013 25.328L655.845 26.576C657.018 25.7939 658.739 25.358 661.093 25.358V23.858ZM654.999 25.3376C653.513 26.3779 652.759 27.8583 652.759 29.696H654.259C654.259 28.3337 654.786 27.3181 655.859 26.5664L654.999 25.3376ZM652.759 29.696C652.759 30.7235 653.018 31.6604 653.553 32.4813C654.084 33.2973 654.862 33.9595 655.843 34.4851L656.551 33.1629C655.74 32.7284 655.174 32.2227 654.81 31.6627C654.448 31.1076 654.259 30.4605 654.259 29.696H652.759ZM655.862 34.4948C657.728 35.4279 660.575 36.3716 664.364 37.3349L664.734 35.8811C660.971 34.9244 658.25 34.0121 656.533 33.1532L655.862 34.4948ZM664.367 37.3356C668.187 38.2905 671.317 39.2723 673.769 40.2779L674.338 38.8901C671.797 37.8477 668.592 36.8455 664.731 35.8804L664.367 37.3356ZM673.769 40.2779C676.145 41.2528 678.189 42.7759 679.906 44.8608L681.064 43.9072C679.197 41.6401 676.954 39.9632 674.338 38.8901L673.769 40.2779ZM679.922 44.8791C681.633 46.8268 682.554 49.457 682.615 52.8456L684.115 52.8184C684.049 49.167 683.049 46.1652 681.049 43.8889L679.922 44.8791ZM682.615 52.832C682.615 55.7533 681.797 58.3525 680.162 60.6536L681.385 61.5224C683.206 58.9595 684.115 56.0547 684.115 52.832H682.615ZM680.154 60.6645C678.583 62.961 676.271 64.7993 673.175 66.1615L673.779 67.5345C677.083 66.0807 679.635 64.079 681.392 61.5115L680.154 60.6645ZM673.182 66.1586C670.159 67.4543 666.583 68.114 662.437 68.114V69.614C666.739 69.614 670.524 68.9297 673.773 67.5374L673.182 66.1586Z" fill="url(#paint0_linear_1332_12091)"/>
<defs>
<linearGradient id="paint0_linear_1332_12091" x1="141.43" y1="-149.462" x2="90.1892" y2="106.273" gradientUnits="userSpaceOnUse">
<stop stop-color="#2DD1DB"/>
<stop offset="0.60721" stop-color="#2D9CDB"/>
<stop offset="1" stop-color="#1A8ED0"/>
</linearGradient>
</defs>
</svg>
