<svg width="96" height="96" viewBox="0 0 96 96" fill="none" xmlns="http://www.w3.org/2000/svg">
<path fill-rule="evenodd" clip-rule="evenodd" d="M8.00193 6.00196C7.73913 6.00173 7.47886 6.05329 7.236 6.15369C6.99314 6.25409 6.77244 6.40137 6.58653 6.5871C6.40061 6.77284 6.25312 6.99339 6.15248 7.23615C6.05184 7.47892 6.00003 7.73913 6 8.00193V87.999C6.00003 88.2618 6.05184 88.522 6.15248 88.7648C6.25312 89.0075 6.40061 89.2281 6.58653 89.4138C6.77244 89.5995 6.99314 89.7468 7.236 89.8472C7.47886 89.9476 7.73913 89.9992 8.00193 89.999H87.997C88.5277 89.999 89.0367 89.7881 89.4119 89.4129C89.7872 89.0376 89.998 88.5287 89.998 87.998C89.998 87.4673 89.7872 86.9584 89.4119 86.5831C89.0367 86.2079 88.5277 85.9971 87.997 85.9971H10.0019V81.9971H12.0019C12.2649 81.9975 12.5254 81.946 12.7684 81.8456C13.0115 81.7452 13.2324 81.5978 13.4185 81.412C13.6046 81.2262 13.7522 81.0054 13.8529 80.7625C13.9537 80.5196 14.0055 80.2591 14.0055 79.9962C14.0055 79.7332 13.9537 79.4727 13.8529 79.2298C13.7522 78.9869 13.6046 78.7662 13.4185 78.5803C13.2324 78.3945 13.0115 78.2471 12.7684 78.1467C12.5254 78.0463 12.2649 77.9949 12.0019 77.9952H10.0019V74.0031H12.0019C12.5326 74.0031 13.0415 73.7922 13.4168 73.417C13.792 73.0417 14.0028 72.5328 14.0028 72.0021C14.0028 71.4714 13.792 70.9625 13.4168 70.5872C13.0415 70.212 12.5326 70.0012 12.0019 70.0012H10.0019V66.0012H12.0019C12.5326 66.0012 13.0415 65.7904 13.4168 65.4151C13.792 65.0399 14.0028 64.5309 14.0028 64.0003C14.0028 63.4696 13.792 62.9606 13.4168 62.5854C13.0415 62.2101 12.5326 61.9993 12.0019 61.9993H10.0019V57.9994H12.0019C12.5326 57.9994 13.0415 57.7885 13.4168 57.4133C13.792 57.038 14.0028 56.5291 14.0028 55.9984C14.0028 55.4677 13.792 54.9588 13.4168 54.5835C13.0415 54.2083 12.5326 53.9975 12.0019 53.9975H10.0019V49.9975H12.0019C12.5326 49.9975 13.0415 49.7867 13.4168 49.4114C13.792 49.0362 14.0028 48.5272 14.0028 47.9965C14.0028 47.4659 13.792 46.9569 13.4168 46.5817C13.0415 46.2064 12.5326 45.9956 12.0019 45.9956H10.0019V42.0035H12.0019C12.5326 42.0035 13.0415 41.7926 13.4168 41.4174C13.792 41.0421 14.0028 40.5332 14.0028 40.0025C14.0028 39.4718 13.792 38.9629 13.4168 38.5876C13.0415 38.2124 12.5326 38.0016 12.0019 38.0016H10.0019V34.0016H12.0019C12.5326 34.0016 13.0415 33.7908 13.4168 33.4155C13.792 33.0403 14.0028 32.5313 14.0028 32.0007C14.0028 31.47 13.792 30.961 13.4168 30.5858C13.0415 30.2105 12.5326 29.9997 12.0019 29.9997H10.0019V25.9978H12.0019C12.2683 26.0037 12.5331 25.9563 12.7809 25.8585C13.0288 25.7606 13.2545 25.6143 13.445 25.428C13.6355 25.2417 13.7868 25.0192 13.8902 24.7736C13.9935 24.528 14.0467 24.2643 14.0467 23.9978C14.0467 23.7314 13.9935 23.4676 13.8902 23.222C13.7868 22.9765 13.6355 22.754 13.445 22.5677C13.2545 22.3814 13.0288 22.235 12.7809 22.1372C12.5331 22.0393 12.2683 21.9919 12.0019 21.9979H10.0019V17.9959H12.0019C12.2748 18.0135 12.5484 17.9748 12.8057 17.8824C13.0631 17.7901 13.2988 17.6459 13.4983 17.4588C13.6977 17.2717 13.8567 17.0458 13.9654 16.7948C14.0741 16.5439 14.1301 16.2733 14.1301 15.9999C14.1301 15.7264 14.0741 15.4559 13.9654 15.2049C13.8567 14.954 13.6977 14.728 13.4983 14.541C13.2988 14.3539 13.0631 14.2097 12.8057 14.1173C12.5484 14.0249 12.2748 13.9863 12.0019 14.0038H10.0019V10.0019H12.0019C12.2683 10.0078 12.5331 9.96046 12.7809 9.8626C13.0288 9.76475 13.2545 9.61838 13.445 9.43208C13.6355 9.24578 13.7868 9.02331 13.8902 8.77772C13.9935 8.53213 14.0467 8.26837 14.0467 8.00193C14.0467 7.73549 13.9935 7.47174 13.8902 7.22615C13.7868 6.98056 13.6355 6.75808 13.445 6.57178C13.2545 6.38548 13.0288 6.23911 12.7809 6.14126C12.5331 6.04341 12.2683 5.99605 12.0019 6.00196H8.00193ZM80.003 25.9978C76.713 25.9978 74.0011 28.7097 74.0011 31.9997C74.0011 32.7289 74.1407 33.4267 74.3839 34.0758L59.0521 46.8511C58.1538 46.3126 57.109 45.9956 55.9955 45.9956C54.3903 45.9956 52.9273 46.6438 51.8471 47.687L45.9507 44.7378C45.9808 44.4964 46.0015 44.2525 46.0015 44.0034C46.0015 40.7135 43.2896 38.0016 39.9996 38.0016C36.7096 38.0016 33.9977 40.7135 33.9977 44.0034C33.9977 44.6246 34.0961 45.2254 34.275 45.7905L27.3142 51.0131C26.3608 50.3737 25.2185 49.9975 23.9959 49.9975C20.7059 49.9975 18.0018 52.7074 18.0018 55.9974C18.0018 59.2874 20.7059 61.9993 23.9959 61.9993C27.2858 61.9993 29.9977 59.2874 29.9977 55.9974C29.9977 55.3753 29.8999 54.7747 29.7204 54.2084L36.6852 48.9858C37.638 49.623 38.778 49.9975 39.9996 49.9975C41.6041 49.9975 43.068 49.3507 44.1499 48.31L50.0522 51.2612C50.022 51.5031 50.0034 51.7479 50.0034 51.9975C50.0034 55.2875 52.7055 57.9994 55.9955 57.9994C59.2854 57.9994 61.9973 55.2875 61.9973 51.9975C61.9973 51.2689 61.8573 50.5719 61.6145 49.9233L76.9464 37.1461C77.8447 37.6848 78.8893 38.0016 80.003 38.0016C83.293 38.0016 85.9951 35.2897 85.9951 31.9997C85.9951 28.7097 83.293 25.9978 80.003 25.9978ZM80.003 29.9997C81.1312 29.9997 82.003 30.8714 82.003 31.9997C82.003 33.1279 81.1312 34.0016 80.003 34.0016C78.8747 34.0016 78.0011 33.1279 78.0011 31.9997C78.0011 30.8714 78.8747 29.9997 80.003 29.9997ZM79.9991 41.9996C79.4687 41.9996 78.9599 42.2103 78.5849 42.5853C78.2098 42.9604 77.9991 43.4691 77.9991 43.9995C77.9991 44.53 78.2098 45.0387 78.5849 45.4137C78.9599 45.7888 79.4687 45.9995 79.9991 45.9995C80.5295 45.9995 81.0382 45.7888 81.4133 45.4137C81.7883 45.0387 81.999 44.53 81.999 43.9995C81.999 43.4691 81.7883 42.9604 81.4133 42.5853C81.0382 42.2103 80.5295 41.9996 79.9991 41.9996ZM39.9996 42.0035C41.1278 42.0035 42.0015 42.8752 42.0015 44.0034C42.0015 45.1317 41.1278 45.9956 39.9996 45.9956C38.8713 45.9956 37.9996 45.1317 37.9996 44.0034C37.9996 42.8752 38.8713 42.0035 39.9996 42.0035ZM79.9717 47.9741C79.4423 47.9819 78.9376 48.1992 78.5682 48.5785C78.1988 48.9578 77.9948 49.4681 78.0011 49.9975V79.9971C78.0011 80.5278 78.2119 81.0368 78.5871 81.412C78.9624 81.7873 79.4713 81.9981 80.002 81.9981C80.5327 81.9981 81.0416 81.7873 81.4169 81.412C81.7921 81.0368 82.003 80.5278 82.003 79.9971V49.9975C82.0061 49.7303 81.9556 49.4651 81.8546 49.2177C81.7535 48.9702 81.6039 48.7456 81.4145 48.557C81.2252 48.3683 80.9999 48.2196 80.7521 48.1195C80.5043 48.0194 80.239 47.9699 79.9717 47.9741ZM71.9699 49.9741C71.4405 49.9818 70.9358 50.1992 70.5664 50.5785C70.1969 50.9578 69.993 51.4681 69.9992 51.9975V79.9971C69.9992 80.5278 70.21 81.0368 70.5853 81.412C70.9605 81.7873 71.4695 81.9981 72.0002 81.9981C72.5308 81.9981 73.0398 81.7873 73.415 81.412C73.7903 81.0368 74.0011 80.5278 74.0011 79.9971V51.9975C74.0042 51.7302 73.9538 51.4651 73.8527 51.2176C73.7517 50.9702 73.602 50.7456 73.4127 50.5569C73.2233 50.3683 72.9981 50.2196 72.7503 50.1194C72.5025 50.0193 72.2371 49.9699 71.9699 49.9741ZM55.9955 49.9975C57.1237 49.9975 57.9974 50.8692 57.9974 51.9975C57.9974 53.1257 57.1237 53.9975 55.9955 53.9975C54.8672 53.9975 53.9955 53.1257 53.9955 51.9975C53.9955 50.8692 54.8672 49.9975 55.9955 49.9975ZM23.9959 53.9975C25.1241 53.9975 25.9958 54.8692 25.9958 55.9974C25.9958 57.1257 25.1241 57.9994 23.9959 57.9994C22.8676 57.9994 22.0037 57.1257 22.0037 55.9974C22.0037 54.8692 22.8676 53.9975 23.9959 53.9975ZM39.9996 53.9994C39.4691 53.9994 38.9604 54.2101 38.5854 54.5852C38.2103 54.9602 37.9996 55.469 37.9996 55.9994C37.9996 56.5298 38.2103 57.0385 38.5854 57.4136C38.9604 57.7886 39.4691 57.9994 39.9996 57.9994C40.53 57.9994 41.0387 57.7886 41.4138 57.4136C41.7888 57.0385 41.9995 56.5298 41.9995 55.9994C41.9995 55.469 41.7888 54.9602 41.4138 54.5852C41.0387 54.2101 40.53 53.9994 39.9996 53.9994ZM47.9721 57.9701C47.7095 57.9739 47.4502 58.0294 47.209 58.1335C46.9678 58.2376 46.7495 58.3881 46.5665 58.5765C46.3835 58.765 46.2394 58.9876 46.1425 59.2317C46.0455 59.4759 45.9976 59.7367 46.0015 59.9993V79.9971C46.0015 80.5278 46.2123 81.0368 46.5875 81.412C46.9628 81.7873 47.4717 81.9981 48.0024 81.9981C48.5331 81.9981 49.042 81.7873 49.4173 81.412C49.7925 81.0368 50.0034 80.5278 50.0034 79.9971V59.9993C50.0073 59.7316 49.9574 59.4658 49.8567 59.2177C49.756 58.9696 49.6065 58.7442 49.4171 58.555C49.2276 58.3657 49.0021 58.2164 48.7539 58.116C48.5057 58.0155 48.2399 57.9659 47.9721 57.9701ZM63.968 57.9701C63.7054 57.9739 63.4461 58.0294 63.2049 58.1335C62.9637 58.2376 62.7454 58.3881 62.5624 58.5765C62.3794 58.765 62.2353 58.9876 62.1384 59.2317C62.0414 59.4759 61.9935 59.7367 61.9973 59.9993V79.9971C61.9973 80.5278 62.2082 81.0368 62.5834 81.412C62.9587 81.7873 63.4676 81.9981 63.9983 81.9981C64.529 81.9981 65.0379 81.7873 65.4132 81.412C65.7884 81.0368 65.9992 80.5278 65.9992 79.9971V59.9993C66.0032 59.7316 65.9533 59.4658 65.8526 59.2177C65.7519 58.9696 65.6024 58.7442 65.4129 58.555C65.2235 58.3657 64.998 58.2164 64.7498 58.116C64.5016 58.0155 64.2358 57.9659 63.968 57.9701ZM39.9703 59.97C39.7076 59.9739 39.4483 60.0294 39.2071 60.1335C38.966 60.2375 38.7477 60.3881 38.5647 60.5765C38.3817 60.765 38.2376 60.9876 38.1406 61.2317C38.0437 61.4758 37.9958 61.7367 37.9996 61.9993V79.9971C37.9996 80.5278 38.2104 81.0368 38.5857 81.412C38.9609 81.7873 39.4699 81.9981 40.0005 81.9981C40.5312 81.9981 41.0402 81.7873 41.4154 81.412C41.7907 81.0368 42.0015 80.5278 42.0015 79.9971V61.9993C42.0054 61.7316 41.9556 61.4658 41.8548 61.2177C41.7541 60.9696 41.6046 60.7442 41.4152 60.5549C41.2258 60.3657 41.0003 60.2164 40.7521 60.1159C40.5039 60.0155 40.238 59.9658 39.9703 59.97ZM31.9684 61.97C31.7056 61.9739 31.4461 62.0295 31.2048 62.1336C30.9635 62.2378 30.7451 62.3885 30.5621 62.5772C30.3791 62.7658 30.235 62.9887 30.1382 63.233C30.0414 63.4774 29.9936 63.7384 29.9977 64.0012V79.9971C29.9918 80.2635 30.0392 80.5284 30.1371 80.7762C30.2349 81.024 30.3813 81.2498 30.5676 81.4403C30.7539 81.6307 30.9764 81.7821 31.2219 81.8854C31.4675 81.9887 31.7313 82.042 31.9977 82.042C32.2642 82.042 32.5279 81.9887 32.7735 81.8854C33.0191 81.7821 33.2416 81.6307 33.4279 81.4403C33.6142 81.2498 33.7605 81.024 33.8584 80.7762C33.9562 80.5284 34.0036 80.2635 33.9977 79.9971V64.0012C34.0019 63.7335 33.9523 63.4676 33.8518 63.2194C33.7513 62.9712 33.602 62.7457 33.4128 62.5563C33.2235 62.3669 32.9982 62.2174 32.7501 62.1167C32.502 62.0159 32.2362 61.9661 31.9684 61.97ZM55.9662 61.97C55.7034 61.9739 55.4439 62.0295 55.2026 62.1336C54.9613 62.2378 54.7429 62.3885 54.5599 62.5772C54.3768 62.7658 54.2328 62.9887 54.1359 63.233C54.0391 63.4774 53.9914 63.7384 53.9955 64.0012V79.9971C53.9955 80.5278 54.2063 81.0368 54.5816 81.412C54.9568 81.7873 55.4658 81.9981 55.9964 81.9981C56.5271 81.9981 57.0361 81.7873 57.4113 81.412C57.7866 81.0368 57.9974 80.5278 57.9974 79.9971V64.0012C58.0016 63.7333 57.9519 63.4673 57.8513 63.219C57.7507 62.9706 57.6013 62.7451 57.4118 62.5556C57.2223 62.3661 56.9968 62.2167 56.7484 62.1161C56.5001 62.0155 56.2341 61.9658 55.9662 61.97ZM23.9666 65.9719C23.4375 65.9817 22.9339 66.2008 22.566 66.5811C22.1981 66.9615 21.9959 67.4721 22.0037 68.0012V79.9971C21.9862 80.27 22.0248 80.5436 22.1172 80.801C22.2096 81.0584 22.3538 81.2941 22.5409 81.4935C22.7279 81.693 22.9539 81.852 23.2048 81.9606C23.4558 82.0693 23.7263 82.1254 23.9998 82.1254C24.2732 82.1254 24.5438 82.0693 24.7947 81.9606C25.0456 81.852 25.2716 81.693 25.4587 81.4935C25.6458 81.2941 25.7899 81.0584 25.8823 80.801C25.9747 80.5436 26.0134 80.27 25.9958 79.9971V68.0012C25.9998 67.7336 25.95 67.468 25.8494 67.22C25.7488 66.972 25.5994 66.7468 25.4102 66.5575C25.221 66.3683 24.9957 66.219 24.7478 66.1184C24.4998 66.0178 24.2341 65.968 23.9666 65.9719Z" fill="url(#paint0_linear_40_139)"/>
<defs>
<linearGradient id="paint0_linear_40_139" x1="23.8441" y1="-97.3801" x2="-77.7831" y2="-19.9102" gradientUnits="userSpaceOnUse">
<stop stop-color="#2DD1DB"/>
<stop offset="0.60721" stop-color="#2D9CDB"/>
<stop offset="1" stop-color="#1A8ED0"/>
</linearGradient>
</defs>
</svg>
