<svg width="64" height="64" viewBox="0 0 64 64" fill="none" xmlns="http://www.w3.org/2000/svg">
<path d="M13.5111 13.5111L50.4888 50.4888M12.3896 12.3895C23.2201 1.55897 40.7797 1.55897 51.6105 12.3895C62.4409 23.22 62.4409 40.7796 51.6105 51.6104C40.7797 62.4409 23.2201 62.4409 12.3896 51.6104C1.55903 40.7796 1.55903 23.22 12.3896 12.3895Z" stroke="white" stroke-width="2" stroke-linecap="round"/>
<path fill-rule="evenodd" clip-rule="evenodd" d="M21.8668 21.5778L24.5068 18.9333H38.7997L48.2668 28.4163V48.0222L45.6268 50.6667H24.5068L21.8668 48.0222V21.5778ZM45.6268 29.5111L37.7068 21.5778H24.5068V48.0222H45.6268V29.5111Z" fill="white"/>
<path fill-rule="evenodd" clip-rule="evenodd" d="M18.9284 13.3333L16.2668 15.9777V42.4221L18.9284 45.0666V15.9777H36.0001L33.3385 13.3333H18.9284Z" fill="white"/>
</svg>
