<svg width="96" height="96" viewBox="0 0 96 96" fill="none" xmlns="http://www.w3.org/2000/svg">
<g clip-path="url(#clip0_40_209)">
<path d="M81.6201 48.1599C82.6601 47.1866 83.6601 46.2066 84.6201 45.2199C86.2681 45.9419 88.1114 46.0872 89.8522 45.6324C91.593 45.1776 93.1296 44.1493 94.214 42.7135C95.2983 41.2778 95.867 39.5184 95.8282 37.7196C95.7894 35.9208 95.1453 34.1876 94.0001 32.7999C100.6 19.7599 92.5801 9.21994 64.0001 18.7999C56.1201 -6.18006 40 -6.32006 32 18.6199C-0.859951 7.75994 -10.8399 23.8799 14.9601 48.1799C13.9201 49.1599 12.9601 50.1799 12.0001 51.0999C3.80005 46.3399 -4.21995 57.2999 2.46005 63.7399C-0.639949 69.9999 0.22005 74 1.56005 76.16C6.54005 84.4799 22.96 80.7399 32.18 77.6999C40.18 102.18 55.98 102.1 63.8801 77.5199C97.4601 88.8399 107.56 72.5799 81.6201 48.1599ZM88.0001 41.9999C87.2089 41.9999 86.4356 41.7653 85.7778 41.3258C85.12 40.8863 84.6073 40.2616 84.3045 39.5307C84.0018 38.7998 83.9226 37.9955 84.0769 37.2196C84.2313 36.4437 84.6122 35.7309 85.1716 35.1715C85.731 34.6121 86.4438 34.2311 87.2197 34.0768C87.9956 33.9225 88.7999 34.0017 89.5308 34.3044C90.2617 34.6072 90.8864 35.1199 91.3259 35.7777C91.7655 36.4355 92.0001 37.2088 92.0001 37.9999C92.0001 39.0608 91.5786 40.0782 90.8285 40.8284C90.0783 41.5785 89.0609 41.9999 88.0001 41.9999ZM90.7001 30.4999C89.1003 29.9405 87.3642 29.9036 85.7421 30.3945C84.12 30.8854 82.6957 31.8788 81.6745 33.2314C80.6534 34.584 80.0882 36.226 80.0604 37.9205C80.0327 39.615 80.5438 41.2746 81.5201 42.6599C80.62 43.5999 79.6601 44.5199 78.6601 45.4599C61.3401 30.3599 70.6601 44.4199 65.0801 22.6799C80.1201 17.5799 97.6001 16.1999 90.7001 30.4999ZM48.3 66.4999C42.7691 63.6638 37.4249 60.4773 32.3 56.9599C31.8301 51.1227 31.8301 45.2572 32.3 39.4199C37.4274 35.9126 42.7714 32.7329 48.3 29.8999C53.5888 32.6305 58.7051 35.6829 63.62 39.0399C64.1203 45.143 64.1203 51.2768 63.62 57.3799C58.6996 60.7164 53.5838 63.7552 48.3 66.4799V66.4999ZM63.0401 62.4999C62.6115 65.7869 61.9904 69.0458 61.18 72.2599C58.4201 71.2 55.5801 69.9799 52.7001 68.6199C56.84 66.42 59.5601 64.7999 63.0401 62.5399V62.4999ZM43.8801 68.6199C40.82 70.06 37.8801 71.3599 34.8601 72.4599C33.9844 69.0435 33.3165 65.5772 32.8601 62.0799C36.9001 64.7199 39.84 66.4799 43.8801 68.66V68.6199ZM28.16 53.9999C25.6 52.0999 23.18 50.1599 20.92 48.2199C23.18 46.2199 25.58 44.3399 28.14 42.4599C28 46.3599 28 49.9999 28.16 53.9999ZM32.84 34.3199C33.2755 30.793 33.9436 27.2987 34.84 23.8599C37.8 24.9799 40.84 26.2799 43.92 27.7399C39.52 29.9999 36.48 31.9999 32.84 34.2799V34.3199ZM52.84 27.7399C55.7467 26.4066 58.5867 25.1933 61.3601 24.0999C62.1652 27.3209 62.7796 30.5866 63.2001 33.8799C59.32 31.3999 56.2601 29.6199 52.7401 27.6999L52.84 27.7399ZM67.84 41.9999C70.62 43.9999 73.2401 46.0999 75.6401 48.1999C73.2201 50.2999 70.6001 52.3999 67.8201 54.4399C68.0566 50.2968 68.0632 46.1438 67.84 41.9999ZM60.18 20.1799C56.34 21.6399 52.34 23.3799 48.3 25.3999C44.2538 23.3915 40.1085 21.5892 35.8801 19.9999C42.7201 -1.64006 53.62 -0.840061 60.18 20.1799ZM30.98 22.4599C25.18 45.0399 34.5601 30.9599 18 45.4799C-5.09995 23.9999 2.32005 12.9599 30.98 22.4599ZM8.00005 53.9999C8.79118 53.9999 9.56453 54.2345 10.2223 54.6741C10.8801 55.1136 11.3928 55.7383 11.6956 56.4692C11.9983 57.2001 12.0775 58.0044 11.9232 58.7803C11.7689 59.5562 11.3879 60.269 10.8285 60.8284C10.2691 61.3878 9.55634 61.7687 8.78041 61.9231C8.00449 62.0774 7.20022 61.9982 6.46932 61.6955C5.73841 61.3927 5.1137 60.88 4.67417 60.2222C4.23465 59.5644 4.00005 58.7911 4.00005 57.9999C4.00005 56.9391 4.42148 55.9217 5.17162 55.1715C5.92177 54.4214 6.93918 53.9999 8.00005 53.9999ZM6.00005 65.6999C7.51367 66.0631 9.10037 65.9769 10.5657 65.4518C12.031 64.9266 13.3113 63.9854 14.2497 62.7434C15.188 61.5015 15.7437 60.0128 15.8486 58.4597C15.9534 56.9067 15.6029 55.3568 14.8401 53.9999C15.8201 52.9799 16.84 51.9999 17.92 50.9599C34.64 65.5399 25.16 51.3999 31.06 73.9199C16 78.8399 -1.01995 79.9999 6.00005 65.6999ZM36 76.3599C40.1962 74.7714 44.3082 72.969 48.32 70.9599C52.32 72.9599 56.32 74.7 60.1 76.16C53.5 96.86 42.7401 97.4 36 76.3599ZM65.0001 73.66C70.66 51.8799 61.2801 65.9999 78.6601 50.8599C101.46 72.2 94.9201 83.82 64.9801 73.66H65.0001Z" fill="url(#paint0_linear_40_209)"/>
</g>
<defs>
<linearGradient id="paint0_linear_40_209" x1="20.4322" y1="-118.186" x2="-95.8266" y2="-29.3065" gradientUnits="userSpaceOnUse">
<stop stop-color="#2DD1DB"/>
<stop offset="0.60721" stop-color="#2D9CDB"/>
<stop offset="1" stop-color="#1A8ED0"/>
</linearGradient>
<clipPath id="clip0_40_209">
<rect width="96" height="96" fill="white"/>
</clipPath>
</defs>
</svg>
