<svg width="1077" height="70" viewBox="0 0 1077 77" fill="none" xmlns="http://www.w3.org/2000/svg">
<path opacity="0.5" d="M12.5761 74.272L12.2792 74.9608L12.2835 74.9626L12.5761 74.272ZM3.7441 67.36L3.13643 67.7996L3.7441 67.36ZM0.384099 56.704V55.954H-0.377712L-0.36581 56.7157L0.384099 56.704ZM14.7841 56.704L15.5323 56.6518L15.4836 55.954H14.7841V56.704ZM17.6641 63.232L17.1545 63.7824L17.1646 63.7915L17.6641 63.232ZM32.3521 63.424L32.8282 64.0035L32.8342 63.9986L32.8402 63.9934L32.3521 63.424ZM33.2161 52.576L32.6723 53.0926L33.2161 52.576ZM28.6081 49.6L28.3127 50.2894L28.3273 50.2956L28.3421 50.3012L28.6081 49.6ZM21.1201 47.104L20.9085 47.8236L20.9179 47.8262L21.1201 47.104ZM10.4641 43.36L10.1416 44.0371L10.1512 44.0417L10.161 44.046L10.4641 43.36ZM3.4561 37.696L2.8561 38.146L2.86242 38.1544L2.86898 38.1627L3.4561 37.696ZM3.5521 17.152L4.17405 17.5711L3.5521 17.152ZM11.9041 10.432L12.1996 11.1214L12.2098 11.1168L11.9041 10.432ZM40.9921 13.12L40.5267 13.7083L40.5365 13.7158L40.9921 13.12ZM48.1921 27.136V27.886H49L48.94 27.0803L48.1921 27.136ZM33.4081 27.136L32.6593 27.1776L32.6986 27.886H33.4081V27.136ZM30.4321 21.472L29.944 22.0414L29.9549 22.0507L29.9661 22.0596L30.4321 21.472ZM16.8961 21.184L16.4137 20.6097L16.4079 20.6146L16.4022 20.6196L16.8961 21.184ZM16.3201 31.552L15.7756 32.0678L15.7896 32.0825L15.8043 32.0965L16.3201 31.552ZM20.7361 34.432L20.4315 35.1174L20.4465 35.124L20.4619 35.1301L20.7361 34.432ZM28.2241 36.928L28.0086 37.6464L28.0125 37.6475L28.2241 36.928ZM45.9841 46.528L45.3913 46.9874L45.9841 46.528ZM46.1761 66.592L45.5342 66.2042L46.1761 66.592ZM38.0161 73.984L38.3515 74.6549L38.361 74.65L38.0161 73.984ZM25.2481 75.922C20.6627 75.922 16.5401 75.1371 12.8687 73.5814L12.2835 74.9626C16.1641 76.6069 20.4895 77.422 25.2481 77.422V75.922ZM12.873 73.5833C9.27375 72.0319 6.44155 69.8092 4.35177 66.9204L3.13643 67.7996C5.39864 70.9268 8.45445 73.3121 12.2792 74.9607L12.873 73.5833ZM4.35177 66.9204C2.27523 64.0499 1.19586 60.6511 1.13401 56.6923L-0.36581 56.7157C-0.299666 60.9489 0.860964 64.6541 3.13643 67.7996L4.35177 66.9204ZM0.384099 57.454H14.7841V55.954H0.384099V57.454ZM14.0359 56.7562C14.2388 59.6637 15.2628 62.0307 17.1545 63.7823L18.1737 62.6817C16.6094 61.2333 15.7134 59.2483 15.5323 56.6518L14.0359 56.7562ZM17.1646 63.7915C19.129 65.5454 21.7568 66.382 24.9601 66.382V64.882C22.0194 64.882 19.7832 64.1186 18.1636 62.6725L17.1646 63.7915ZM24.9601 66.382C28.2086 66.382 30.8613 65.6192 32.8282 64.0035L31.876 62.8445C30.2589 64.1728 27.9836 64.882 24.9601 64.882V66.382ZM32.8402 63.9934C34.8041 62.3101 35.7901 60.1153 35.7901 57.472H34.2901C34.2901 59.6927 33.4841 61.4659 31.864 62.8546L32.8402 63.9934ZM35.7901 57.472C35.7901 55.3215 35.125 53.4965 33.7598 52.0594L32.6723 53.0926C33.7392 54.2155 34.2901 55.6545 34.2901 57.472H35.7901ZM33.7598 52.0594C32.4571 50.6882 30.8222 49.6377 28.8741 48.8988L28.3421 50.3012C30.106 50.9703 31.5431 51.9038 32.6723 53.0926L33.7598 52.0594ZM28.9035 48.9106C27.0674 48.1237 24.5353 47.2814 21.3223 46.3818L20.9179 47.8262C24.1049 48.7186 26.5648 49.5403 28.3127 50.2894L28.9035 48.9106ZM21.3317 46.3845C16.997 45.1095 13.4786 43.872 10.7672 42.674L10.161 44.046C12.9536 45.28 16.5392 46.5385 20.9085 47.8235L21.3317 46.3845ZM10.7865 42.6829C8.20886 41.4554 5.96132 39.6424 4.04322 37.2293L2.86898 38.1627C4.91888 40.7416 7.34333 42.7046 10.1416 44.0371L10.7865 42.6829ZM4.0561 37.246C2.26051 34.8519 1.3261 31.6335 1.3261 27.52H-0.173902C-0.173902 31.8545 0.811687 35.4201 2.8561 38.146L4.0561 37.246ZM1.3261 27.52C1.3261 23.6831 2.28316 20.377 4.17405 17.5711L2.93015 16.7329C0.85304 19.815 -0.173902 23.4209 -0.173902 27.52H1.3261ZM4.17405 17.5711C6.0696 14.7584 8.73455 12.6063 12.1995 11.1214L11.6087 9.74264C7.90564 11.3296 5.0026 13.6576 2.93015 16.7329L4.17405 17.5711ZM12.2098 11.1168C15.6823 9.56663 19.6713 8.782 24.1921 8.782V7.282C19.4969 7.282 15.2939 8.09737 11.5984 9.74714L12.2098 11.1168ZM24.1921 8.782C30.9806 8.782 36.403 10.4461 40.5268 13.7082L41.4574 12.5318C37.0052 9.00993 31.2276 7.282 24.1921 7.282V8.782ZM40.5365 13.7158C44.7001 16.8997 47.0103 21.365 47.4442 27.1917L48.94 27.0803C48.4779 20.875 45.9881 15.9963 41.4477 12.5242L40.5365 13.7158ZM48.1921 26.386H33.4081V27.886H48.1921V26.386ZM34.1569 27.0944C34.0167 24.5699 32.917 22.4856 30.8981 20.8844L29.9661 22.0596C31.6592 23.4024 32.5435 25.0941 32.6593 27.1776L34.1569 27.0944ZM30.9202 20.9026C28.9583 19.221 26.3687 18.418 23.2321 18.418V19.918C26.1115 19.918 28.3219 20.651 29.944 22.0414L30.9202 20.9026ZM23.2321 18.418C20.478 18.418 18.1805 19.1256 16.4137 20.6097L17.3785 21.7583C18.8117 20.5544 20.7382 19.918 23.2321 19.918V18.418ZM16.4022 20.6196C14.6636 22.1409 13.8421 24.323 13.8421 27.04H15.3421C15.3421 24.637 16.0566 22.9151 17.39 21.7484L16.4022 20.6196ZM13.8421 27.04C13.8421 29.0092 14.4819 30.7022 15.7756 32.0678L16.8646 31.0362C15.8543 29.9698 15.3421 28.6548 15.3421 27.04H13.8421ZM15.8043 32.0965C17.0896 33.3141 18.6355 34.3191 20.4315 35.1174L21.0407 33.7466C19.3807 33.0088 17.9826 32.0939 16.8359 31.0075L15.8043 32.0965ZM20.4619 35.1301C22.2821 35.8452 24.8009 36.684 28.0086 37.6464L28.4396 36.2096C25.2473 35.2519 22.7741 34.4268 21.0103 33.7339L20.4619 35.1301ZM28.0125 37.6475C32.3443 38.9216 35.8578 40.1894 38.5638 41.448L39.1964 40.088C36.3984 38.7866 32.8079 37.4944 28.4357 36.2085L28.0125 37.6475ZM38.5638 41.448C41.2001 42.6742 43.4755 44.5154 45.3913 46.9874L46.5769 46.0686C44.5247 43.4206 42.0641 41.4218 39.1964 40.088L38.5638 41.448ZM45.3913 46.9874C47.2476 49.3826 48.2101 52.5666 48.2101 56.608H49.7101C49.7101 52.3294 48.6886 48.7934 46.5769 46.0686L45.3913 46.9874ZM48.2101 56.608C48.2101 60.0551 47.3196 63.249 45.5342 66.2042L46.818 66.9798C48.7446 63.791 49.7101 60.3289 49.7101 56.608H48.2101ZM45.5342 66.2042C43.7583 69.1436 41.1481 71.5174 37.6712 73.318L38.361 74.65C42.0521 72.7385 44.8819 70.1844 46.818 66.9798L45.5342 66.2042ZM37.6807 73.3132C34.222 75.0425 30.0859 75.922 25.2481 75.922V77.422C30.2663 77.422 34.6422 76.5095 38.3515 74.6548L37.6807 73.3132ZM115.428 53.44V54.19H116.063L116.168 53.5633L115.428 53.44ZM76.5481 53.44V52.69H75.733L75.8007 53.5023L76.5481 53.44ZM80.5801 62.464L80.0726 63.0162L80.5801 62.464ZM99.9721 59.296V58.546H99.5055L99.2993 58.9646L99.9721 59.296ZM114.468 59.296L115.186 59.5115L115.476 58.546H114.468V59.296ZM105.636 71.968L106.086 72.568L106.092 72.5638L105.636 71.968ZM75.7801 73.504L75.4079 74.1553L75.4202 74.162L75.7801 73.504ZM66.2761 63.808L65.6157 64.1636L65.62 64.1714L66.2761 63.808ZM66.2761 34.912L65.6157 34.5564L66.2761 34.912ZM75.6841 25.312L76.0483 25.9676L75.6841 25.312ZM103.14 25.216L102.779 25.8736L102.784 25.876L103.14 25.216ZM112.452 34.528L111.792 34.8842L111.795 34.8905L111.799 34.8967L112.452 34.528ZM101.892 44.416V45.166H102.656L102.642 44.4021L101.892 44.416ZM98.1481 36.16L97.6563 36.7263L97.665 36.7337L98.1481 36.16ZM80.7721 36.064L81.2694 36.6254L81.2704 36.6246L80.7721 36.064ZM76.6441 44.416L75.9016 44.3099L75.7793 45.166H76.6441V44.416ZM115.062 48.256C115.062 50.1438 114.936 51.8295 114.688 53.3167L116.168 53.5633C116.432 51.9785 116.562 50.2082 116.562 48.256H115.062ZM115.428 52.69H76.5481V54.19H115.428V52.69ZM75.8007 53.5023C76.133 57.4906 77.5394 60.6884 80.0726 63.0162L81.0876 61.9118C78.8848 59.8876 77.6031 57.0694 77.2955 53.3777L75.8007 53.5023ZM80.0726 63.0162C82.5899 65.3294 85.6875 66.478 89.3161 66.478V64.978C86.0327 64.978 83.3063 63.9506 81.0876 61.9118L80.0726 63.0162ZM89.3161 66.478C91.9208 66.478 94.197 65.9178 96.1117 64.7621C98.0283 63.6052 99.5354 61.8801 100.645 59.6274L99.2993 58.9646C98.2968 60.9999 96.9719 62.4908 95.3365 63.4779C93.6992 64.4662 91.7034 64.978 89.3161 64.978V66.478ZM99.9721 60.046H114.468V58.546H99.9721V60.046ZM113.75 59.0805C112.26 64.0452 109.41 68.1376 105.181 71.3722L106.092 72.5638C110.566 69.1424 113.604 64.7868 115.186 59.5115L113.75 59.0805ZM105.186 71.368C100.984 74.5192 95.8056 76.114 89.6041 76.114V77.614C96.0746 77.614 101.584 75.9448 106.086 72.568L105.186 71.368ZM89.6041 76.114C84.5974 76.114 80.1152 75.0199 76.14 72.846L75.4202 74.162C79.637 76.4681 84.3708 77.614 89.6041 77.614V76.114ZM76.1522 72.8528C72.2424 70.6186 69.1713 67.4875 66.9322 63.4446L65.62 64.1714C67.9889 68.4485 71.2538 71.7813 75.408 74.1552L76.1522 72.8528ZM66.9365 63.4524C64.7637 59.4172 63.6661 54.7428 63.6661 49.408H62.1661C62.1661 54.9532 63.3085 59.8788 65.6157 64.1636L66.9365 63.4524ZM63.6661 49.408C63.6661 44.0076 64.7643 39.3015 66.9365 35.2676L65.6157 34.5564C63.3079 38.8425 62.1661 43.8004 62.1661 49.408H63.6661ZM66.9365 35.2676C69.1102 31.2306 72.1449 28.1362 76.0483 25.9676L75.3199 24.6564C71.1593 26.9678 67.922 30.2734 65.6157 34.5564L66.9365 35.2676ZM76.0483 25.9676C79.9543 23.7976 84.4658 22.702 89.6041 22.702V21.202C84.2465 21.202 79.4779 22.3464 75.3199 24.6564L76.0483 25.9676ZM89.6041 22.702C94.5491 22.702 98.9345 23.7651 102.779 25.8736L103.501 24.5584C99.4097 22.3149 94.7711 21.202 89.6041 21.202V22.702ZM102.784 25.876C106.687 27.9825 109.686 30.9809 111.792 34.8842L113.112 34.1718C110.867 30.0111 107.657 26.8015 103.496 24.556L102.784 25.876ZM111.799 34.8967C113.967 38.7374 115.062 43.1831 115.062 48.256H116.562C116.562 42.9609 115.417 38.2546 113.105 34.1593L111.799 34.8967ZM102.642 44.4021C102.574 40.751 101.244 37.7868 98.6312 35.5863L97.665 36.7337C99.9159 38.6292 101.082 41.169 101.142 44.4299L102.642 44.4021ZM98.6399 35.5937C96.0584 33.3519 92.9027 32.242 89.2201 32.242V33.742C92.5775 33.742 95.3738 34.7441 97.6563 36.7263L98.6399 35.5937ZM89.2201 32.242C85.7243 32.242 82.7265 33.3233 80.2738 35.5034L81.2704 36.6246C83.4257 34.7087 86.0599 33.742 89.2201 33.742V32.242ZM80.2748 35.5026C77.8752 37.6279 76.4333 40.5884 75.9016 44.3099L77.3866 44.5221C77.8789 41.0756 79.189 38.4681 81.2694 36.6254L80.2748 35.5026ZM76.6441 45.166H101.892V43.666H76.6441V45.166ZM144.822 31.072H144.072V33.7282L145.461 31.4643L144.822 31.072ZM151.542 24.448L151.172 23.7959L151.165 23.7996L151.542 24.448ZM161.142 22.048H161.892V21.298H161.142V22.048ZM161.142 36.16V36.91H161.892V36.16H161.142ZM147.99 39.136L147.485 38.5817L147.477 38.5894L147.99 39.136ZM144.822 76V76.75H145.572V76H144.822ZM131.382 76H130.632V76.75H131.382V76ZM131.382 22.816V22.066H130.632V22.816H131.382ZM144.822 22.816H145.572V22.066H144.822V22.816ZM145.461 31.4643C147.127 28.7499 149.278 26.6316 151.919 25.0964L151.165 23.7996C148.302 25.4644 145.973 27.7621 144.183 30.6797L145.461 31.4643ZM151.913 25.1001C154.604 23.5709 157.674 22.798 161.142 22.798V21.298C157.442 21.298 154.112 22.1251 151.172 23.7959L151.913 25.1001ZM160.392 22.048V36.16H161.892V22.048H160.392ZM161.142 35.41H157.59V36.91H161.142V35.41ZM157.59 35.41C153.26 35.41 149.849 36.4264 147.485 38.5818L148.495 39.6902C150.483 37.8776 153.472 36.91 157.59 36.91V35.41ZM147.477 38.5894C145.137 40.7876 144.072 44.5062 144.072 49.504H145.572C145.572 44.6458 146.62 41.4524 148.504 39.6826L147.477 38.5894ZM144.072 49.504V76H145.572V49.504H144.072ZM144.822 75.25H131.382V76.75H144.822V75.25ZM132.132 76V22.816H130.632V76H132.132ZM131.382 23.566H144.822V22.066H131.382V23.566ZM144.072 22.816V31.072H145.572V22.816H144.072ZM198.131 63.616L197.418 63.8507L198.131 66.0131L198.843 63.8507L198.131 63.616ZM211.571 22.816V22.066H211.028L210.858 22.5813L211.571 22.816ZM225.875 22.816L226.578 23.0763L226.952 22.066H225.875V22.816ZM206.195 76V76.75H206.717L206.898 76.2603L206.195 76ZM189.875 76L189.171 76.2592L189.352 76.75H189.875V76ZM170.291 22.816V22.066H169.215L169.587 23.0752L170.291 22.816ZM184.691 22.816L185.403 22.5813L185.233 22.066H184.691V22.816ZM198.843 63.8507L212.283 23.0507L210.858 22.5813L197.418 63.3813L198.843 63.8507ZM211.571 23.566H225.875V22.066H211.571V23.566ZM225.171 22.5557L205.491 75.7397L206.898 76.2603L226.578 23.0763L225.171 22.5557ZM206.195 75.25H189.875V76.75H206.195V75.25ZM190.578 75.7408L170.994 22.5568L169.587 23.0752L189.171 76.2592L190.578 75.7408ZM170.291 23.566H184.691V22.066H170.291V23.566ZM183.978 23.0507L197.418 63.8507L198.843 63.3813L185.403 22.5813L183.978 23.0507ZM240.047 14.272L239.517 14.8023L239.528 14.8134L239.54 14.8239L240.047 14.272ZM240.047 3.04L240.566 3.58149L240.567 3.58104L240.047 3.04ZM251.855 3.04L251.325 3.57033L251.336 3.58137L251.348 3.59194L251.855 3.04ZM251.855 14.272L252.374 14.8135L252.375 14.813L251.855 14.272ZM252.623 22.816H253.373V22.066H252.623V22.816ZM252.623 76V76.75H253.373V76H252.623ZM239.183 76H238.433V76.75H239.183V76ZM239.183 22.816V22.066H238.433V22.816H239.183ZM245.999 15.73C243.801 15.73 242.004 15.0529 240.555 13.7201L239.54 14.8239C241.291 16.4351 243.461 17.23 245.999 17.23V15.73ZM240.578 13.7417C239.187 12.3512 238.493 10.656 238.493 8.608H236.993C236.993 11.04 237.836 13.1208 239.517 14.8023L240.578 13.7417ZM238.493 8.608C238.493 6.56034 239.186 4.90386 240.566 3.58149L239.528 2.4985C237.836 4.12013 236.993 6.17566 236.993 8.608H238.493ZM240.567 3.58104C242.017 2.18879 243.811 1.486 245.999 1.486V-0.0140038C243.452 -0.0140038 241.278 0.819206 239.528 2.49895L240.567 3.58104ZM245.999 1.486C248.188 1.486 249.943 2.18835 251.325 3.57033L252.386 2.50966C250.696 0.81964 248.547 -0.0140038 245.999 -0.0140038V1.486ZM251.348 3.59194C252.788 4.91712 253.505 6.57055 253.505 8.608H255.005C255.005 6.16544 254.123 4.10687 252.363 2.48805L251.348 3.59194ZM253.505 8.608C253.505 10.6461 252.787 12.338 251.336 13.731L252.375 14.813C254.124 13.134 255.005 11.0499 255.005 8.608H253.505ZM251.336 13.7305C249.956 15.0531 248.198 15.73 245.999 15.73V17.23C248.537 17.23 250.682 16.4349 252.374 14.8135L251.336 13.7305ZM251.873 22.816V76H253.373V22.816H251.873ZM252.623 75.25H239.183V76.75H252.623V75.25ZM239.933 76V22.816H238.433V76H239.933ZM239.183 23.566H252.623V22.066H239.183V23.566ZM271.566 35.008L272.224 35.3679L272.226 35.3636L271.566 35.008ZM280.878 25.408L281.247 26.0612L281.255 26.0566L280.878 25.408ZM310.83 26.944L310.37 27.5366L310.38 27.544L310.83 26.944ZM319.566 40.768V41.518H320.524L320.294 40.5879L319.566 40.768ZM305.07 40.768L304.359 41.0052L304.53 41.518H305.07V40.768ZM301.134 35.392L300.684 35.992L300.696 36.0009L300.708 36.0094L301.134 35.392ZM285.294 37.6L285.876 38.0735L285.881 38.0669L285.294 37.6ZM285.294 61.216L284.707 61.6829L284.712 61.6895L285.294 61.216ZM305.07 58.048V57.298H304.534L304.36 57.8052L305.07 58.048ZM319.566 58.048L320.293 58.2337L320.532 57.298H319.566V58.048ZM310.83 71.776L311.291 72.3675L310.83 71.776ZM280.878 73.504L280.501 74.1526L280.509 74.1571L280.878 73.504ZM271.566 63.904L270.906 64.2596L270.908 64.2639L271.566 63.904ZM268.956 49.408C268.956 44.0072 270.054 39.3353 272.224 35.3679L270.908 34.6481C268.598 38.8727 267.456 43.8008 267.456 49.408H268.956ZM272.226 35.3636C274.402 31.3235 277.407 28.2288 281.247 26.0611L280.509 24.7549C276.413 27.0672 273.21 30.3725 270.906 34.6524L272.226 35.3636ZM281.255 26.0566C285.095 23.8265 289.507 22.702 294.51 22.702V21.202C289.273 21.202 284.597 22.3815 280.501 24.7594L281.255 26.0566ZM294.51 22.702C300.972 22.702 306.24 24.331 310.37 27.5365L311.29 26.3515C306.844 22.901 301.232 21.202 294.51 21.202V22.702ZM310.38 27.544C314.576 30.6911 317.402 35.1413 318.838 40.9481L320.294 40.5879C318.786 34.4907 315.788 29.7249 311.28 26.344L310.38 27.544ZM319.566 40.018H305.07V41.518H319.566V40.018ZM305.782 40.5308C304.966 38.0851 303.56 36.1543 301.56 34.7746L300.708 36.0094C302.42 37.1897 303.638 38.8429 304.359 41.0052L305.782 40.5308ZM301.584 34.792C299.638 33.3323 297.231 32.626 294.414 32.626V34.126C296.973 34.126 299.046 34.7636 300.684 35.992L301.584 34.792ZM294.414 32.626C290.363 32.626 287.1 34.1248 284.707 37.1331L285.881 38.0669C287.968 35.4432 290.785 34.126 294.414 34.126V32.626ZM284.712 37.1265C282.324 40.0605 281.184 44.19 281.184 49.408H282.684C282.684 44.386 283.784 40.6435 285.876 38.0735L284.712 37.1265ZM281.184 49.408C281.184 54.5662 282.326 58.6896 284.707 61.6829L285.881 60.7491C283.782 58.1104 282.684 54.3618 282.684 49.408H281.184ZM284.712 61.6895C287.108 64.6322 290.37 66.094 294.414 66.094V64.594C290.779 64.594 287.96 63.3038 285.876 60.7425L284.712 61.6895ZM294.414 66.094C297.245 66.094 299.652 65.4604 301.582 64.1388C303.516 62.8149 304.906 60.8451 305.78 58.2908L304.36 57.8052C303.57 60.1149 302.353 61.7931 300.734 62.9012C299.112 64.0117 297.023 64.594 294.414 64.594V66.094ZM305.07 58.798H319.566V57.298H305.07V58.798ZM318.839 57.8623C317.405 63.4746 314.58 67.9027 310.369 71.1845L311.291 72.3675C315.785 68.8653 318.783 64.1414 320.293 58.2337L318.839 57.8623ZM310.369 71.1845C306.172 74.4558 300.903 76.114 294.51 76.114V77.614C301.173 77.614 306.784 75.8802 311.291 72.3675L310.369 71.1845ZM294.51 76.114C289.503 76.114 285.089 75.0198 281.247 72.8509L280.509 74.1571C284.603 76.4682 289.277 77.614 294.51 77.614V76.114ZM281.255 72.8554C277.407 70.6214 274.4 67.5222 272.224 63.5441L270.908 64.2639C273.213 68.4778 276.413 71.7786 280.501 74.1526L281.255 72.8554ZM272.226 63.5484C270.054 59.5145 268.956 54.8084 268.956 49.408H267.456C267.456 55.0156 268.598 59.9735 270.906 64.2596L272.226 63.5484ZM384.228 53.44V54.19H384.863L384.968 53.5633L384.228 53.44ZM345.348 53.44V52.69H344.533L344.601 53.5023L345.348 53.44ZM349.38 62.464L348.873 63.0162L349.38 62.464ZM368.772 59.296V58.546H368.305L368.099 58.9646L368.772 59.296ZM383.268 59.296L383.986 59.5115L384.276 58.546H383.268V59.296ZM374.436 71.968L374.886 72.568L374.892 72.5638L374.436 71.968ZM344.58 73.504L344.208 74.1553L344.22 74.162L344.58 73.504ZM335.076 63.808L334.416 64.1636L334.42 64.1714L335.076 63.808ZM335.076 34.912L334.416 34.5564L335.076 34.912ZM344.484 25.312L344.848 25.9676L344.484 25.312ZM371.94 25.216L371.579 25.8736L371.584 25.876L371.94 25.216ZM381.252 34.528L380.592 34.8842L380.595 34.8905L380.599 34.8967L381.252 34.528ZM370.692 44.416V45.166H371.456L371.442 44.4021L370.692 44.416ZM366.948 36.16L366.456 36.7263L366.465 36.7337L366.948 36.16ZM349.572 36.064L350.069 36.6254L350.07 36.6246L349.572 36.064ZM345.444 44.416L344.702 44.3099L344.579 45.166H345.444V44.416ZM383.862 48.256C383.862 50.1438 383.736 51.8295 383.488 53.3167L384.968 53.5633C385.232 51.9785 385.362 50.2082 385.362 48.256H383.862ZM384.228 52.69H345.348V54.19H384.228V52.69ZM344.601 53.5023C344.933 57.4906 346.339 60.6884 348.873 63.0162L349.888 61.9118C347.685 59.8876 346.403 57.0694 346.096 53.3777L344.601 53.5023ZM348.873 63.0162C351.39 65.3294 354.487 66.478 358.116 66.478V64.978C354.833 64.978 352.106 63.9506 349.888 61.9118L348.873 63.0162ZM358.116 66.478C360.721 66.478 362.997 65.9178 364.912 64.7621C366.828 63.6052 368.335 61.8801 369.445 59.6274L368.099 58.9646C367.097 60.9999 365.772 62.4908 364.137 63.4779C362.499 64.4662 360.503 64.978 358.116 64.978V66.478ZM368.772 60.046H383.268V58.546H368.772V60.046ZM382.55 59.0805C381.06 64.0452 378.21 68.1376 373.98 71.3722L374.892 72.5638C379.366 69.1424 382.404 64.7868 383.986 59.5115L382.55 59.0805ZM373.986 71.368C369.784 74.5192 364.606 76.114 358.404 76.114V77.614C364.875 77.614 370.384 75.9448 374.886 72.568L373.986 71.368ZM358.404 76.114C353.397 76.114 348.915 75.0199 344.94 72.846L344.22 74.162C348.437 76.4681 353.171 77.614 358.404 77.614V76.114ZM344.952 72.8528C341.042 70.6186 337.971 67.4875 335.732 63.4446L334.42 64.1714C336.789 68.4485 340.054 71.7813 344.208 74.1552L344.952 72.8528ZM335.736 63.4524C333.564 59.4172 332.466 54.7428 332.466 49.408H330.966C330.966 54.9532 332.109 59.8788 334.416 64.1636L335.736 63.4524ZM332.466 49.408C332.466 44.0076 333.564 39.3015 335.736 35.2676L334.416 34.5564C332.108 38.8425 330.966 43.8004 330.966 49.408H332.466ZM335.736 35.2676C337.91 31.2306 340.945 28.1362 344.848 25.9676L344.12 24.6564C339.959 26.9678 336.722 30.2734 334.416 34.5564L335.736 35.2676ZM344.848 25.9676C348.754 23.7976 353.266 22.702 358.404 22.702V21.202C353.046 21.202 348.278 22.3464 344.12 24.6564L344.848 25.9676ZM358.404 22.702C363.349 22.702 367.734 23.7651 371.579 25.8736L372.301 24.5584C368.21 22.3149 363.571 21.202 358.404 21.202V22.702ZM371.584 25.876C375.487 27.9825 378.486 30.9809 380.592 34.8842L381.912 34.1718C379.667 30.0111 376.457 26.8015 372.296 24.556L371.584 25.876ZM380.599 34.8967C382.767 38.7374 383.862 43.1831 383.862 48.256H385.362C385.362 42.9609 384.217 38.2546 381.905 34.1593L380.599 34.8967ZM371.442 44.4021C371.374 40.751 370.044 37.7868 367.431 35.5863L366.465 36.7337C368.716 38.6292 369.882 41.169 369.942 44.4299L371.442 44.4021ZM367.44 35.5937C364.858 33.3519 361.703 32.242 358.02 32.242V33.742C361.377 33.742 364.174 34.7441 366.456 36.7263L367.44 35.5937ZM358.02 32.242C354.524 32.242 351.527 33.3233 349.074 35.5034L350.07 36.6246C352.226 34.7087 354.86 33.742 358.02 33.742V32.242ZM349.075 35.5026C346.675 37.6279 345.233 40.5884 344.702 44.3099L346.187 44.5221C346.679 41.0756 347.989 38.4681 350.069 36.6254L349.075 35.5026ZM345.444 45.166H370.692V43.666H345.444V45.166ZM408.822 74.56L408.507 75.2407L408.518 75.2454L408.822 74.56ZM400.566 68.128L399.963 68.5734L399.97 68.5825L400.566 68.128ZM397.302 59.2V58.45H396.507L396.553 59.244L397.302 59.2ZM410.838 59.2L411.582 59.107L411.5 58.45H410.838V59.2ZM413.814 64.288L413.354 64.8801L413.364 64.888L413.814 64.288ZM426.39 64.768L425.962 64.1523L425.955 64.1568L425.949 64.1614L426.39 64.768ZM425.91 56.992L425.565 57.6578L425.579 57.6654L425.594 57.6723L425.91 56.992ZM417.558 54.112L417.751 53.3873L417.743 53.3851L417.734 53.383L417.558 54.112ZM407.766 51.136L407.481 51.8299L407.488 51.8324L407.766 51.136ZM401.238 46.432L400.666 46.9173L400.675 46.9271L401.238 46.432ZM401.046 29.824L400.435 29.3895L400.427 29.4005L401.046 29.824ZM408.342 24.064L408.04 23.3775L408.035 23.3798L408.342 24.064ZM434.742 26.752L434.257 27.3242L434.263 27.329L434.742 26.752ZM440.982 39.52V40.27H441.788L441.73 39.4666L440.982 39.52ZM428.118 39.52L427.371 39.5879L427.433 40.27H428.118V39.52ZM425.43 34.528L424.95 35.1042L424.963 35.1149L424.976 35.1251L425.43 34.528ZM413.526 33.952L413.11 33.328L413.103 33.3327L413.096 33.3376L413.526 33.952ZM414.294 41.824L413.94 42.4851L413.949 42.4901L413.959 42.4948L414.294 41.824ZM422.646 44.608L422.461 45.3349L422.464 45.3356L422.646 44.608ZM438.582 52.384L438.003 52.8608L438.011 52.8701L438.019 52.8791L438.582 52.384ZM441.462 60.832H442.212L442.212 60.8184L441.462 60.832ZM438.87 69.088L438.259 68.6535L438.251 68.6645L438.87 69.088ZM431.574 74.848L431.87 75.5374L431.876 75.5345L431.574 74.848ZM420.534 76.114C416.271 76.114 412.473 75.3621 409.127 73.8746L408.518 75.2454C412.083 76.8299 416.093 77.614 420.534 77.614V76.114ZM409.137 73.8794C405.778 72.3241 403.128 70.2525 401.163 67.6735L399.97 68.5825C402.101 71.3795 404.954 73.5959 408.507 75.2406L409.137 73.8794ZM401.17 67.6826C399.27 65.1088 398.234 62.2716 398.051 59.156L396.553 59.244C396.754 62.6564 397.894 65.7712 399.963 68.5734L401.17 67.6826ZM397.302 59.95H410.838V58.45H397.302V59.95ZM410.094 59.293C410.376 61.5513 411.479 63.4221 413.354 64.88L414.275 63.696C412.693 62.4659 411.812 60.9447 411.582 59.107L410.094 59.293ZM413.364 64.888C415.307 66.3453 417.681 67.054 420.438 67.054V65.554C417.948 65.554 415.905 64.9187 414.264 63.688L413.364 64.888ZM420.438 67.054C423.085 67.054 425.247 66.5264 426.831 65.3745L425.949 64.1614C424.717 65.0576 422.911 65.554 420.438 65.554V67.054ZM426.818 65.3837C428.464 64.2392 429.348 62.7101 429.348 60.832H427.848C427.848 62.1539 427.261 63.2488 425.962 64.1523L426.818 65.3837ZM429.348 60.832C429.348 59.8312 429.086 58.9252 428.541 58.1459C427.999 57.3726 427.211 56.7689 426.226 56.3117L425.594 57.6723C426.402 58.0471 426.957 58.4994 427.312 59.0061C427.662 59.5068 427.848 60.1048 427.848 60.832H429.348ZM426.255 56.3262C424.451 55.3907 421.601 54.414 417.751 53.3873L417.365 54.8367C421.195 55.858 423.913 56.8013 425.565 57.6578L426.255 56.3262ZM417.734 53.383C413.786 52.4279 410.56 51.4457 408.045 50.4396L407.488 51.8324C410.092 52.8743 413.394 53.8761 417.382 54.841L417.734 53.383ZM408.051 50.4421C405.666 49.4639 403.584 47.9658 401.801 45.9369L400.675 46.9271C402.604 49.1222 404.874 50.7601 407.481 51.8299L408.051 50.4421ZM401.81 45.9468C400.163 44.006 399.3 41.3475 399.3 37.888H397.8C397.8 41.5965 398.729 44.634 400.666 46.9172L401.81 45.9468ZM399.3 37.888C399.3 35.0953 400.086 32.5549 401.665 30.2475L400.427 29.4005C398.678 31.9571 397.8 34.7927 397.8 37.888H399.3ZM401.658 30.2584C403.297 27.9509 405.616 26.11 408.649 24.7482L408.035 23.3798C404.796 24.834 402.251 26.8331 400.435 29.3896L401.658 30.2584ZM408.644 24.7505C411.73 23.3927 415.367 22.702 419.574 22.702V21.202C415.205 21.202 411.354 21.9193 408.04 23.3775L408.644 24.7505ZM419.574 22.702C425.783 22.702 430.651 24.2681 434.257 27.3242L435.227 26.1798C431.281 22.8359 426.037 21.202 419.574 21.202V22.702ZM434.263 27.329C437.865 30.3209 439.863 34.3792 440.234 39.5734L441.73 39.4666C441.333 33.9088 439.171 29.4551 435.221 26.175L434.263 27.329ZM440.982 38.77H428.118V40.27H440.982V38.77ZM428.865 39.4521C428.655 37.1434 427.662 35.282 425.884 33.9309L424.976 35.1251C426.398 36.206 427.197 37.6726 427.371 39.5879L428.865 39.4521ZM425.91 33.9518C424.202 32.5285 421.934 31.858 419.19 31.858V33.358C421.694 33.358 423.586 33.9675 424.95 35.1042L425.91 33.9518ZM419.19 31.858C416.68 31.858 414.625 32.318 413.11 33.328L413.942 34.576C415.115 33.7939 416.836 33.358 419.19 33.358V31.858ZM413.096 33.3376C411.61 34.3779 410.856 35.8583 410.856 37.696H412.356C412.356 36.3337 412.882 35.3181 413.956 34.5664L413.096 33.3376ZM410.856 37.696C410.856 38.7235 411.115 39.6604 411.65 40.4813C412.181 41.2973 412.959 41.9595 413.94 42.4851L414.648 41.1629C413.837 40.7284 413.271 40.2227 412.907 39.6627C412.545 39.1076 412.356 38.4605 412.356 37.696H410.856ZM413.959 42.4948C415.825 43.4279 418.672 44.3716 422.461 45.3349L422.831 43.8811C419.068 42.9244 416.347 42.0121 414.63 41.1532L413.959 42.4948ZM422.464 45.3356C426.284 46.2905 429.414 47.2723 431.865 48.2779L432.435 46.8901C429.894 45.8477 426.688 44.8455 422.828 43.8804L422.464 45.3356ZM431.865 48.2779C434.242 49.2528 436.286 50.7759 438.003 52.8608L439.161 51.9072C437.294 49.6401 435.05 47.9632 432.435 46.8901L431.865 48.2779ZM438.019 52.8791C439.73 54.8268 440.651 57.457 440.712 60.8456L442.212 60.8184C442.146 57.167 441.146 54.1652 439.145 51.8889L438.019 52.8791ZM440.712 60.832C440.712 63.7533 439.894 66.3525 438.259 68.6536L439.482 69.5224C441.302 66.9595 442.212 64.0547 442.212 60.832H440.712ZM438.251 68.6645C436.68 70.961 434.368 72.7993 431.272 74.1615L431.876 75.5345C435.18 74.0807 437.732 72.079 439.489 69.5115L438.251 68.6645ZM431.279 74.1586C428.255 75.4543 424.68 76.114 420.534 76.114V77.614C424.836 77.614 428.621 76.9297 431.87 75.5374L431.279 74.1586ZM576.458 8.992L577.18 9.1938L577.446 8.242H576.458V8.992ZM557.738 76V76.75H558.307L558.46 76.2018L557.738 76ZM541.898 76L541.172 76.1912L541.32 76.75H541.898V76ZM529.322 28.288L530.047 28.0968L529.338 25.4069L528.599 28.0887L529.322 28.288ZM516.17 76L516.174 76.75L516.742 76.7465L516.893 76.1993L516.17 76ZM500.426 76.096L499.701 76.2908L499.852 76.8495L500.43 76.846L500.426 76.096ZM482.378 8.992V8.242H481.399L481.653 9.18679L482.378 8.992ZM496.778 8.992L497.509 8.82602L497.376 8.242H496.778V8.992ZM508.586 61.024L507.854 61.19L509.311 61.2141L508.586 61.024ZM522.218 8.992V8.242H521.639L521.492 8.80192L522.218 8.992ZM537.194 8.992L537.921 8.81105L537.78 8.242H537.194V8.992ZM550.058 60.736L549.33 60.9169L550.789 60.9042L550.058 60.736ZM561.962 8.992V8.242H561.365L561.231 8.82385L561.962 8.992ZM575.735 8.7902L557.015 75.7982L558.46 76.2018L577.18 9.1938L575.735 8.7902ZM557.738 75.25H541.898V76.75H557.738V75.25ZM542.623 75.8088L530.047 28.0968L528.596 28.4792L541.172 76.1912L542.623 75.8088ZM528.599 28.0887L515.447 75.8007L516.893 76.1993L530.045 28.4873L528.599 28.0887ZM516.165 75.25L500.421 75.346L500.43 76.846L516.174 76.75L516.165 75.25ZM501.15 75.9012L483.102 8.7972L481.653 9.18679L499.701 76.2908L501.15 75.9012ZM482.378 9.742H496.778V8.242H482.378V9.742ZM496.046 9.15798L507.854 61.19L509.317 60.858L497.509 8.82602L496.046 9.15798ZM509.311 61.2141L522.943 9.18208L521.492 8.80192L507.86 60.8339L509.311 61.2141ZM522.218 9.742H537.194V8.242H522.218V9.742ZM536.466 9.17295L549.33 60.9169L550.785 60.5551L537.921 8.81105L536.466 9.17295ZM550.789 60.9042L562.693 9.16015L561.231 8.82385L549.327 60.5678L550.789 60.9042ZM561.962 9.742H576.458V8.242H561.962V9.742ZM640.049 53.44V54.19H640.685L640.789 53.5633L640.049 53.44ZM601.169 53.44V52.69H600.354L600.422 53.5023L601.169 53.44ZM605.201 62.464L604.694 63.0162L605.201 62.464ZM624.593 59.296V58.546H624.127L623.921 58.9646L624.593 59.296ZM639.089 59.296L639.808 59.5115L640.097 58.546H639.089V59.296ZM630.257 71.968L630.707 72.568L630.713 72.5638L630.257 71.968ZM600.401 73.504L600.029 74.1553L600.041 74.162L600.401 73.504ZM590.897 63.808L590.237 64.1636L590.241 64.1714L590.897 63.808ZM590.897 34.912L590.237 34.5564L590.897 34.912ZM600.305 25.312L600.67 25.9676L600.305 25.312ZM627.761 25.216L627.401 25.8736L627.405 25.876L627.761 25.216ZM637.073 34.528L636.413 34.8842L636.417 34.8905L636.42 34.8967L637.073 34.528ZM626.513 44.416V45.166H627.277L627.263 44.4021L626.513 44.416ZM622.769 36.16L622.278 36.7263L622.286 36.7337L622.769 36.16ZM605.393 36.064L605.891 36.6254L605.892 36.6246L605.393 36.064ZM601.265 44.416L600.523 44.3099L600.401 45.166H601.265V44.416ZM639.683 48.256C639.683 50.1438 639.557 51.8295 639.31 53.3167L640.789 53.5633C641.053 51.9785 641.183 50.2082 641.183 48.256H639.683ZM640.049 52.69H601.169V54.19H640.049V52.69ZM600.422 53.5023C600.754 57.4906 602.161 60.6884 604.694 63.0162L605.709 61.9118C603.506 59.8876 602.224 57.0694 601.917 53.3777L600.422 53.5023ZM604.694 63.0162C607.211 65.3294 610.309 66.478 613.937 66.478V64.978C610.654 64.978 607.927 63.9506 605.709 61.9118L604.694 63.0162ZM613.937 66.478C616.542 66.478 618.818 65.9178 620.733 64.7621C622.65 63.6052 624.157 61.8801 625.266 59.6274L623.921 58.9646C622.918 60.9999 621.593 62.4908 619.958 63.4779C618.32 64.4662 616.325 64.978 613.937 64.978V66.478ZM624.593 60.046H639.089V58.546H624.593V60.046ZM638.371 59.0805C636.882 64.0452 634.032 68.1376 629.802 71.3722L630.713 72.5638C635.187 69.1424 638.225 64.7868 639.808 59.5115L638.371 59.0805ZM629.807 71.368C625.606 74.5192 620.427 76.114 614.225 76.114V77.614C620.696 77.614 626.205 75.9448 630.707 72.568L629.807 71.368ZM614.225 76.114C609.219 76.114 604.736 75.0199 600.761 72.846L600.041 74.162C604.258 76.4681 608.992 77.614 614.225 77.614V76.114ZM600.773 72.8528C596.864 70.6186 593.793 67.4875 591.553 63.4446L590.241 64.1714C592.61 68.4485 595.875 71.7813 600.029 74.1552L600.773 72.8528ZM591.558 63.4524C589.385 59.4172 588.287 54.7428 588.287 49.408H586.787C586.787 54.9532 587.93 59.8788 590.237 64.1636L591.558 63.4524ZM588.287 49.408C588.287 44.0076 589.386 39.3015 591.558 35.2676L590.237 34.5564C587.929 38.8425 586.787 43.8004 586.787 49.408H588.287ZM591.558 35.2676C593.731 31.2306 596.766 28.1362 600.67 25.9676L599.941 24.6564C595.781 26.9678 592.543 30.2734 590.237 34.5564L591.558 35.2676ZM600.67 25.9676C604.576 23.7976 609.087 22.702 614.225 22.702V21.202C608.868 21.202 604.099 22.3464 599.941 24.6564L600.67 25.9676ZM614.225 22.702C619.17 22.702 623.556 23.7651 627.401 25.8736L628.122 24.5584C624.031 22.3149 619.392 21.202 614.225 21.202V22.702ZM627.405 25.876C631.308 27.9825 634.307 30.9809 636.413 34.8842L637.733 34.1718C635.488 30.0111 632.278 26.8015 628.118 24.556L627.405 25.876ZM636.42 34.8967C638.588 38.7374 639.683 43.1831 639.683 48.256H641.183C641.183 42.9609 640.038 38.2546 637.726 34.1593L636.42 34.8967ZM627.263 44.4021C627.196 40.751 625.866 37.7868 623.252 35.5863L622.286 36.7337C624.537 38.6292 625.703 41.169 625.763 44.4299L627.263 44.4021ZM623.261 35.5937C620.68 33.3519 617.524 32.242 613.841 32.242V33.742C617.199 33.742 619.995 34.7441 622.278 36.7263L623.261 35.5937ZM613.841 32.242C610.346 32.242 607.348 33.3233 604.895 35.5034L605.892 36.6246C608.047 34.7087 610.681 33.742 613.841 33.742V32.242ZM604.896 35.5026C602.496 37.6279 601.055 40.5884 600.523 44.3099L602.008 44.5221C602.5 41.0756 603.81 38.4681 605.891 36.6254L604.896 35.5026ZM601.265 45.166H626.513V43.666H601.265V45.166ZM730.91 39.808L730.253 39.446L730.248 39.4565L730.91 39.808ZM722.942 47.392L722.593 46.7283L722.588 46.7309L722.942 47.392ZM698.078 50.272V49.522H697.328V50.272H698.078ZM698.078 76V76.75H698.828V76H698.078ZM684.638 76H683.888V76.75H684.638V76ZM684.638 8.992V8.242H683.888V8.992H684.638ZM730.718 19.072L730.067 19.4441L730.073 19.454L730.718 19.072ZM716.99 36.928L717.501 37.4777L717.511 37.4679L716.99 36.928ZM698.078 19.936V19.186H697.328V19.936H698.078ZM698.078 39.424H697.328V40.174H698.078V39.424ZM732.752 29.728C732.752 33.1855 731.92 36.421 730.253 39.446L731.567 40.17C733.356 36.923 734.252 33.4384 734.252 29.728H732.752ZM730.248 39.4565C728.665 42.4388 726.13 44.8669 722.593 46.7283L723.292 48.0557C727.051 46.0771 729.827 43.4492 731.573 40.1595L730.248 39.4565ZM722.588 46.7309C719.145 48.5756 714.733 49.522 709.31 49.522V51.022C714.896 51.022 719.572 50.0484 723.297 48.0531L722.588 46.7309ZM709.31 49.522H698.078V51.022H709.31V49.522ZM697.328 50.272V76H698.828V50.272H697.328ZM698.078 75.25H684.638V76.75H698.078V75.25ZM685.388 76V8.992H683.888V76H685.388ZM684.638 9.742H709.31V8.242H684.638V9.742ZM709.31 9.742C714.41 9.742 718.707 10.6237 722.228 12.3532L722.889 11.0068C719.114 9.15233 714.578 8.242 709.31 8.242V9.742ZM722.228 12.3532C725.759 14.0877 728.359 16.4542 730.067 19.4441L731.37 18.6999C729.494 15.4178 726.654 12.8563 722.889 11.0068L722.228 12.3532ZM730.073 19.454C731.854 22.4642 732.752 25.8821 732.752 29.728H734.252C734.252 25.6379 733.294 21.9518 731.364 18.69L730.073 19.454ZM708.734 40.174C712.54 40.174 715.513 39.3232 717.501 37.4776L716.48 36.3784C714.884 37.8608 712.352 38.674 708.734 38.674V40.174ZM717.511 37.4679C719.482 35.5667 720.428 32.9528 720.428 29.728H718.928C718.928 32.6472 718.082 34.8333 716.47 36.3881L717.511 37.4679ZM720.428 29.728C720.428 26.3255 719.474 23.6426 717.442 21.8251C715.427 20.0217 712.479 19.186 708.734 19.186V20.686C712.286 20.686 714.81 21.4823 716.442 22.9429C718.059 24.3894 718.928 26.6025 718.928 29.728H720.428ZM708.734 19.186H698.078V20.686H708.734V19.186ZM697.328 19.936V39.424H698.828V19.936H697.328ZM698.078 40.174H708.734V38.674H698.078V40.174ZM762.245 31.072H761.495V33.7282L762.884 31.4643L762.245 31.072ZM768.965 24.448L768.594 23.7959L768.588 23.7996L768.965 24.448ZM778.565 22.048H779.315V21.298H778.565V22.048ZM778.565 36.16V36.91H779.315V36.16H778.565ZM765.413 39.136L764.907 38.5817L764.899 38.5894L765.413 39.136ZM762.245 76V76.75H762.995V76H762.245ZM748.805 76H748.055V76.75H748.805V76ZM748.805 22.816V22.066H748.055V22.816H748.805ZM762.245 22.816H762.995V22.066H762.245V22.816ZM762.884 31.4643C764.549 28.7499 766.701 26.6316 769.342 25.0964L768.588 23.7996C765.724 25.4644 763.396 27.7621 761.605 30.6797L762.884 31.4643ZM769.335 25.1001C772.026 23.5709 775.096 22.798 778.565 22.798V21.298C774.865 21.298 771.535 22.1251 768.594 23.7959L769.335 25.1001ZM777.815 22.048V36.16H779.315V22.048H777.815ZM778.565 35.41H775.013V36.91H778.565V35.41ZM775.013 35.41C770.682 35.41 767.271 36.4264 764.907 38.5818L765.918 39.6902C767.906 37.8776 770.895 36.91 775.013 36.91V35.41ZM764.899 38.5894C762.559 40.7876 761.495 44.5062 761.495 49.504H762.995C762.995 44.6458 764.042 41.4524 765.926 39.6826L764.899 38.5894ZM761.495 49.504V76H762.995V49.504H761.495ZM762.245 75.25H748.805V76.75H762.245V75.25ZM749.555 76V22.816H748.055V76H749.555ZM748.805 23.566H762.245V22.066H748.805V23.566ZM761.495 22.816V31.072H762.995V22.816H761.495ZM803.169 73.504L802.801 74.1577L802.809 74.162L803.169 73.504ZM793.473 63.808L792.817 64.1714L792.821 64.179L793.473 63.808ZM793.569 35.008L792.922 34.6295L792.917 34.637L793.569 35.008ZM803.457 25.408L803.813 26.0684L803.82 26.0641L803.457 25.408ZM831.297 25.408L830.934 26.0641L830.942 26.0684L831.297 25.408ZM841.089 35.008L840.437 35.379L840.442 35.3865L841.089 35.008ZM840.993 63.808L840.35 63.4221L840.346 63.4295L840.993 63.808ZM831.009 73.504L831.365 74.1644L831.368 74.1624L831.009 73.504ZM823.809 63.424L824.168 64.0825L824.175 64.0787L823.809 63.424ZM828.993 58.048L829.653 58.4046L828.993 58.048ZM826.881 37.792L826.338 38.3096L826.344 38.316L826.351 38.3223L826.881 37.792ZM807.489 37.792L806.946 37.2744L806.946 37.2748L807.489 37.792ZM807.393 61.12L806.838 61.6239L806.844 61.6306L806.85 61.6372L807.393 61.12ZM816.993 76.114C811.986 76.114 807.504 75.0199 803.529 72.846L802.809 74.162C807.026 76.4681 811.76 77.614 816.993 77.614V76.114ZM803.537 72.8503C799.562 70.6143 796.427 67.481 794.125 63.437L792.821 64.179C795.255 68.455 798.585 71.7857 802.801 74.1577L803.537 72.8503ZM794.129 63.4446C791.895 59.411 790.767 54.7394 790.767 49.408H789.267C789.267 54.9566 790.443 59.885 792.817 64.1714L794.129 63.4446ZM790.767 49.408C790.767 44.0801 791.926 39.4112 794.221 35.379L792.917 34.637C790.477 38.9248 789.267 43.8559 789.267 49.408H790.767ZM794.217 35.3865C796.581 31.343 799.777 28.2417 803.813 26.0684L803.102 24.7476C798.818 27.0543 795.422 30.353 792.922 34.6295L794.217 35.3865ZM803.82 26.0641C807.861 23.8264 812.374 22.702 817.377 22.702V21.202C812.14 21.202 807.373 22.3816 803.094 24.7519L803.82 26.0641ZM817.377 22.702C822.38 22.702 826.893 23.8264 830.934 26.0641L831.66 24.7519C827.381 22.3816 822.614 21.202 817.377 21.202V22.702ZM830.942 26.0684C834.976 28.2407 838.138 31.3397 840.437 35.379L841.741 34.637C839.304 30.3563 835.938 27.0553 831.653 24.7476L830.942 26.0684ZM840.442 35.3865C842.798 39.4174 843.987 44.0835 843.987 49.408H845.487C845.487 43.8525 844.244 38.9185 841.737 34.6295L840.442 35.3865ZM843.987 49.408C843.987 54.729 842.768 59.3924 840.35 63.4221L841.636 64.1939C844.21 59.9036 845.487 54.967 845.487 49.408H843.987ZM840.346 63.4295C837.982 67.4719 834.754 70.607 830.65 72.8456L831.368 74.1624C835.712 71.793 839.14 68.4641 841.641 64.1865L840.346 63.4295ZM830.654 72.8436C826.613 75.0192 822.065 76.114 816.993 76.114V77.614C822.289 77.614 827.085 76.4688 831.365 74.1644L830.654 72.8436ZM816.993 65.902C819.549 65.902 821.945 65.2952 824.168 64.0824L823.45 62.7656C821.449 63.8568 819.301 64.402 816.993 64.402V65.902ZM824.175 64.0787C826.485 62.7877 828.311 60.8875 829.653 58.4046L828.333 57.6914C827.115 59.9445 825.485 61.6283 823.443 62.7693L824.175 64.0787ZM829.653 58.4046C831.006 55.9022 831.663 52.8928 831.663 49.408H830.163C830.163 52.7072 829.541 55.4578 828.333 57.6914L829.653 58.4046ZM831.663 49.408C831.663 44.221 830.282 40.132 827.411 37.2617L826.351 38.3223C828.857 40.828 830.163 44.483 830.163 49.408H831.663ZM827.424 37.2744C824.657 34.3723 821.228 32.914 817.185 32.914V34.414C820.822 34.414 823.857 35.7076 826.338 38.3096L827.424 37.2744ZM817.185 32.914C813.142 32.914 809.713 34.3723 806.946 37.2744L808.032 38.3096C810.513 35.7076 813.548 34.414 817.185 34.414V32.914ZM806.946 37.2748C804.211 40.1463 802.899 44.2304 802.899 49.408H804.399C804.399 44.4736 805.647 40.8137 808.032 38.3092L806.946 37.2748ZM802.899 49.408C802.899 54.5823 804.177 58.6907 806.838 61.6239L807.949 60.6161C805.617 58.0453 804.399 54.3457 804.399 49.408H802.899ZM806.85 61.6372C809.557 64.4796 812.956 65.902 816.993 65.902V64.402C813.35 64.402 810.349 63.1365 807.936 60.6028L806.85 61.6372ZM882.532 63.616L881.82 63.8507L882.532 66.0131L883.244 63.8507L882.532 63.616ZM895.972 22.816V22.066H895.429L895.26 22.5813L895.972 22.816ZM910.276 22.816L910.979 23.0763L911.353 22.066H910.276V22.816ZM890.596 76V76.75H891.118L891.299 76.2603L890.596 76ZM874.276 76L873.572 76.2592L873.753 76.75H874.276V76ZM854.692 22.816V22.066H853.616L853.988 23.0752L854.692 22.816ZM869.092 22.816L869.804 22.5813L869.634 22.066H869.092V22.816ZM883.244 63.8507L896.684 23.0507L895.26 22.5813L881.82 63.3813L883.244 63.8507ZM895.972 23.566H910.276V22.066H895.972V23.566ZM909.573 22.5557L889.892 75.7397L891.299 76.2603L910.979 23.0763L909.573 22.5557ZM890.596 75.25H874.276V76.75H890.596V75.25ZM874.98 75.7408L855.396 22.5568L853.988 23.0752L873.572 76.2592L874.98 75.7408ZM854.692 23.566H869.092V22.066H854.692V23.566ZM868.38 23.0507L881.82 63.8507L883.244 63.3813L869.804 22.5813L868.38 23.0507ZM924.449 14.272L923.918 14.8023L923.929 14.8134L923.941 14.8239L924.449 14.272ZM924.449 3.04L924.968 3.58149L924.968 3.58104L924.449 3.04ZM936.257 3.04L935.726 3.57033L935.737 3.58137L935.749 3.59194L936.257 3.04ZM936.257 14.272L936.776 14.8135L936.776 14.813L936.257 14.272ZM937.025 22.816H937.775V22.066H937.025V22.816ZM937.025 76V76.75H937.775V76H937.025ZM923.585 76H922.835V76.75H923.585V76ZM923.585 22.816V22.066H922.835V22.816H923.585ZM930.401 15.73C928.203 15.73 926.405 15.0529 924.956 13.7201L923.941 14.8239C925.692 16.4351 927.863 17.23 930.401 17.23V15.73ZM924.979 13.7417C923.588 12.3512 922.895 10.656 922.895 8.608H921.395C921.395 11.04 922.237 13.1208 923.918 14.8023L924.979 13.7417ZM922.895 8.608C922.895 6.56034 923.588 4.90386 924.968 3.58149L923.93 2.4985C922.238 4.12013 921.395 6.17566 921.395 8.608H922.895ZM924.968 3.58104C926.418 2.18879 928.212 1.486 930.401 1.486V-0.0140038C927.853 -0.0140038 925.679 0.819206 923.929 2.49895L924.968 3.58104ZM930.401 1.486C932.589 1.486 934.344 2.18835 935.726 3.57033L936.787 2.50966C935.097 0.81964 932.948 -0.0140038 930.401 -0.0140038V1.486ZM935.749 3.59194C937.189 4.91712 937.907 6.57055 937.907 8.608H939.407C939.407 6.16544 938.524 4.10687 936.764 2.48805L935.749 3.59194ZM937.907 8.608C937.907 10.6461 937.188 12.338 935.737 13.731L936.776 14.813C938.525 13.134 939.407 11.0499 939.407 8.608H937.907ZM935.738 13.7305C934.358 15.0531 932.599 15.73 930.401 15.73V17.23C932.938 17.23 935.084 16.4349 936.776 14.8135L935.738 13.7305ZM936.275 22.816V76H937.775V22.816H936.275ZM937.025 75.25H923.585V76.75H937.025V75.25ZM924.335 76V22.816H922.835V76H924.335ZM923.585 23.566H937.025V22.066H923.585V23.566ZM955.775 34.912L955.111 34.5643L955.107 34.5725L955.775 34.912ZM964.607 25.312L964.995 25.9541L964.607 25.312ZM986.879 24.256L986.549 24.9296L986.561 24.9349L986.879 24.256ZM994.367 30.208L993.766 30.6555L995.117 32.4735V30.208H994.367ZM994.367 4.96V4.21H993.617V4.96H994.367ZM1008 4.96H1008.75V4.21H1008V4.96ZM1008 76V76.75H1008.75V76H1008ZM994.367 76H993.617V76.75H994.367V76ZM994.367 68.128H995.117V65.5449L993.734 67.7263L994.367 68.128ZM987.359 74.464L987.007 73.8018L987.359 74.464ZM964.607 73.408L965.003 72.7708L964.607 73.408ZM955.775 63.712L955.104 64.0475L955.111 64.0596L955.775 63.712ZM992.543 41.056L991.883 41.4127L991.888 41.4202L992.543 41.056ZM987.359 35.68L986.979 36.3265L986.986 36.3307L986.993 36.3347L987.359 35.68ZM973.439 35.584L973.065 34.934L973.439 35.584ZM968.255 40.96L967.603 40.5898L967.6 40.5958L968.255 40.96ZM968.255 57.664L967.592 58.0133L967.597 58.0238L967.603 58.0342L968.255 57.664ZM973.439 63.136L973.051 63.7775L973.059 63.7824L973.439 63.136ZM987.359 63.232L987.725 63.8867L987.732 63.8827L987.74 63.8784L987.359 63.232ZM992.543 57.856L993.199 58.2203L993.203 58.2126L992.543 57.856ZM953.357 49.216C953.357 43.94 954.393 39.2913 956.444 35.2515L955.107 34.5725C952.934 38.8527 951.857 43.74 951.857 49.216H953.357ZM956.44 35.2596C958.558 31.2109 961.41 28.1173 964.995 25.9541L964.22 24.6699C960.381 26.9867 957.345 30.2931 955.111 34.5644L956.44 35.2596ZM964.995 25.9541C968.584 23.7882 972.577 22.702 976.991 22.702V21.202C972.318 21.202 968.055 22.3558 964.22 24.6699L964.995 25.9541ZM976.991 22.702C980.332 22.702 983.515 23.4433 986.549 24.9295L987.209 23.5825C983.972 21.9967 980.563 21.202 976.991 21.202V22.702ZM986.561 24.9349C989.598 26.3604 991.991 28.2697 993.766 30.6555L994.969 29.7605C993.031 27.1543 990.433 25.0956 987.198 23.5771L986.561 24.9349ZM995.117 30.208V4.96H993.617V30.208H995.117ZM994.367 5.71H1008V4.21H994.367V5.71ZM1007.25 4.96V76H1008.75V4.96H1007.25ZM1008 75.25H994.367V76.75H1008V75.25ZM995.117 76V68.128H993.617V76H995.117ZM993.734 67.7263C992.146 70.2302 989.912 72.2568 987.007 73.8018L987.712 75.1262C990.823 73.4712 993.261 71.2738 995.001 68.5297L993.734 67.7263ZM987.007 73.8018C984.124 75.3353 980.761 76.114 976.895 76.114V77.614C980.966 77.614 984.578 76.7927 987.712 75.1262L987.007 73.8018ZM976.895 76.114C972.551 76.114 968.593 74.9991 965.003 72.7708L964.212 74.0452C968.046 76.4249 972.279 77.614 976.895 77.614V76.114ZM965.003 72.7708C961.413 70.5428 958.559 67.4147 956.44 63.3644L955.111 64.0596C957.344 68.3293 960.377 71.6652 964.212 74.0452L965.003 72.7708ZM956.446 63.3766C954.394 59.2715 953.357 54.5573 953.357 49.216H951.857C951.857 54.7547 952.933 59.7045 955.104 64.0474L956.446 63.3766ZM995.213 49.408C995.213 46.0466 994.554 43.1308 993.199 40.6918L991.888 41.4202C993.093 43.5892 993.713 46.2414 993.713 49.408H995.213ZM993.203 40.6994C991.861 38.2165 990.035 36.3163 987.725 35.0253L986.993 36.3347C989.035 37.4757 990.666 39.1595 991.884 41.4126L993.203 40.6994ZM987.74 35.0335C985.45 33.6866 982.983 33.01 980.351 33.01V34.51C982.712 34.51 984.917 35.1134 986.979 36.3265L987.74 35.0335ZM980.351 33.01C977.727 33.01 975.294 33.6509 973.065 34.934L973.814 36.234C975.809 35.0851 977.983 34.51 980.351 34.51V33.01ZM973.065 34.934C970.824 36.2244 969.005 38.1194 967.603 40.5898L968.908 41.3302C970.193 39.0646 971.831 37.3756 973.814 36.234L973.065 34.934ZM967.6 40.5958C966.246 43.0327 965.585 45.9157 965.585 49.216H967.085C967.085 46.1163 967.705 43.4953 968.911 41.3242L967.6 40.5958ZM965.585 49.216C965.585 52.5177 966.246 55.4571 967.592 58.0133L968.919 57.3147C967.704 55.0069 967.085 52.3143 967.085 49.216H965.585ZM967.603 58.0342C969.004 60.5019 970.818 62.4244 973.051 63.7774L973.828 62.4946C971.837 61.2876 970.195 59.5621 968.908 57.2938L967.603 58.0342ZM973.059 63.7824C975.346 65.1275 977.78 65.806 980.351 65.806V64.306C978.058 64.306 975.885 63.7044 973.82 62.4895L973.059 63.7824ZM980.351 65.806C982.975 65.806 985.437 65.1653 987.725 63.8867L986.993 62.5773C984.929 63.7307 982.719 64.306 980.351 64.306V65.806ZM987.74 63.8784C990.036 62.5276 991.857 60.6358 993.199 58.2202L991.888 57.4918C990.67 59.6842 989.035 61.3764 986.979 62.5855L987.74 63.8784ZM993.203 58.2126C994.554 55.7141 995.213 52.7703 995.213 49.408H993.713C993.713 52.5737 993.093 55.2619 991.884 57.4994L993.203 58.2126ZM1075.94 53.44V54.19H1076.58L1076.68 53.5633L1075.94 53.44ZM1037.06 53.44V52.69H1036.25L1036.31 53.5023L1037.06 53.44ZM1041.09 62.464L1040.59 63.0162L1041.09 62.464ZM1060.49 59.296V58.546H1060.02L1059.81 58.9646L1060.49 59.296ZM1074.98 59.296L1075.7 59.5115L1075.99 58.546H1074.98V59.296ZM1066.15 71.968L1066.6 72.568L1066.61 72.5638L1066.15 71.968ZM1036.29 73.504L1035.92 74.1553L1035.93 74.162L1036.29 73.504ZM1026.79 63.808L1026.13 64.1636L1026.13 64.1714L1026.79 63.808ZM1026.79 34.912L1026.13 34.5564L1026.79 34.912ZM1036.2 25.312L1036.56 25.9676L1036.2 25.312ZM1063.65 25.216L1063.29 25.8736L1063.3 25.876L1063.65 25.216ZM1072.97 34.528L1072.31 34.8842L1072.31 34.8905L1072.31 34.8967L1072.97 34.528ZM1062.41 44.416V45.166H1063.17L1063.16 44.4021L1062.41 44.416ZM1058.66 36.16L1058.17 36.7263L1058.18 36.7337L1058.66 36.16ZM1041.29 36.064L1041.78 36.6254L1041.78 36.6246L1041.29 36.064ZM1037.16 44.416L1036.42 44.3099L1036.29 45.166H1037.16V44.416ZM1075.58 48.256C1075.58 50.1438 1075.45 51.8295 1075.2 53.3167L1076.68 53.5633C1076.95 51.9785 1077.08 50.2082 1077.08 48.256H1075.58ZM1075.94 52.69H1037.06V54.19H1075.94V52.69ZM1036.31 53.5023C1036.65 57.4906 1038.05 60.6884 1040.59 63.0162L1041.6 61.9118C1039.4 59.8876 1038.12 57.0694 1037.81 53.3777L1036.31 53.5023ZM1040.59 63.0162C1043.1 65.3294 1046.2 66.478 1049.83 66.478V64.978C1046.55 64.978 1043.82 63.9506 1041.6 61.9118L1040.59 63.0162ZM1049.83 66.478C1052.43 66.478 1054.71 65.9178 1056.63 64.7621C1058.54 63.6052 1060.05 61.8801 1061.16 59.6274L1059.81 58.9646C1058.81 60.9999 1057.49 62.4908 1055.85 63.4779C1054.21 64.4662 1052.22 64.978 1049.83 64.978V66.478ZM1060.49 60.046H1074.98V58.546H1060.49V60.046ZM1074.26 59.0805C1072.77 64.0452 1069.92 68.1376 1065.69 71.3722L1066.61 72.5638C1071.08 69.1424 1074.12 64.7868 1075.7 59.5115L1074.26 59.0805ZM1065.7 71.368C1061.5 74.5192 1056.32 76.114 1050.12 76.114V77.614C1056.59 77.614 1062.1 75.9448 1066.6 72.568L1065.7 71.368ZM1050.12 76.114C1045.11 76.114 1040.63 75.0199 1036.65 72.846L1035.93 74.162C1040.15 76.4681 1044.88 77.614 1050.12 77.614V76.114ZM1036.67 72.8528C1032.76 70.6186 1029.69 67.4875 1027.45 63.4446L1026.13 64.1714C1028.5 68.4485 1031.77 71.7813 1035.92 74.1552L1036.67 72.8528ZM1027.45 63.4524C1025.28 59.4172 1024.18 54.7428 1024.18 49.408H1022.68C1022.68 54.9532 1023.82 59.8788 1026.13 64.1636L1027.45 63.4524ZM1024.18 49.408C1024.18 44.0076 1025.28 39.3015 1027.45 35.2676L1026.13 34.5564C1023.82 38.8425 1022.68 43.8004 1022.68 49.408H1024.18ZM1027.45 35.2676C1029.62 31.2306 1032.66 28.1362 1036.56 25.9676L1035.83 24.6564C1031.67 26.9678 1028.44 30.2734 1026.13 34.5564L1027.45 35.2676ZM1036.56 25.9676C1040.47 23.7976 1044.98 22.702 1050.12 22.702V21.202C1044.76 21.202 1039.99 22.3464 1035.83 24.6564L1036.56 25.9676ZM1050.12 22.702C1055.06 22.702 1059.45 23.7651 1063.29 25.8736L1064.01 24.5584C1059.92 22.3149 1055.29 21.202 1050.12 21.202V22.702ZM1063.3 25.876C1067.2 27.9825 1070.2 30.9809 1072.31 34.8842L1073.63 34.1718C1071.38 30.0111 1068.17 26.8015 1064.01 24.556L1063.3 25.876ZM1072.31 34.8967C1074.48 38.7374 1075.58 43.1831 1075.58 48.256H1077.08C1077.08 42.9609 1075.93 38.2546 1073.62 34.1593L1072.31 34.8967ZM1063.16 44.4021C1063.09 40.751 1061.76 37.7868 1059.15 35.5863L1058.18 36.7337C1060.43 38.6292 1061.6 41.169 1061.66 44.4299L1063.16 44.4021ZM1059.15 35.5937C1056.57 33.3519 1053.42 32.242 1049.73 32.242V33.742C1053.09 33.742 1055.89 34.7441 1058.17 36.7263L1059.15 35.5937ZM1049.73 32.242C1046.24 32.242 1043.24 33.3233 1040.79 35.5034L1041.78 36.6246C1043.94 34.7087 1046.57 33.742 1049.73 33.742V32.242ZM1040.79 35.5026C1038.39 37.6279 1036.95 40.5884 1036.42 44.3099L1037.9 44.5221C1038.39 41.0756 1039.7 38.4681 1041.78 36.6254L1040.79 35.5026ZM1037.16 45.166H1062.41V43.666H1037.16V45.166Z" fill="url(#paint0_linear_1332_11901)"/>
<defs>
<linearGradient id="paint0_linear_1332_11901" x1="225.492" y1="-141.462" x2="191.952" y2="120.242" gradientUnits="userSpaceOnUse">
<stop stop-color="#2DD1DB"/>
<stop offset="0.60721" stop-color="#2D9CDB"/>
<stop offset="1" stop-color="#1A8ED0"/>
</linearGradient>
</defs>
</svg>
