<svg width="452" height="102" viewBox="0 0 452 102" fill="none" xmlns="http://www.w3.org/2000/svg">
<path opacity="0.5" d="M12.2874 74.272L11.9905 74.9608L11.9948 74.9626L12.2874 74.272ZM3.45537 67.36L2.8477 67.7996L3.45537 67.36ZM0.0953717 56.704V55.954H-0.666439L-0.654537 56.7157L0.0953717 56.704ZM14.4954 56.704L15.2436 56.6518L15.1949 55.954H14.4954V56.704ZM17.3754 63.232L16.8657 63.7824L16.8759 63.7915L17.3754 63.232ZM32.0634 63.424L32.5394 64.0035L32.5455 63.9986L32.5515 63.9934L32.0634 63.424ZM32.9274 52.576L32.3836 53.0926L32.9274 52.576ZM28.3194 49.6L28.0239 50.2894L28.0385 50.2956L28.0534 50.3012L28.3194 49.6ZM20.8314 47.104L20.6197 47.8236L20.6292 47.8262L20.8314 47.104ZM10.1754 43.36L9.85292 44.0371L9.86252 44.0417L9.87225 44.046L10.1754 43.36ZM3.16737 37.696L2.56737 38.146L2.5737 38.1544L2.58025 38.1627L3.16737 37.696ZM3.26337 17.152L3.88532 17.5711L3.26337 17.152ZM11.6154 10.432L11.9108 11.1214L11.9211 11.1168L11.6154 10.432ZM40.7034 13.12L40.238 13.7083L40.2478 13.7158L40.7034 13.12ZM47.9034 27.136V27.886H48.7113L48.6513 27.0803L47.9034 27.136ZM33.1194 27.136L32.3705 27.1776L32.4099 27.886H33.1194V27.136ZM30.1434 21.472L29.6553 22.0414L29.6661 22.0507L29.6773 22.0596L30.1434 21.472ZM16.6074 21.184L16.125 20.6097L16.1192 20.6146L16.1135 20.6196L16.6074 21.184ZM16.0314 31.552L15.4869 32.0678L15.5008 32.0825L15.5156 32.0965L16.0314 31.552ZM20.4474 34.432L20.1428 35.1174L20.1578 35.124L20.1731 35.1301L20.4474 34.432ZM27.9354 36.928L27.7199 37.6464L27.7237 37.6475L27.9354 36.928ZM45.6954 46.528L45.1026 46.9874L45.6954 46.528ZM45.8874 66.592L45.2454 66.2042L45.8874 66.592ZM37.7274 73.984L38.0628 74.6549L38.0723 74.65L37.7274 73.984ZM24.9594 75.922C20.374 75.922 16.2514 75.1371 12.58 73.5814L11.9948 74.9626C15.8753 76.6069 20.2008 77.422 24.9594 77.422V75.922ZM12.5842 73.5833C8.98502 72.0319 6.15283 69.8092 4.06304 66.9204L2.8477 67.7996C5.10992 70.9268 8.16572 73.3121 11.9905 74.9607L12.5842 73.5833ZM4.06304 66.9204C1.98651 64.0499 0.907136 60.6511 0.84528 56.6923L-0.654537 56.7157C-0.588393 60.9489 0.572237 64.6541 2.8477 67.7996L4.06304 66.9204ZM0.0953717 57.454H14.4954V55.954H0.0953717V57.454ZM13.7472 56.7562C13.95 59.6637 14.9741 62.0307 16.8658 63.7823L17.8849 62.6817C16.3206 61.2333 15.4247 59.2483 15.2436 56.6518L13.7472 56.7562ZM16.8759 63.7915C18.8402 65.5454 21.4681 66.382 24.6714 66.382V64.882C21.7307 64.882 19.4945 64.1186 17.8749 62.6725L16.8759 63.7915ZM24.6714 66.382C27.9199 66.382 30.5726 65.6192 32.5394 64.0035L31.5873 62.8445C29.9701 64.1728 27.6949 64.882 24.6714 64.882V66.382ZM32.5515 63.9934C34.5154 62.3101 35.5014 60.1153 35.5014 57.472H34.0014C34.0014 59.6927 33.1953 61.4659 31.5753 62.8546L32.5515 63.9934ZM35.5014 57.472C35.5014 55.3215 34.8363 53.4965 33.4711 52.0594L32.3836 53.0926C33.4505 54.2155 34.0014 55.6545 34.0014 57.472H35.5014ZM33.4711 52.0594C32.1684 50.6882 30.5335 49.6377 28.5854 48.8988L28.0534 50.3012C29.8173 50.9703 31.2543 51.9038 32.3836 53.0926L33.4711 52.0594ZM28.6148 48.9106C26.7787 48.1237 24.2466 47.2814 21.0336 46.3818L20.6292 47.8262C23.8161 48.7186 26.276 49.5403 28.0239 50.2894L28.6148 48.9106ZM21.043 46.3845C16.7082 45.1095 13.1899 43.872 10.4785 42.674L9.87225 44.046C12.6648 45.28 16.2505 46.5385 20.6197 47.8235L21.043 46.3845ZM10.4978 42.6829C7.92014 41.4554 5.67259 39.6424 3.75449 37.2293L2.58025 38.1627C4.63016 40.7416 7.05461 42.7046 9.85292 44.0371L10.4978 42.6829ZM3.76737 37.246C1.97178 34.8519 1.03737 31.6335 1.03737 27.52H-0.462628C-0.462628 31.8545 0.52296 35.4201 2.56737 38.146L3.76737 37.246ZM1.03737 27.52C1.03737 23.6831 1.99443 20.377 3.88532 17.5711L2.64142 16.7329C0.564313 19.815 -0.462628 23.4209 -0.462628 27.52H1.03737ZM3.88532 17.5711C5.78087 14.7584 8.44583 12.6063 11.9108 11.1214L11.3199 9.74264C7.61692 11.3296 4.71387 13.6576 2.64142 16.7329L3.88532 17.5711ZM11.9211 11.1168C15.3936 9.56663 19.3826 8.782 23.9034 8.782V7.282C19.2082 7.282 15.0051 8.09737 11.3096 9.74714L11.9211 11.1168ZM23.9034 8.782C30.6919 8.782 36.1142 10.4461 40.2381 13.7082L41.1687 12.5318C36.7165 9.00993 30.9388 7.282 23.9034 7.282V8.782ZM40.2478 13.7158C44.4114 16.8997 46.7215 21.365 47.1554 27.1917L48.6513 27.0803C48.1892 20.875 45.6994 15.9963 41.159 12.5242L40.2478 13.7158ZM47.9034 26.386H33.1194V27.886H47.9034V26.386ZM33.8682 27.0944C33.728 24.5699 32.6283 22.4856 30.6094 20.8844L29.6773 22.0596C31.3704 23.4024 32.2548 25.0941 32.3705 27.1776L33.8682 27.0944ZM30.6315 20.9026C28.6696 19.221 26.08 18.418 22.9434 18.418V19.918C25.8228 19.918 28.0331 20.651 29.6553 22.0414L30.6315 20.9026ZM22.9434 18.418C20.1893 18.418 17.8918 19.1256 16.125 20.6097L17.0898 21.7583C18.5229 20.5544 20.4494 19.918 22.9434 19.918V18.418ZM16.1135 20.6196C14.3749 22.1409 13.5534 24.323 13.5534 27.04H15.0534C15.0534 24.637 15.7679 22.9151 17.1013 21.7484L16.1135 20.6196ZM13.5534 27.04C13.5534 29.0092 14.1931 30.7022 15.4869 32.0678L16.5758 31.0362C15.5656 29.9698 15.0534 28.6548 15.0534 27.04H13.5534ZM15.5156 32.0965C16.8009 33.3141 18.3468 34.3191 20.1428 35.1174L20.752 33.7466C19.0919 33.0088 17.6939 32.0939 16.5472 31.0075L15.5156 32.0965ZM20.1731 35.1301C21.9934 35.8452 24.5121 36.684 27.7199 37.6464L28.1509 36.2096C24.9586 35.2519 22.4853 34.4268 20.7216 33.7339L20.1731 35.1301ZM27.7237 37.6475C32.0556 38.9216 35.5691 40.1894 38.2751 41.448L38.9077 40.088C36.1097 38.7866 32.5191 37.4944 28.147 36.2085L27.7237 37.6475ZM38.2751 41.448C40.9114 42.6742 43.1868 44.5154 45.1026 46.9874L46.2882 46.0686C44.236 43.4206 41.7753 41.4218 38.9077 40.088L38.2751 41.448ZM45.1026 46.9874C46.9588 49.3826 47.9214 52.5666 47.9214 56.608H49.4214C49.4214 52.3294 48.3999 48.7934 46.2882 46.0686L45.1026 46.9874ZM47.9214 56.608C47.9214 60.0551 47.0308 63.249 45.2454 66.2042L46.5293 66.9798C48.4559 63.791 49.4214 60.3289 49.4214 56.608H47.9214ZM45.2454 66.2042C43.4695 69.1436 40.8594 71.5174 37.3825 73.318L38.0723 74.65C41.7633 72.7385 44.5932 70.1844 46.5293 66.9798L45.2454 66.2042ZM37.392 73.3132C33.9333 75.0425 29.7972 75.922 24.9594 75.922V77.422C29.9775 77.422 34.3534 76.5095 38.0628 74.6548L37.392 73.3132ZM116.291 22.816H117.041V22.066H116.291V22.816ZM116.291 76V76.75H117.041V76H116.291ZM102.755 76H102.005V76.75H102.755V76ZM102.755 69.28H103.505V67.03L102.155 68.83L102.755 69.28ZM95.9394 74.752L96.2557 75.4321L96.2624 75.4289L95.9394 74.752ZM75.8754 74.08L75.5089 74.7345L75.519 74.7399L75.8754 74.08ZM68.2914 66.304L67.6256 66.6492L67.6294 66.6567L67.6334 66.664L68.2914 66.304ZM65.6034 22.816V22.066H64.8534V22.816H65.6034ZM79.0434 22.816H79.7934V22.066H79.0434V22.816ZM82.2114 61.888L81.6585 62.3948L81.6657 62.4025L82.2114 61.888ZM99.5874 61.888L100.133 62.4026L100.14 62.3948L99.5874 61.888ZM102.755 22.816V22.066H102.005V22.816H102.755ZM115.541 22.816V76H117.041V22.816H115.541ZM116.291 75.25H102.755V76.75H116.291V75.25ZM103.505 76V69.28H102.005V76H103.505ZM102.155 68.83C100.506 71.0292 98.3324 72.7788 95.6163 74.0751L96.2624 75.4289C99.1784 74.0372 101.549 72.1388 103.355 69.73L102.155 68.83ZM95.6231 74.072C92.9775 75.3025 90.0785 75.922 86.9154 75.922V77.422C90.2803 77.422 93.3973 76.7615 96.2557 75.432L95.6231 74.072ZM86.9154 75.922C82.8617 75.922 79.3074 75.0809 76.2317 73.4201L75.519 74.7399C78.8434 76.5351 82.649 77.422 86.9154 77.422V75.922ZM76.2418 73.4256C73.1715 71.7062 70.7416 69.2195 68.9493 65.944L67.6334 66.664C69.5532 70.1725 72.1792 72.8698 75.5089 74.7344L76.2418 73.4256ZM68.9572 65.9588C67.2312 62.6301 66.3534 58.6575 66.3534 54.016H64.8534C64.8534 58.8465 65.7675 63.0659 67.6256 66.6492L68.9572 65.9588ZM66.3534 54.016V22.816H64.8534V54.016H66.3534ZM65.6034 23.566H79.0434V22.066H65.6034V23.566ZM78.2934 22.816V52.096H79.7934V22.816H78.2934ZM78.2934 52.096C78.2934 56.4407 79.3808 59.91 81.6585 62.3948L82.7642 61.3812C80.818 59.258 79.7934 56.1993 79.7934 52.096H78.2934ZM81.6657 62.4025C83.9455 64.8205 87.0382 65.998 90.8514 65.998V64.498C87.3685 64.498 84.7012 63.4355 82.7571 61.3735L81.6657 62.4025ZM90.8514 65.998C94.7241 65.998 97.8507 64.8232 100.133 62.4025L99.0417 61.3735C97.1 63.4328 94.4027 64.498 90.8514 64.498V65.998ZM100.14 62.3948C102.418 59.91 103.505 56.4407 103.505 52.096H102.005C102.005 56.1993 100.981 59.258 99.0345 61.3812L100.14 62.3948ZM103.505 52.096V22.816H102.005V52.096H103.505ZM102.755 23.566H116.291V22.066H102.755V23.566ZM148.752 30.592H148.002V33.0437L149.374 31.0116L148.752 30.592ZM155.856 24.352L155.51 23.6868L155.504 23.6898L155.856 24.352ZM178.608 25.312L178.216 25.9511L178.221 25.9541L178.608 25.312ZM187.344 34.912L186.675 35.2516L186.682 35.2639L187.344 34.912ZM187.344 63.712L186.677 63.3685L186.675 63.3725L187.344 63.712ZM178.608 73.408L178.213 72.7708L178.208 72.7739L178.608 73.408ZM155.856 74.56L155.498 75.219L155.506 75.2236L155.515 75.228L155.856 74.56ZM148.752 68.416L149.361 67.9786L148.002 66.0854V68.416H148.752ZM148.752 76V76.75H149.502V76H148.752ZM135.312 76H134.562V76.75H135.312V76ZM135.312 4.96V4.21H134.562V4.96H135.312ZM148.752 4.96H149.502V4.21H148.752V4.96ZM174.864 40.96L174.204 41.3166L174.21 41.3274L174.216 41.3379L174.864 40.96ZM169.68 35.584L169.306 36.234L169.314 36.2387L169.68 35.584ZM155.856 35.68L156.23 36.33L156.236 36.3265L155.856 35.68ZM150.672 41.056L150.02 40.6858L150.016 40.6925L150.012 40.6994L150.672 41.056ZM150.672 57.76L150.012 58.1166L150.016 58.1235L150.02 58.1302L150.672 57.76ZM155.856 63.232L155.467 63.8734L155.479 63.8803L155.49 63.8867L155.856 63.232ZM169.68 63.136L169.3 62.4895L169.291 62.4946L169.68 63.136ZM174.864 57.664L174.212 57.2938L174.208 57.3005L174.204 57.3074L174.864 57.664ZM149.374 31.0116C151.026 28.5634 153.297 26.5626 156.208 25.0141L155.504 23.6898C152.399 25.3414 149.934 27.5006 148.13 30.1724L149.374 31.0116ZM156.203 25.0172C159.155 23.4797 162.521 22.702 166.32 22.702V21.202C162.311 21.202 158.702 22.0243 155.51 23.6868L156.203 25.0172ZM166.32 22.702C170.734 22.702 174.693 23.7881 178.216 25.9511L179.001 24.6729C175.227 22.3559 170.994 21.202 166.32 21.202V22.702ZM178.221 25.9541C181.803 28.116 184.622 31.2068 186.675 35.2515L188.013 34.5725C185.842 30.2972 182.837 26.988 178.996 24.6699L178.221 25.9541ZM186.682 35.2639C188.791 39.2342 189.858 43.8775 189.858 49.216H191.358C191.358 43.6745 190.249 38.7818 188.006 34.5601L186.682 35.2639ZM189.858 49.216C189.858 54.5539 188.791 59.2652 186.677 63.3685L188.011 64.0555C190.249 59.7108 191.358 54.7581 191.358 49.216H189.858ZM186.675 63.3725C184.621 67.4188 181.8 70.5441 178.213 72.7708L179.004 74.0452C182.84 71.6639 185.843 68.3252 188.013 64.0515L186.675 63.3725ZM178.208 72.7739C174.686 74.9981 170.73 76.114 166.32 76.114V77.614C170.998 77.614 175.234 76.4259 179.009 74.0421L178.208 72.7739ZM166.32 76.114C162.45 76.114 159.083 75.3654 156.197 73.892L155.515 75.228C158.646 76.8266 162.254 77.614 166.32 77.614V76.114ZM156.214 73.901C153.36 72.3501 151.082 70.3747 149.361 67.9786L148.143 68.8534C150.007 71.4493 152.464 73.5699 155.498 75.219L156.214 73.901ZM148.002 68.416V76H149.502V68.416H148.002ZM148.752 75.25H135.312V76.75H148.752V75.25ZM136.062 76V4.96H134.562V76H136.062ZM135.312 5.71H148.752V4.21H135.312V5.71ZM148.002 4.96V30.592H149.502V4.96H148.002ZM177.63 49.216C177.63 45.9098 176.935 43.0218 175.512 40.5821L174.216 41.3379C175.481 43.5062 176.13 46.1222 176.13 49.216H177.63ZM175.524 40.6034C174.182 38.1205 172.356 36.2203 170.046 34.9293L169.314 36.2387C171.356 37.3797 172.986 39.0635 174.204 41.3166L175.524 40.6034ZM170.054 34.934C167.826 33.6509 165.392 33.01 162.768 33.01V34.51C165.136 34.51 167.311 35.0851 169.306 36.234L170.054 34.934ZM162.768 33.01C160.197 33.01 157.763 33.6884 155.476 35.0335L156.236 36.3265C158.302 35.1115 160.475 34.51 162.768 34.51V33.01ZM155.482 35.03C153.241 36.3204 151.422 38.2154 150.02 40.6858L151.324 41.4262C152.61 39.1606 154.248 37.4716 156.23 36.33L155.482 35.03ZM150.012 40.6994C148.663 43.1958 148.002 46.1069 148.002 49.408H149.502C149.502 46.3091 150.121 43.6521 151.332 41.4126L150.012 40.6994ZM148.002 49.408C148.002 52.7091 148.663 55.6201 150.012 58.1166L151.332 57.4034C150.121 55.1638 149.502 52.5069 149.502 49.408H148.002ZM150.02 58.1302C151.42 60.5979 153.235 62.5204 155.467 63.8734L156.245 62.5906C154.253 61.3836 152.612 59.6581 151.324 57.3898L150.02 58.1302ZM155.49 63.8867C157.775 65.1636 160.205 65.806 162.768 65.806V64.306C160.468 64.306 158.289 63.7324 156.222 62.5773L155.49 63.8867ZM162.768 65.806C165.4 65.806 167.838 65.1292 170.069 63.7774L169.291 62.4946C167.298 63.7028 165.129 64.306 162.768 64.306V65.806ZM170.06 63.7824C172.362 62.4285 174.183 60.5006 175.524 58.0206L174.204 57.3074C172.985 59.5634 171.35 61.2835 169.3 62.4895L170.06 63.7824ZM175.516 58.0342C176.936 55.5328 177.63 52.584 177.63 49.216H176.13C176.13 52.376 175.48 55.0592 174.212 57.2938L175.516 58.0342ZM206.903 14.272L206.372 14.8023L206.383 14.8134L206.395 14.8239L206.903 14.272ZM206.903 3.04L207.422 3.58149L207.422 3.58104L206.903 3.04ZM218.807 3.04L218.276 3.57033L218.282 3.57597L218.288 3.58149L218.807 3.04ZM218.807 14.272L219.326 14.8135L219.331 14.808L219.337 14.8023L218.807 14.272ZM215.159 97.408L214.666 96.842L214.66 96.8477L214.654 96.8536L215.159 97.408ZM196.727 101.344H195.977V102.094H196.727V101.344ZM196.727 89.92V89.17H195.977V89.92H196.727ZM204.887 88.672L204.378 88.1209L204.367 88.1311L204.356 88.1417L204.887 88.672ZM206.135 22.816V22.066H205.385V22.816H206.135ZM219.575 22.816H220.325V22.066H219.575V22.816ZM212.951 15.73C210.683 15.73 208.855 15.0493 207.41 13.7201L206.395 14.8239C208.15 16.4387 210.355 17.23 212.951 17.23V15.73ZM207.433 13.7417C206.042 12.3512 205.349 10.656 205.349 8.608H203.849C203.849 11.04 204.691 13.1208 206.372 14.8023L207.433 13.7417ZM205.349 8.608C205.349 6.56034 206.042 4.90386 207.422 3.58149L206.384 2.4985C204.692 4.12013 203.849 6.17566 203.849 8.608H205.349ZM207.422 3.58104C208.868 2.19263 210.692 1.486 212.951 1.486V-0.0140038C210.345 -0.0140038 208.137 0.815367 206.383 2.49895L207.422 3.58104ZM212.951 1.486C215.139 1.486 216.894 2.18835 218.276 3.57033L219.337 2.50966C217.647 0.81964 215.498 -0.0140038 212.951 -0.0140038V1.486ZM218.288 3.58149C219.668 4.90386 220.361 6.56034 220.361 8.608H221.861C221.861 6.17566 221.018 4.12013 219.326 2.4985L218.288 3.58149ZM220.361 8.608C220.361 10.656 219.667 12.3512 218.276 13.7417L219.337 14.8023C221.018 13.1208 221.861 11.04 221.861 8.608H220.361ZM218.288 13.7305C216.908 15.0531 215.149 15.73 212.951 15.73V17.23C215.488 17.23 217.634 16.4349 219.326 14.8135L218.288 13.7305ZM218.825 84.736C218.825 90.5183 217.378 94.4842 214.666 96.842L215.651 97.974C218.827 95.2118 220.325 90.7297 220.325 84.736H218.825ZM214.654 96.8536C211.958 99.3094 208.006 100.594 202.679 100.594V102.094C208.231 102.094 212.599 100.755 215.664 97.9624L214.654 96.8536ZM202.679 100.594H196.727V102.094H202.679V100.594ZM197.477 101.344V89.92H195.977V101.344H197.477ZM196.727 90.67H200.567V89.17H196.727V90.67ZM200.567 90.67C202.677 90.67 204.371 90.2486 205.417 89.2023L204.356 88.1417C203.739 88.7593 202.552 89.17 200.567 89.17V90.67ZM205.395 89.2231C206.451 88.2485 206.885 86.7139 206.885 84.832H205.385C205.385 86.5341 204.986 87.5595 204.378 88.1209L205.395 89.2231ZM206.885 84.832V22.816H205.385V84.832H206.885ZM206.135 23.566H219.575V22.066H206.135V23.566ZM218.825 22.816V84.736H220.325V22.816H218.825ZM287.669 53.44V54.19H288.305L288.409 53.5633L287.669 53.44ZM248.789 53.44V52.69H247.974L248.042 53.5023L248.789 53.44ZM252.821 62.464L252.314 63.0162L252.821 62.464ZM272.213 59.296V58.546H271.747L271.541 58.9646L272.213 59.296ZM286.709 59.296L287.428 59.5115L287.717 58.546H286.709V59.296ZM277.877 71.968L278.327 72.568L278.333 72.5638L277.877 71.968ZM248.021 73.504L247.649 74.1553L247.662 74.162L248.021 73.504ZM238.517 63.808L237.857 64.1636L237.861 64.1714L238.517 63.808ZM238.517 34.912L237.857 34.5564L238.517 34.912ZM247.925 25.312L248.29 25.9676L247.925 25.312ZM275.381 25.216L275.021 25.8736L275.025 25.876L275.381 25.216ZM284.693 34.528L284.033 34.8842L284.037 34.8905L284.04 34.8967L284.693 34.528ZM274.133 44.416V45.166H274.897L274.883 44.4021L274.133 44.416ZM270.389 36.16L269.898 36.7263L269.906 36.7337L270.389 36.16ZM253.013 36.064L253.511 36.6254L253.512 36.6246L253.013 36.064ZM248.885 44.416L248.143 44.3099L248.021 45.166H248.885V44.416ZM287.303 48.256C287.303 50.1438 287.177 51.8295 286.93 53.3167L288.409 53.5633C288.673 51.9785 288.803 50.2082 288.803 48.256H287.303ZM287.669 52.69H248.789V54.19H287.669V52.69ZM248.042 53.5023C248.374 57.4906 249.781 60.6884 252.314 63.0162L253.329 61.9118C251.126 59.8876 249.844 57.0694 249.537 53.3777L248.042 53.5023ZM252.314 63.0162C254.831 65.3294 257.929 66.478 261.557 66.478V64.978C258.274 64.978 255.548 63.9506 253.329 61.9118L252.314 63.0162ZM261.557 66.478C264.162 66.478 266.438 65.9178 268.353 64.7621C270.27 63.6052 271.777 61.8801 272.886 59.6274L271.541 58.9646C270.538 60.9999 269.213 62.4908 267.578 63.4779C265.941 64.4662 263.945 64.978 261.557 64.978V66.478ZM272.213 60.046H286.709V58.546H272.213V60.046ZM285.991 59.0805C284.502 64.0452 281.652 68.1376 277.422 71.3722L278.333 72.5638C282.807 69.1424 285.845 64.7868 287.428 59.5115L285.991 59.0805ZM277.427 71.368C273.226 74.5192 268.047 76.114 261.845 76.114V77.614C268.316 77.614 273.825 75.9448 278.327 72.568L277.427 71.368ZM261.845 76.114C256.839 76.114 252.356 75.0199 248.381 72.846L247.662 74.162C251.878 76.4681 256.612 77.614 261.845 77.614V76.114ZM248.393 72.8528C244.484 70.6186 241.413 67.4875 239.173 63.4446L237.861 64.1714C240.23 68.4485 243.495 71.7813 247.649 74.1552L248.393 72.8528ZM239.178 63.4524C237.005 59.4172 235.907 54.7428 235.907 49.408H234.407C234.407 54.9532 235.55 59.8788 237.857 64.1636L239.178 63.4524ZM235.907 49.408C235.907 44.0076 237.006 39.3015 239.178 35.2676L237.857 34.5564C235.549 38.8425 234.407 43.8004 234.407 49.408H235.907ZM239.178 35.2676C241.351 31.2306 244.386 28.1362 248.29 25.9676L247.561 24.6564C243.401 26.9678 240.163 30.2734 237.857 34.5564L239.178 35.2676ZM248.29 25.9676C252.196 23.7976 256.707 22.702 261.845 22.702V21.202C256.488 21.202 251.719 22.3464 247.561 24.6564L248.29 25.9676ZM261.845 22.702C266.79 22.702 271.176 23.7651 275.021 25.8736L275.742 24.5584C271.651 22.3149 267.012 21.202 261.845 21.202V22.702ZM275.025 25.876C278.928 27.9825 281.927 30.9809 284.033 34.8842L285.353 34.1718C283.108 30.0111 279.898 26.8015 275.738 24.556L275.025 25.876ZM284.04 34.8967C286.208 38.7374 287.303 43.1831 287.303 48.256H288.803C288.803 42.9609 287.658 38.2546 285.346 34.1593L284.04 34.8967ZM274.883 44.4021C274.816 40.751 273.486 37.7868 270.872 35.5863L269.906 36.7337C272.157 38.6292 273.323 41.169 273.384 44.4299L274.883 44.4021ZM270.881 35.5937C268.3 33.3519 265.144 32.242 261.461 32.242V33.742C264.819 33.742 267.615 34.7441 269.898 36.7263L270.881 35.5937ZM261.461 32.242C257.966 32.242 254.968 33.3233 252.515 35.5034L253.512 36.6246C255.667 34.7087 258.301 33.742 261.461 33.742V32.242ZM252.516 35.5026C250.116 37.6279 248.675 40.5884 248.143 44.3099L249.628 44.5221C250.12 41.0756 251.43 38.4681 253.511 36.6254L252.516 35.5026ZM248.885 45.166H274.133V43.666H248.885V45.166ZM303.527 35.008L304.185 35.3679L304.188 35.3636L303.527 35.008ZM312.839 25.408L313.208 26.0612L313.216 26.0566L312.839 25.408ZM342.791 26.944L342.331 27.5366L342.341 27.544L342.791 26.944ZM351.527 40.768V41.518H352.485L352.255 40.5879L351.527 40.768ZM337.031 40.768L336.32 41.0052L336.491 41.518H337.031V40.768ZM333.095 35.392L332.645 35.992L332.657 36.0009L332.67 36.0094L333.095 35.392ZM317.255 37.6L317.837 38.0735L317.842 38.0669L317.255 37.6ZM317.255 61.216L316.668 61.6829L316.674 61.6895L317.255 61.216ZM337.031 58.048V57.298H336.495L336.322 57.8052L337.031 58.048ZM351.527 58.048L352.254 58.2337L352.493 57.298H351.527V58.048ZM342.791 71.776L343.252 72.3675L342.791 71.776ZM312.839 73.504L312.463 74.1526L312.471 74.1571L312.839 73.504ZM303.527 63.904L302.867 64.2596L302.869 64.2639L303.527 63.904ZM300.917 49.408C300.917 44.0072 302.016 39.3353 304.185 35.3679L302.869 34.6481C300.559 38.8727 299.417 43.8008 299.417 49.408H300.917ZM304.188 35.3636C306.363 31.3235 309.368 28.2288 313.208 26.0611L312.471 24.7549C308.375 27.0672 305.172 30.3725 302.867 34.6524L304.188 35.3636ZM313.216 26.0566C317.057 23.8265 321.468 22.702 326.471 22.702V21.202C321.235 21.202 316.558 22.3815 312.463 24.7594L313.216 26.0566ZM326.471 22.702C332.934 22.702 338.201 24.331 342.332 27.5365L343.251 26.3515C338.805 22.901 333.193 21.202 326.471 21.202V22.702ZM342.341 27.544C346.538 30.6911 349.363 35.1413 350.799 40.9481L352.255 40.5879C350.747 34.4907 347.749 29.7249 343.241 26.344L342.341 27.544ZM351.527 40.018H337.031V41.518H351.527V40.018ZM337.743 40.5308C336.928 38.0851 335.522 36.1543 333.521 34.7746L332.67 36.0094C334.381 37.1897 335.599 38.8429 336.32 41.0052L337.743 40.5308ZM333.545 34.792C331.599 33.3323 329.192 32.626 326.375 32.626V34.126C328.934 34.126 331.008 34.7636 332.645 35.992L333.545 34.792ZM326.375 32.626C322.324 32.626 319.061 34.1248 316.668 37.1331L317.842 38.0669C319.929 35.4432 322.746 34.126 326.375 34.126V32.626ZM316.674 37.1265C314.286 40.0605 313.145 44.19 313.145 49.408H314.645C314.645 44.386 315.745 40.6435 317.837 38.0735L316.674 37.1265ZM313.145 49.408C313.145 54.5662 314.287 58.6896 316.668 61.6829L317.842 60.7491C315.743 58.1104 314.645 54.3618 314.645 49.408H313.145ZM316.674 61.6895C319.069 64.6322 322.331 66.094 326.375 66.094V64.594C322.74 64.594 319.922 63.3038 317.837 60.7425L316.674 61.6895ZM326.375 66.094C329.207 66.094 331.613 65.4604 333.543 64.1388C335.477 62.8149 336.867 60.8451 337.741 58.2908L336.322 57.8052C335.532 60.1149 334.314 61.7931 332.696 62.9012C331.074 64.0117 328.984 64.594 326.375 64.594V66.094ZM337.031 58.798H351.527V57.298H337.031V58.798ZM350.801 57.8623C349.366 63.4746 346.541 67.9027 342.33 71.1845L343.252 72.3675C347.746 68.8653 350.744 64.1414 352.254 58.2337L350.801 57.8623ZM342.33 71.1845C338.133 74.4558 332.864 76.114 326.471 76.114V77.614C333.135 77.614 338.746 75.8802 343.252 72.3675L342.33 71.1845ZM326.471 76.114C321.464 76.114 317.05 75.0198 313.208 72.8509L312.471 74.1571C316.565 76.4682 321.238 77.614 326.471 77.614V76.114ZM313.216 72.8554C309.369 70.6214 306.361 67.5222 304.185 63.5441L302.869 64.2639C305.174 68.4778 308.374 71.7786 312.463 74.1526L313.216 72.8554ZM304.188 63.5484C302.016 59.5145 300.917 54.8084 300.917 49.408H299.417C299.417 55.0156 300.559 59.9735 302.867 64.2596L304.188 63.5484ZM382.781 33.856V33.106H382.031V33.856H382.781ZM384.029 63.52L383.499 64.0503L383.519 64.0707L383.541 64.0894L384.029 63.52ZM394.685 64.672H395.435V63.922H394.685V64.672ZM394.685 76V76.75H395.435V76H394.685ZM369.245 33.856H369.995V33.106H369.245V33.856ZM362.909 33.856H362.159V34.606H362.909V33.856ZM362.909 22.816V22.066H362.159V22.816H362.909ZM369.245 22.816V23.566H369.995V22.816H369.245ZM369.245 9.664V8.914H368.495V9.664H369.245ZM382.781 9.664H383.531V8.914H382.781V9.664ZM382.781 22.816H382.031V23.566H382.781V22.816ZM394.685 22.816H395.435V22.066H394.685V22.816ZM394.685 33.856V34.606H395.435V33.856H394.685ZM382.031 33.856V59.584H383.531V33.856H382.031ZM382.031 59.584C382.031 61.4727 382.468 63.019 383.499 64.0503L384.56 62.9897C383.927 62.357 383.531 61.2793 383.531 59.584H382.031ZM383.541 64.0894C384.643 65.0334 386.338 65.422 388.445 65.422V63.922C386.457 63.922 385.208 63.5426 384.517 62.9506L383.541 64.0894ZM388.445 65.422H394.685V63.922H388.445V65.422ZM393.935 64.672V76H395.435V64.672H393.935ZM394.685 75.25H386.237V76.75H394.685V75.25ZM386.237 75.25C380.684 75.25 376.657 73.9006 374.016 71.3341C371.379 68.7715 369.995 64.8708 369.995 59.488H368.495C368.495 65.1132 369.944 69.4685 372.971 72.4099C375.994 75.3474 380.463 76.75 386.237 76.75V75.25ZM369.995 59.488V33.856H368.495V59.488H369.995ZM369.245 33.106H362.909V34.606H369.245V33.106ZM363.659 33.856V22.816H362.159V33.856H363.659ZM362.909 23.566H369.245V22.066H362.909V23.566ZM369.995 22.816V9.664H368.495V22.816H369.995ZM369.245 10.414H382.781V8.914H369.245V10.414ZM382.031 9.664V22.816H383.531V9.664H382.031ZM382.781 23.566H394.685V22.066H382.781V23.566ZM393.935 22.816V33.856H395.435V22.816H393.935ZM394.685 33.106H382.781V34.606H394.685V33.106ZM418.752 74.56L418.437 75.2407L418.448 75.2454L418.752 74.56ZM410.496 68.128L409.893 68.5734L409.9 68.5825L410.496 68.128ZM407.232 59.2V58.45H406.437L406.483 59.244L407.232 59.2ZM420.768 59.2L421.512 59.107L421.43 58.45H420.768V59.2ZM423.744 64.288L423.284 64.8801L423.294 64.888L423.744 64.288ZM436.32 64.768L435.892 64.1523L435.885 64.1568L435.879 64.1614L436.32 64.768ZM435.84 56.992L435.495 57.6578L435.509 57.6654L435.524 57.6723L435.84 56.992ZM427.488 54.112L427.681 53.3873L427.673 53.3851L427.664 53.383L427.488 54.112ZM417.696 51.136L417.411 51.8299L417.418 51.8324L417.696 51.136ZM411.168 46.432L410.596 46.9173L410.605 46.9271L411.168 46.432ZM410.976 29.824L410.365 29.3895L410.357 29.4005L410.976 29.824ZM418.272 24.064L417.97 23.3775L417.965 23.3798L418.272 24.064ZM444.672 26.752L444.187 27.3242L444.193 27.329L444.672 26.752ZM450.912 39.52V40.27H451.718L451.66 39.4666L450.912 39.52ZM438.048 39.52L437.301 39.5879L437.363 40.27H438.048V39.52ZM435.36 34.528L434.88 35.1042L434.893 35.1149L434.906 35.1251L435.36 34.528ZM423.456 33.952L423.04 33.328L423.033 33.3327L423.026 33.3376L423.456 33.952ZM424.224 41.824L423.87 42.4851L423.879 42.4901L423.889 42.4948L424.224 41.824ZM432.576 44.608L432.391 45.3349L432.394 45.3356L432.576 44.608ZM448.512 52.384L447.933 52.8608L447.941 52.8701L447.949 52.8791L448.512 52.384ZM451.392 60.832H452.142L452.142 60.8184L451.392 60.832ZM448.8 69.088L448.189 68.6535L448.181 68.6645L448.8 69.088ZM441.504 74.848L441.8 75.5374L441.806 75.5345L441.504 74.848ZM430.464 76.114C426.201 76.114 422.403 75.3621 419.057 73.8746L418.448 75.2454C422.013 76.8299 426.023 77.614 430.464 77.614V76.114ZM419.067 73.8794C415.708 72.3241 413.058 70.2525 411.093 67.6735L409.9 68.5825C412.031 71.3795 414.884 73.5959 418.437 75.2406L419.067 73.8794ZM411.1 67.6826C409.2 65.1088 408.164 62.2716 407.981 59.156L406.483 59.244C406.684 62.6564 407.824 65.7712 409.893 68.5734L411.1 67.6826ZM407.232 59.95H420.768V58.45H407.232V59.95ZM420.024 59.293C420.306 61.5513 421.409 63.4221 423.284 64.88L424.205 63.696C422.623 62.4659 421.742 60.9447 421.512 59.107L420.024 59.293ZM423.294 64.888C425.237 66.3453 427.611 67.054 430.368 67.054V65.554C427.878 65.554 425.835 64.9187 424.194 63.688L423.294 64.888ZM430.368 67.054C433.015 67.054 435.178 66.5264 436.761 65.3745L435.879 64.1614C434.647 65.0576 432.841 65.554 430.368 65.554V67.054ZM436.748 65.3837C438.394 64.2392 439.278 62.7101 439.278 60.832H437.778C437.778 62.1539 437.191 63.2488 435.892 64.1523L436.748 65.3837ZM439.278 60.832C439.278 59.8312 439.016 58.9252 438.471 58.1459C437.929 57.3726 437.141 56.7689 436.156 56.3117L435.524 57.6723C436.332 58.0471 436.887 58.4994 437.242 59.0061C437.592 59.5068 437.778 60.1048 437.778 60.832H439.278ZM436.185 56.3262C434.381 55.3907 431.531 54.414 427.681 53.3873L427.295 54.8367C431.125 55.858 433.843 56.8013 435.495 57.6578L436.185 56.3262ZM427.664 53.383C423.716 52.4279 420.49 51.4457 417.975 50.4396L417.418 51.8324C420.022 52.8743 423.324 53.8761 427.312 54.841L427.664 53.383ZM417.981 50.4421C415.596 49.4639 413.514 47.9658 411.732 45.9369L410.605 46.9271C412.534 49.1222 414.804 50.7601 417.411 51.8299L417.981 50.4421ZM411.74 45.9468C410.093 44.006 409.23 41.3475 409.23 37.888H407.73C407.73 41.5965 408.659 44.634 410.596 46.9172L411.74 45.9468ZM409.23 37.888C409.23 35.0953 410.016 32.5549 411.595 30.2475L410.357 29.4005C408.608 31.9571 407.73 34.7927 407.73 37.888H409.23ZM411.588 30.2584C413.227 27.9509 415.546 26.11 418.579 24.7482L417.965 23.3798C414.726 24.834 412.181 26.8331 410.365 29.3896L411.588 30.2584ZM418.574 24.7505C421.66 23.3927 425.297 22.702 429.504 22.702V21.202C425.135 21.202 421.284 21.9193 417.97 23.3775L418.574 24.7505ZM429.504 22.702C435.713 22.702 440.581 24.2681 444.187 27.3242L445.157 26.1798C441.211 22.8359 435.967 21.202 429.504 21.202V22.702ZM444.193 27.329C447.795 30.3209 449.793 34.3792 450.164 39.5734L451.66 39.4666C451.263 33.9088 449.101 29.4551 445.151 26.175L444.193 27.329ZM450.912 38.77H438.048V40.27H450.912V38.77ZM438.795 39.4521C438.585 37.1434 437.592 35.282 435.814 33.9309L434.906 35.1251C436.328 36.206 437.127 37.6726 437.301 39.5879L438.795 39.4521ZM435.84 33.9518C434.132 32.5285 431.864 31.858 429.12 31.858V33.358C431.624 33.358 433.516 33.9675 434.88 35.1042L435.84 33.9518ZM429.12 31.858C426.61 31.858 424.555 32.318 423.04 33.328L423.872 34.576C425.045 33.7939 426.766 33.358 429.12 33.358V31.858ZM423.026 33.3376C421.54 34.3779 420.786 35.8583 420.786 37.696H422.286C422.286 36.3337 422.812 35.3181 423.886 34.5664L423.026 33.3376ZM420.786 37.696C420.786 38.7235 421.045 39.6604 421.58 40.4813C422.111 41.2973 422.889 41.9595 423.87 42.4851L424.578 41.1629C423.767 40.7284 423.201 40.2227 422.837 39.6627C422.475 39.1076 422.286 38.4605 422.286 37.696H420.786ZM423.889 42.4948C425.755 43.4279 428.602 44.3716 432.391 45.3349L432.761 43.8811C428.998 42.9244 426.277 42.0121 424.56 41.1532L423.889 42.4948ZM432.394 45.3356C436.214 46.2905 439.344 47.2723 441.795 48.2779L442.365 46.8901C439.824 45.8477 436.618 44.8455 432.758 43.8804L432.394 45.3356ZM441.795 48.2779C444.172 49.2528 446.216 50.7759 447.933 52.8608L449.091 51.9072C447.224 49.6401 444.98 47.9632 442.365 46.8901L441.795 48.2779ZM447.949 52.8791C449.66 54.8268 450.581 57.457 450.642 60.8456L452.142 60.8184C452.076 57.167 451.076 54.1652 449.076 51.8889L447.949 52.8791ZM450.642 60.832C450.642 63.7533 449.824 66.3525 448.189 68.6536L449.412 69.5224C451.233 66.9595 452.142 64.0547 452.142 60.832H450.642ZM448.181 68.6645C446.61 70.961 444.298 72.7993 441.202 74.1615L441.806 75.5345C445.11 74.0807 447.662 72.079 449.419 69.5115L448.181 68.6645ZM441.209 74.1586C438.185 75.4543 434.61 76.114 430.464 76.114V77.614C434.766 77.614 438.551 76.9297 441.8 75.5374L441.209 74.1586Z" fill="url(#paint0_linear_1332_11921)"/>
<defs>
<linearGradient id="paint0_linear_1332_11921" x1="92.9326" y1="-141.462" x2="19.3881" y2="102.356" gradientUnits="userSpaceOnUse">
<stop stop-color="#2DD1DB"/>
<stop offset="0.60721" stop-color="#2D9CDB"/>
<stop offset="1" stop-color="#1A8ED0"/>
</linearGradient>
</defs>
</svg>
